# Blender v2.79 (sub 0) OBJ File: 'Chimney.blend'
# www.blender.org
v -0.233276 0.010613 0.046863
v -0.233276 0.063548 -0.046863
v -0.233276 0.063548 0.046863
v -0.255174 0.063548 0.068761
v -0.255174 0.022693 -0.068761
v -0.255174 0.022693 0.068761
v 0.233276 0.010613 -0.046863
v 0.233276 0.063548 0.046863
v 0.233276 0.063548 -0.046863
v -0.233276 0.010613 -0.046863
v 0.233276 0.010613 0.046863
v 0.224763 -0.162288 0.060566
v -0.224763 -0.162288 -0.060566
v 0.224763 -0.162288 -0.060566
v -0.224763 0.001886 0.060566
v 0.255174 0.022693 0.068761
v -0.224763 0.001886 -0.060566
v 0.255174 0.022693 -0.068761
v 0.224763 0.001886 -0.060566
v 0.224763 0.001886 0.060566
v 0.255174 0.063548 0.068761
v -0.255174 0.063548 -0.068761
v 0.255174 0.063548 -0.068761
v -0.224763 -0.162288 0.060566
vt 0.326723 0.855681
vt 0.385572 0.888918
vt 0.326723 0.888918
vt 0.744194 0.523122
vt 0.993612 0.598515
vt 0.743840 0.597323
vt 0.711750 0.888918
vt 0.652901 0.855681
vt 0.711750 0.855681
vt 0.372766 0.901724
vt 0.665707 0.934961
vt 0.372766 0.934961
vt 0.665707 0.842875
vt 0.372766 0.809638
vt 0.665707 0.809638
vt 0.724906 0.427749
vt 0.233512 0.295335
vt 0.724906 0.295335
vt 0.084795 0.615799
vt 0.942790 0.655778
vt 0.030426 0.655778
vt 0.133056 0.092135
vt 0.627253 0.069108
vt 0.595936 0.092137
vt 0.774439 0.501253
vt 0.991624 0.440491
vt 0.977586 0.502222
vt 0.866481 0.132531
vt 0.734067 0.311996
vt 0.734067 0.132531
vt 0.167764 0.608689
vt 0.659158 0.429224
vt 0.659158 0.608689
vt 0.927832 0.396192
vt 0.986679 0.103251
vt 0.986681 0.396192
vt 0.942790 0.728816
vt 0.170315 0.951009
vt 0.133615 0.757231
vt 0.170315 0.793930
vt 0.952223 0.951009
vt 0.133615 0.987708
vt 0.952223 0.793931
vt 0.988922 0.987709
vt 0.988922 0.757231
vt 0.724906 0.115870
vt 0.233512 0.115870
vt 0.251823 0.005471
vt 0.867797 0.054782
vt 0.251823 0.054782
vt 0.000702 0.485858
vt 0.133116 0.306392
vt 0.133116 0.485858
vt 0.196522 0.134479
vt 0.023951 0.188496
vt 0.033690 0.138680
vt 0.888420 0.615798
vt 0.101742 0.069108
vt 0.210233 0.238647
vt 0.208816 0.183728
vt 0.385572 0.855681
vt 0.993966 0.524312
vt 0.652901 0.888918
vt 0.665707 0.901724
vt 0.372766 0.842875
vt 0.233512 0.427749
vt 0.760991 0.439391
vt 0.866481 0.311996
vt 0.167764 0.429224
vt 0.927830 0.103251
vt 0.030426 0.728816
vt 0.867797 0.005471
vt 0.000702 0.306392
vt 0.025368 0.243415
vn 1.0000 0.0000 0.0000
vn -1.0000 0.0000 0.0000
vn 0.0000 -0.0000 1.0000
vn 0.0000 0.0000 -1.0000
vn 0.0000 -1.0000 -0.0000
vn 0.0000 -0.3665 0.9304
vn 0.0000 -0.3665 -0.9304
vn -0.5647 -0.8253 -0.0000
vn 0.0000 1.0000 0.0000
vn 0.5647 -0.8253 -0.0000
f 1/1/1 2/2/1 3/3/1
f 4/4/2 5/5/2 6/6/2
f 7/7/2 8/8/2 9/9/2
f 10/10/3 9/11/3 2/12/3
f 11/13/4 3/14/4 8/15/4
f 12/16/5 13/17/5 14/18/5
f 15/19/6 16/20/6 6/21/6
f 17/22/7 18/23/7 19/24/7
f 15/25/8 5/26/8 17/27/8
f 20/28/1 14/29/1 19/30/1
f 15/31/3 12/32/3 20/33/3
f 1/34/9 7/35/9 10/36/9
f 21/37/3 6/21/3 16/20/3
f 2/38/9 4/39/9 3/40/9
f 9/41/9 22/42/9 2/38/9
f 8/43/9 23/44/9 9/41/9
f 3/40/9 21/45/9 8/43/9
f 19/46/4 13/17/4 17/47/4
f 22/48/4 18/49/4 5/50/4
f 17/51/2 24/52/2 15/53/2
f 19/54/10 16/55/10 20/56/10
f 15/19/6 20/57/6 16/20/6
f 17/22/7 5/58/7 18/23/7
f 2/38/9 22/42/9 4/39/9
f 9/41/9 23/44/9 22/42/9
f 8/43/9 21/45/9 23/44/9
f 3/40/9 4/39/9 21/45/9
f 23/59/1 16/55/1 18/60/1
f 1/1/1 10/61/1 2/2/1
f 4/4/2 22/62/2 5/5/2
f 7/7/2 11/63/2 8/8/2
f 10/10/3 7/64/3 9/11/3
f 11/13/4 1/65/4 3/14/4
f 12/16/5 24/66/5 13/17/5
f 15/25/8 6/67/8 5/26/8
f 20/28/1 12/68/1 14/29/1
f 15/31/3 24/69/3 12/32/3
f 1/34/9 11/70/9 7/35/9
f 21/37/3 4/71/3 6/21/3
f 19/46/4 14/18/4 13/17/4
f 22/48/4 23/72/4 18/49/4
f 17/51/2 13/73/2 24/52/2
f 19/54/10 18/60/10 16/55/10
f 23/59/1 21/74/1 16/55/1
