# Blender v2.79 (sub 0) OBJ File: ''
# www.blender.org
v -0.233276 0.059983 0.046863
v -0.233276 0.112918 -0.046863
v -0.233276 0.112918 0.046863
v -0.255174 0.112918 0.068761
v -0.255174 0.072063 -0.068761
v -0.255174 0.072063 0.068761
v 0.233276 0.059983 -0.046863
v 0.233276 0.112918 0.046863
v 0.233276 0.112918 -0.046863
v -0.233276 0.059983 -0.046863
v 0.233276 0.059983 0.046863
v 0.224763 -0.112918 0.060566
v -0.224763 -0.112918 -0.060566
v 0.224763 -0.112918 -0.060566
v -0.224763 0.051256 0.060566
v 0.255174 0.072063 0.068761
v -0.224763 0.051256 -0.060566
v 0.255174 0.072063 -0.068761
v 0.224763 0.051256 -0.060566
v 0.224763 0.051256 0.060566
v 0.255174 0.112918 0.068761
v -0.255174 0.112918 -0.068761
v 0.255174 0.112918 -0.068761
v -0.224763 -0.112918 0.060566
vt 0.372766 0.842875
vt 0.339529 0.901724
vt 0.339529 0.842875
vt 0.928236 0.432131
vt 0.882860 0.582247
vt 0.883577 0.431918
vt 0.665707 0.901724
vt 0.698944 0.842875
vt 0.698944 0.901724
vt 0.372766 0.901724
vt 0.665707 0.934961
vt 0.372766 0.934961
vt 0.665707 0.842875
vt 0.372766 0.809638
vt 0.665707 0.809638
vt 0.724906 0.427749
vt 0.233512 0.295335
vt 0.724906 0.295335
vt 0.084795 0.615799
vt 0.942790 0.655778
vt 0.030426 0.655778
vt 0.149969 0.106296
vt 0.916669 0.070572
vt 0.868084 0.106298
vt 0.843255 0.440684
vt 0.842623 0.573097
vt 0.904371 0.427749
vt 0.904371 0.295335
vt 0.233512 0.607214
vt 0.724906 0.607214
vt 0.942790 0.728816
vt 0.170315 0.951009
vt 0.133615 0.757231
vt 0.170315 0.793930
vt 0.952223 0.951009
vt 0.133615 0.987708
vt 0.952223 0.793931
vt 0.988922 0.987709
vt 0.988922 0.757231
vt 0.724906 0.115870
vt 0.233512 0.115870
vt 0.101388 0.005306
vt 0.101388 0.070572
vt 0.054046 0.295335
vt 0.233512 0.427749
vt 0.054046 0.427749
vt 0.178889 0.573214
vt 0.134977 0.432927
vt 0.175474 0.440844
vt 0.888420 0.615798
vt 0.094208 0.584360
vt 0.138853 0.583208
vt 0.927520 0.582460
vt 0.030426 0.728816
vt 0.916669 0.005306
vt 0.090332 0.434079
vn 1.0000 -0.0000 0.0000
vn -1.0000 0.0000 0.0000
vn 0.0000 -0.0000 1.0000
vn 0.0000 0.0000 -1.0000
vn 0.0000 -1.0000 -0.0000
vn 0.0000 -0.3665 0.9304
vn 0.0000 -0.3665 -0.9304
vn -0.5647 -0.8253 -0.0000
vn 0.0000 1.0000 0.0000
vn 0.5647 -0.8253 -0.0000
f 1/1/1 2/2/1 3/3/1
f 4/4/2 5/5/2 6/6/2
f 7/7/2 8/8/2 9/9/2
f 10/10/3 9/11/3 2/12/3
f 11/13/4 3/14/4 8/15/4
f 12/16/5 13/17/5 14/18/5
f 15/19/6 16/20/6 6/21/6
f 17/22/7 18/23/7 19/24/7
f 15/25/8 5/5/8 17/26/8
f 20/27/1 14/18/1 19/28/1
f 15/29/3 12/16/3 20/30/3
f 1/1/9 7/7/9 10/10/9
f 21/31/3 6/21/3 16/20/3
f 2/32/9 4/33/9 3/34/9
f 9/35/9 22/36/9 2/32/9
f 8/37/9 23/38/9 9/35/9
f 3/34/9 21/39/9 8/37/9
f 19/40/4 13/17/4 17/41/4
f 22/42/4 18/23/4 5/43/4
f 17/44/2 24/45/2 15/46/2
f 19/47/10 16/48/10 20/49/10
f 15/19/6 20/50/6 16/20/6
f 17/22/7 5/43/7 18/23/7
f 2/32/9 22/36/9 4/33/9
f 9/35/9 23/38/9 22/36/9
f 8/37/9 21/39/9 23/38/9
f 3/34/9 4/33/9 21/39/9
f 23/51/1 16/48/1 18/52/1
f 1/1/1 10/10/1 2/2/1
f 4/4/2 22/53/2 5/5/2
f 7/7/2 11/13/2 8/8/2
f 10/10/3 7/7/3 9/11/3
f 11/13/4 1/1/4 3/14/4
f 12/16/5 24/45/5 13/17/5
f 15/25/8 6/6/8 5/5/8
f 20/27/1 12/16/1 14/18/1
f 15/29/3 24/45/3 12/16/3
f 1/1/9 11/13/9 7/7/9
f 21/31/3 4/54/3 6/21/3
f 19/40/4 14/18/4 13/17/4
f 22/42/4 23/55/4 18/23/4
f 17/44/2 13/17/2 24/45/2
f 19/47/10 18/52/10 16/48/10
f 23/51/1 21/56/1 16/48/1
