# Blender v2.79 (sub 0) OBJ File: 'Assets.blend'
# www.blender.org
mtllib lamp.mtl
o Cylinder.002
v 0.002190 -2.057433 -0.397151
v 0.002190 -2.141963 -0.397151
v 0.283813 -2.057433 -0.280499
v 0.283813 -2.141963 -0.280499
v 0.400465 -2.057433 0.001125
v 0.400465 -2.141963 0.001125
v 0.283813 -2.057433 0.282748
v 0.283813 -2.141963 0.282748
v 0.002190 -2.057433 0.399401
v 0.002190 -2.141963 0.399401
v -0.279434 -2.057433 0.282748
v -0.279434 -2.141963 0.282748
v -0.396086 -2.057433 0.001125
v -0.396086 -2.141963 0.001125
v -0.279434 -2.057433 -0.280498
v -0.279434 -2.141963 -0.280498
v 0.002189 -0.733909 -0.178182
v 0.002189 -2.126875 -0.257483
v 0.128979 -0.733909 -0.125664
v 0.185053 -2.126875 -0.181738
v 0.181496 -0.733909 0.001125
v 0.260797 -2.126875 0.001125
v 0.128979 -0.733909 0.127914
v 0.185053 -2.126875 0.183988
v 0.002189 -0.733909 0.180432
v 0.002189 -2.126875 0.259733
v -0.124600 -0.733909 0.127914
v -0.180674 -2.126875 0.183988
v -0.177118 -0.733909 0.001125
v -0.256418 -2.126875 0.001125
v -0.124600 -0.733909 -0.125664
v -0.180674 -2.126875 -0.181738
v 0.002189 -0.733909 -0.257483
v 0.185053 -0.733909 -0.181738
v 0.260797 -0.733909 0.001125
v 0.185053 -0.733909 0.183988
v 0.002189 -0.733909 0.259733
v -0.180674 -0.733909 0.183988
v -0.256418 -0.733909 0.001125
v -0.180674 -0.733909 -0.181738
v 0.002190 0.326671 -0.074025
v 0.055329 0.326671 -0.052014
v 0.077339 0.326671 0.001125
v 0.055329 0.326671 0.054264
v 0.002190 0.326671 0.076275
v -0.050949 0.326671 0.054264
v -0.072960 0.326671 0.001125
v -0.050949 0.326671 -0.052014
v 0.002190 0.326671 -0.178182
v 0.128979 0.326671 -0.125664
v 0.181497 0.326671 0.001125
v 0.128979 0.326671 0.127914
v 0.002190 0.326671 0.180432
v -0.124600 0.326671 0.127914
v -0.177117 0.326671 0.001125
v -0.124600 0.326671 -0.125664
v 0.002188 1.577085 -0.074025
v 0.055327 1.577085 -0.052014
v 0.077338 1.577085 0.001125
v 0.055327 1.577085 0.054264
v 0.002188 1.577085 0.076275
v -0.050951 1.577085 0.054264
v -0.072962 1.577085 0.001125
v -0.050951 1.577085 -0.052014
v 0.002188 1.787897 -0.213663
v 0.154066 1.787897 -0.150753
v 0.216976 1.787897 0.001125
v 0.154066 1.787897 0.153003
v 0.002188 1.787897 0.215913
v -0.149690 1.787897 0.153003
v -0.212600 1.787897 0.001125
v -0.149690 1.787897 -0.150753
v 0.002188 1.787897 -0.323814
v 0.231954 1.787897 -0.228641
v 0.327127 1.787897 0.001125
v 0.231954 1.787897 0.230891
v 0.002188 1.787897 0.326064
v -0.227578 1.787897 0.230891
v -0.322751 1.787897 0.001125
v -0.227578 1.787897 -0.228641
v 0.002188 2.221009 -0.262808
v 0.188817 2.221009 -0.185504
v 0.266121 2.221009 0.001125
v 0.188817 2.221009 0.187754
v 0.002188 2.221009 0.265058
v -0.184440 2.221009 0.187754
v -0.261745 2.221009 0.001125
v -0.184441 2.221009 -0.185504
v 0.002188 2.406702 0.076273
v 0.055327 2.406702 0.054263
v 0.077338 2.406702 0.001124
v 0.055327 2.406702 -0.052015
v 0.002188 2.406702 -0.074026
v -0.050951 2.406702 -0.052015
v -0.072962 2.406702 0.001124
v -0.050951 2.406702 0.054263
v 0.002188 2.195889 0.215912
v 0.154066 2.195889 0.153002
v 0.216976 2.195889 0.001124
v 0.154066 2.195889 -0.150755
v 0.002188 2.195889 -0.213664
v -0.149690 2.195889 -0.150755
v -0.212600 2.195889 0.001124
v -0.149690 2.195889 0.153002
v 0.002188 2.195889 0.326062
v 0.231954 2.195889 0.230890
v 0.327127 2.195889 0.001124
v 0.231954 2.195889 -0.228643
v 0.002188 2.195889 -0.323815
v -0.227578 2.195889 -0.228643
v -0.322751 2.195889 0.001124
v -0.227578 2.195889 0.230890
v 0.000101 2.465713 0.000987
v 0.019939 2.460133 -0.018851
v 0.036757 2.444240 -0.035669
v 0.047995 2.420455 -0.046907
v 0.028157 2.460133 0.000987
v 0.051941 2.444240 0.000987
v 0.067834 2.420455 0.000987
v 0.019939 2.460133 0.020826
v 0.036757 2.444240 0.037644
v 0.047995 2.420455 0.048882
v 0.000101 2.460133 0.029043
v 0.000101 2.444240 0.052828
v 0.000101 2.420455 0.068720
v -0.019738 2.460133 0.020826
v -0.036556 2.444240 0.037644
v -0.047794 2.420455 0.048882
v -0.027955 2.460133 0.000987
v -0.051740 2.444240 0.000987
v -0.067632 2.420455 0.000987
v -0.019738 2.460133 -0.018851
v -0.036556 2.444240 -0.035669
v -0.047794 2.420455 -0.046907
v 0.000101 2.460133 -0.027068
v 0.000101 2.444240 -0.050853
v 0.000101 2.420455 -0.066745
v 0.002189 -2.050177 -0.257483
v 0.185053 -2.050177 -0.181738
v 0.260797 -2.050177 0.001125
v 0.185053 -2.050177 0.183988
v 0.002189 -2.050177 0.259733
v -0.180674 -2.050177 0.183988
v -0.256418 -2.050177 0.001125
v -0.180674 -2.050177 -0.181738
vt 0.640591 0.266103
vt 0.636516 0.253816
vt 0.617475 0.256979
vt 0.619472 0.270387
vt 0.597296 0.257088
vt 0.575999 0.254013
vt 0.574122 0.269760
vt 0.554872 0.252467
vt 0.551493 0.265748
vt 0.536646 0.247396
vt 0.530765 0.258475
vt 0.522260 0.235181
vt 0.509105 0.243869
vt 0.680265 0.242130
vt 0.667647 0.235181
vt 0.653820 0.247223
vt 0.597322 0.271459
vt 0.660496 0.257769
vt 0.654464 0.330719
vt 0.624726 0.335707
vt 0.594568 0.336909
vt 0.564463 0.334247
vt 0.535295 0.327941
vt 0.507756 0.318702
vt 0.017423 0.999529
vt 0.026405 0.017678
vt 0.009545 0.010885
vt 0.711882 0.310146
vt 0.683503 0.322073
vt 0.135310 0.999674
vt 0.126291 0.015710
vt 0.108774 0.018962
vt 0.482948 0.505874
vt 0.536654 0.525779
vt 0.533457 0.531354
vt 0.509719 0.479247
vt 0.527442 0.533039
vt 0.547659 0.479347
vt 0.522222 0.529914
vt 0.574632 0.506136
vt 0.521184 0.523801
vt 0.574840 0.543654
vt 0.524412 0.518185
vt 0.548129 0.570153
vt 0.530272 0.516360
vt 0.154993 0.999511
vt 0.145215 0.007193
vt 0.510108 0.570153
vt 0.535416 0.519595
vt 0.483115 0.543505
vt 0.410903 0.757495
vt 0.425557 0.757531
vt 0.421224 0.029904
vt 0.108032 0.010738
vt 0.091740 0.012065
vt 0.091773 0.020298
vt 0.075309 0.012629
vt 0.075013 0.020800
vt 0.059026 0.012802
vt 0.058477 0.020772
vt 0.043254 0.012474
vt 0.042256 0.020029
vt 0.028504 0.010853
vt 0.015460 0.005177
vt 0.123828 0.007579
vt 0.210183 0.668830
vt 0.217530 0.669203
vt 0.236652 0.239123
vt 0.440216 0.757529
vt 0.454890 0.757487
vt 0.445473 0.026651
vt 0.469604 0.757397
vt 0.458988 0.021896
vt 0.366927 0.757171
vt 0.381594 0.757314
vt 0.387137 0.025107
vt 0.396250 0.757422
vt 0.409887 0.029746
vt 0.433002 0.028987
vt 0.482611 0.757273
vt 0.474151 0.012082
vt 0.398695 0.028407
vt 0.431949 0.013903
vt 0.421842 0.015351
vt 0.411876 0.016046
vt 0.402311 0.015850
vt 0.393445 0.014040
vt 0.386704 0.009225
vt 0.373977 0.017167
vt 0.458690 0.000169
vt 0.451104 0.007174
vt 0.441867 0.011404
vt 0.266931 0.241824
vt 0.331641 0.021491
vt 0.303902 0.020200
vt 0.232225 0.669957
vt 0.251745 0.239836
vt 0.244193 0.239333
vt 0.246914 0.670723
vt 0.254380 0.671115
vt 0.274159 0.243235
vt 0.202836 0.668461
vt 0.229122 0.239194
vt 0.224878 0.669578
vt 0.239571 0.670339
vt 0.259313 0.240651
vt 0.195492 0.668094
vt 0.221598 0.239542
vt 0.527180 0.437244
vt 0.515176 0.408976
vt 0.626709 0.378454
vt 0.214056 0.240172
vt 0.183594 0.017497
vt 0.230408 0.017253
vt 0.207065 0.017796
vt 0.278555 0.018372
vt 0.366590 0.017231
vt 0.254189 0.017306
vt 0.305338 0.005438
vt 0.280115 0.004089
vt 0.255264 0.003341
vt 0.230953 0.003720
vt 0.207550 0.004915
vt 0.185392 0.005415
vt 0.164050 0.000169
vt 0.155330 0.012035
vt 0.357307 0.000169
vt 0.331078 0.005648
vt 0.482948 0.599921
vt 0.495139 0.570490
vt 0.482948 0.582681
vt 0.525867 0.380157
vt 0.553598 0.367156
vt 0.584159 0.478909
vt 0.581846 0.378506
vt 0.591507 0.407199
vt 0.482948 0.436889
vt 0.555431 0.448966
vt 0.525032 0.337949
vt 0.483005 0.379261
vt 0.584187 0.337246
vt 0.626709 0.437687
vt 0.524978 0.478209
vt 0.583135 0.436364
vt 0.605094 0.042493
vt 0.600039 0.039770
vt 0.509671 0.186838
vt 0.637715 0.050305
vt 0.632126 0.049950
vt 0.619335 0.218463
vt 0.626566 0.049239
vt 0.621057 0.048154
vt 0.584439 0.209820
vt 0.615628 0.046668
vt 0.610297 0.044790
vt 0.548612 0.199654
vt 0.595453 0.036855
vt 0.482948 0.183018
vt 0.601963 0.213844
vt 0.566648 0.205204
vt 0.530040 0.193297
vt 0.526045 0.204021
vt 0.544639 0.210037
vt 0.563134 0.215460
vt 0.581447 0.219843
vt 0.599179 0.223352
vt 0.615760 0.227081
vt 0.630520 0.234844
vt 0.639110 0.227697
vt 0.506931 0.198716
vt 0.624078 0.036069
vt 0.628825 0.037007
vt 0.632060 0.017357
vt 0.632159 0.005380
vt 0.630708 0.000169
vt 0.630539 0.005410
vt 0.628715 0.016847
vt 0.619401 0.034785
vt 0.629029 0.005078
vt 0.622386 0.014733
vt 0.625494 0.015973
vt 0.614828 0.033131
vt 0.627643 0.004405
vt 0.610380 0.031138
vt 0.626404 0.003390
vt 0.619384 0.013120
vt 0.625353 0.002002
vt 0.616477 0.011120
vt 0.606061 0.028841
vt 0.624561 0.000181
vt 0.601855 0.026297
vt 0.633619 0.037632
vt 0.638443 0.037977
vt 0.639110 0.017292
vt 0.635700 0.003928
vt 0.633882 0.004926
vt 0.635540 0.017504
vt 0.037071 0.999677
vt 0.056713 0.999778
vt 0.076355 0.999830
vt 0.096000 0.999831
vt 0.115650 0.999780
vt 0.482948 0.308693
vt 0.000169 0.999379
vt 0.138089 0.000169
vt 0.512380 0.612112
vt 0.512380 0.570490
vt 0.524571 0.582681
vt 0.524570 0.599921
vt 0.495139 0.612112
vt 0.486394 0.197524
vt 0.613659 0.008722
vn 0.0215 0.9984 -0.0519
vn 0.0519 0.9984 -0.0215
vn 0.0519 0.9984 0.0215
vn 0.0215 0.9984 0.0519
vn -0.0215 0.9984 0.0519
vn -0.0519 0.9984 0.0215
vn -0.0519 0.9984 -0.0215
vn 0.0000 0.0000 -1.0000
vn 0.7071 0.0000 -0.7071
vn 1.0000 0.0000 -0.0000
vn 0.7071 0.0000 0.7071
vn -0.0000 0.0000 1.0000
vn -0.7071 0.0000 0.7071
vn -1.0000 0.0000 -0.0000
vn -0.7071 0.0000 -0.7071
vn 0.0000 1.0000 0.0000
vn 0.6255 -0.4664 0.6255
vn -0.6255 -0.4664 -0.6255
vn -0.4561 -0.7642 -0.4561
vn 0.0000 -0.7642 -0.6450
vn 0.6255 -0.4664 -0.6255
vn 0.8846 -0.4664 0.0000
vn -0.8846 -0.4664 -0.0000
vn -0.0000 -0.4664 0.8846
vn -0.0000 -0.4664 -0.8846
vn -0.6255 -0.4664 0.6255
vn -0.7026 -0.1127 -0.7026
vn -0.9936 -0.1127 0.0000
vn -0.4561 -0.7642 0.4561
vn 0.4561 -0.7642 0.4561
vn -0.0000 -0.7642 0.6450
vn 0.4561 -0.7642 -0.4561
vn -0.6450 -0.7642 0.0000
vn 0.6450 -0.7642 -0.0000
vn -0.7026 -0.1127 0.7026
vn -0.0000 -0.1127 0.9936
vn 0.7026 -0.1127 0.7026
vn 0.9936 -0.1127 0.0000
vn 0.0000 -0.1127 -0.9936
vn 0.7026 -0.1127 -0.7026
vn 0.0103 0.6574 0.7534
vn -0.5443 0.6274 0.5568
vn -0.4561 0.7642 0.4561
vn -0.7913 0.6114 0.0008
vn -0.5474 0.6232 -0.5585
vn -0.4561 0.7642 -0.4561
vn 0.0105 0.6524 -0.7578
vn 0.5245 0.6783 -0.5146
vn 0.4561 0.7642 -0.4561
vn 0.7249 0.6889 0.0006
vn 0.5219 0.6813 0.5134
vn 0.4561 0.7642 0.4561
vn -0.6450 0.7642 0.0000
vn 0.0000 0.7642 -0.6450
vn 0.6450 0.7642 0.0000
vn 0.0000 0.7642 0.6450
vn 0.0000 -1.0000 -0.0000
vn 0.5830 0.5449 -0.6026
vn -0.0194 0.5046 -0.8631
vn -0.0000 0.6838 -0.7296
vn -0.0000 0.9063 -0.4226
vn 0.2988 0.9063 -0.2988
vn 0.5159 0.6838 -0.5159
vn 0.8265 0.5629 -0.0012
vn 0.4226 0.9063 -0.0000
vn 0.5159 0.6838 0.5159
vn 0.7296 0.6838 -0.0000
vn 0.5820 0.5499 0.5991
vn 0.2988 0.9063 0.2988
vn -0.0193 0.5120 0.8588
vn -0.0000 0.9063 0.4226
vn 0.0000 0.6838 0.7296
vn -0.2988 0.9063 0.2988
vn -0.5159 0.6838 0.5159
vn -0.6347 0.4704 0.6132
vn -0.4226 0.9063 -0.0000
vn -0.8927 0.4506 -0.0013
vn -0.6354 0.4650 -0.6164
vn -0.7296 0.6838 -0.0000
vn -0.2988 0.9063 -0.2988
vn -0.5159 0.6838 -0.5159
vn 0.0215 -0.9984 0.0519
usemtl None
s off
f 1/1/1 138/2/1 139/3/1
f 3/4/2 139/3/2 140/5/2
f 140/5/3 141/6/3 7/7/3
f 141/6/4 142/8/4 9/9/4
f 142/8/5 143/10/5 11/11/5
f 143/10/6 144/12/6 13/13/6
f 13/14/7 144/15/7 145/16/7
f 1/1/1 139/3/1 3/4/1
f 3/4/2 140/5/2 5/17/2
f 140/5/3 7/7/3 5/17/3
f 141/6/4 9/9/4 7/7/4
f 142/8/5 11/11/5 9/9/5
f 143/10/6 13/13/6 11/11/6
f 13/14/7 145/16/7 15/18/7
s 1
f 2/19/8 1/1/8 3/4/9
f 4/20/9 3/4/9 5/17/10
f 6/21/10 5/17/10 7/7/11
f 8/22/11 7/7/11 9/9/12
f 10/23/12 9/9/12 11/11/13
f 12/24/13 11/11/13 13/13/14
f 143/25/13 38/26/13 39/27/14
f 14/28/14 13/14/14 15/18/15
f 16/29/15 15/18/15 1/1/8
f 145/30/15 40/31/15 33/32/8
f 18/33/8 138/34/8 139/35/9
f 20/36/9 139/35/9 140/37/10
f 22/38/10 140/37/10 141/39/11
f 24/40/11 141/39/11 142/41/12
f 26/42/12 142/41/12 143/43/13
f 28/44/13 143/43/13 144/45/14
f 144/46/14 39/47/14 40/31/15
f 30/48/14 144/45/14 145/49/15
f 32/50/15 145/49/15 138/34/8
f 23/51/11 21/52/10 51/53/10
f 17/54/16 19/55/16 34/56/16
f 21/57/16 35/58/16 34/56/16
f 23/59/16 36/60/16 35/58/16
f 23/59/16 25/61/16 37/62/16
f 27/63/16 38/26/16 37/62/16
f 29/64/16 39/27/16 38/26/16
f 31/65/16 40/31/16 39/47/16
f 31/65/16 17/54/16 33/32/16
f 45/66/12 44/67/11 60/68/17
f 19/69/9 17/70/8 49/71/8
f 17/70/8 31/72/15 56/73/15
f 29/74/14 27/75/13 54/76/13
f 25/77/12 23/51/11 52/78/11
f 21/52/10 19/69/9 50/79/9
f 31/72/15 29/80/14 55/81/14
f 25/77/12 53/82/12 54/76/13
f 42/83/16 50/79/16 49/71/16
f 43/84/16 51/53/16 50/79/16
f 43/84/16 44/85/16 52/78/16
f 44/85/16 45/86/16 53/82/16
f 45/86/16 46/87/16 54/76/16
f 46/87/16 47/88/16 55/89/16
f 47/90/16 48/91/16 56/73/16
f 48/91/16 41/92/16 49/71/16
f 64/93/18 80/94/19 73/95/20
f 42/96/9 58/97/21 59/98/22
f 48/99/15 47/100/14 63/101/23
f 46/102/13 45/66/12 61/103/24
f 44/67/11 43/104/10 59/98/22
f 42/96/9 41/105/8 57/106/25
f 48/99/15 64/93/18 57/106/25
f 47/107/14 46/102/13 62/108/26
f 72/109/27 71/110/28 87/111/28
f 63/112/23 62/108/26 78/113/29
f 60/68/17 76/114/30 77/115/31
f 59/98/22 58/97/21 74/116/32
f 64/93/18 63/101/23 79/117/33
f 62/108/26 61/103/24 77/115/31
f 59/98/22 75/118/34 76/114/30
f 58/97/21 57/106/25 73/95/20
f 65/119/16 66/120/16 74/116/16
f 66/120/16 67/121/16 75/118/16
f 68/122/16 76/114/16 75/118/16
f 68/122/16 69/123/16 77/115/16
f 69/123/16 70/124/16 78/113/16
f 71/125/16 79/126/16 78/113/16
f 71/127/16 72/128/16 80/94/16
f 72/128/16 65/119/16 73/95/16
f 86/129/16 88/130/16 87/131/16
f 70/132/35 69/133/36 85/134/36
f 68/135/37 67/136/38 83/137/38
f 65/138/39 81/139/39 82/140/40
f 72/109/27 88/141/27 81/139/39
f 70/132/35 86/142/35 87/111/28
f 69/133/36 68/135/37 84/143/37
f 67/136/38 66/144/40 82/140/40
f 89/145/41 96/146/42 112/147/43
f 95/148/44 94/149/45 110/150/46
f 93/151/47 92/152/48 108/153/49
f 91/154/50 90/155/51 106/156/52
f 96/146/42 95/157/44 111/158/53
f 94/149/45 93/151/47 109/159/54
f 92/152/48 91/154/50 107/160/55
f 90/155/51 89/145/41 105/161/56
f 97/162/57 98/163/57 106/156/57
f 98/163/57 99/164/57 107/160/57
f 100/165/57 108/153/57 107/160/57
f 100/165/57 101/166/57 109/159/57
f 102/167/57 110/150/57 109/159/57
f 102/167/57 103/168/57 111/169/57
f 104/170/57 112/147/57 111/158/57
f 104/170/57 97/162/57 105/161/57
f 116/171/58 137/172/59 136/173/60
f 135/174/61 113/175/16 114/176/62
f 93/151/47 137/172/59 116/171/58
f 115/177/63 136/173/60 135/174/61
f 92/152/48 116/171/58 119/178/64
f 115/177/63 114/176/62 117/179/65
f 119/178/64 116/171/58 115/177/63
f 114/176/62 113/175/16 117/179/65
f 121/180/66 118/181/67 117/179/65
f 122/182/68 119/178/64 118/181/67
f 117/179/65 113/175/16 120/183/69
f 90/155/51 91/154/50 119/178/64
f 125/184/70 122/182/68 121/180/66
f 120/183/69 113/175/16 123/185/71
f 89/145/41 90/155/51 122/182/68
f 124/186/72 121/180/66 120/183/69
f 123/185/71 113/175/16 126/187/73
f 96/146/42 89/145/41 125/184/70
f 127/188/74 124/186/72 123/185/71
f 128/189/75 125/184/70 124/186/72
f 95/157/44 96/146/42 128/189/75
f 127/188/74 126/187/73 129/190/76
f 131/191/77 128/189/75 127/188/74
f 126/187/73 113/175/16 129/190/76
f 134/192/78 131/193/77 130/194/79
f 129/195/76 113/175/16 132/196/80
f 95/148/44 131/193/77 134/192/78
f 133/197/81 130/194/79 129/195/76
f 137/172/59 134/192/78 133/197/81
f 132/196/80 113/175/16 135/174/61
f 94/149/45 134/192/78 137/172/59
f 136/173/60 133/197/81 132/196/80
f 142/198/12 37/62/12 38/26/13
f 141/199/11 36/60/11 37/62/12
f 140/200/10 35/58/10 36/60/11
f 139/201/9 34/56/9 35/58/10
f 138/202/8 33/32/8 34/56/9
f 138/2/82 145/16/82 15/18/82
f 2/19/8 3/4/9 4/20/9
f 4/20/9 5/17/10 6/21/10
f 6/21/10 7/7/11 8/22/11
f 8/22/11 9/9/12 10/23/12
f 10/23/12 11/11/13 12/24/13
f 12/24/13 13/13/14 14/203/14
f 143/25/13 39/27/14 144/204/14
f 14/28/14 15/18/15 16/29/15
f 16/29/15 1/1/8 2/19/8
f 145/30/15 33/32/8 138/202/8
f 18/33/8 139/35/9 20/36/9
f 20/36/9 140/37/10 22/38/10
f 22/38/10 141/39/11 24/40/11
f 24/40/11 142/41/12 26/42/12
f 26/42/12 143/43/13 28/44/13
f 28/44/13 144/45/14 30/48/14
f 144/46/14 40/31/15 145/30/15
f 30/48/14 145/49/15 32/50/15
f 32/50/15 138/34/8 18/33/8
f 23/51/11 51/53/10 52/78/11
f 17/54/16 34/56/16 33/32/16
f 21/57/16 34/56/16 19/55/16
f 23/59/16 35/58/16 21/57/16
f 23/59/16 37/62/16 36/60/16
f 27/63/16 37/62/16 25/61/16
f 29/64/16 38/26/16 27/63/16
f 31/65/16 39/47/16 29/205/16
f 31/65/16 33/32/16 40/31/16
f 45/66/12 60/68/17 61/103/24
f 19/69/9 49/71/8 50/79/9
f 17/70/8 56/73/15 49/71/8
f 29/74/14 54/76/13 55/89/14
f 25/77/12 52/78/11 53/82/12
f 21/52/10 50/79/9 51/53/10
f 31/72/15 55/81/14 56/73/15
f 25/77/12 54/76/13 27/75/13
f 42/83/16 49/71/16 41/92/16
f 43/84/16 50/79/16 42/83/16
f 43/84/16 52/78/16 51/53/16
f 44/85/16 53/82/16 52/78/16
f 45/86/16 54/76/16 53/82/16
f 46/87/16 55/89/16 54/76/16
f 47/90/16 56/73/16 55/81/16
f 48/91/16 49/71/16 56/73/16
f 64/93/18 73/95/20 57/106/25
f 42/96/9 59/98/22 43/104/10
f 48/99/15 63/101/23 64/93/18
f 46/102/13 61/103/24 62/108/26
f 44/67/11 59/98/22 60/68/17
f 42/96/9 57/106/25 58/97/21
f 48/99/15 57/106/25 41/105/8
f 47/107/14 62/108/26 63/112/23
f 72/109/27 87/111/28 88/141/27
f 63/112/23 78/113/29 79/126/33
f 60/68/17 77/115/31 61/103/24
f 59/98/22 74/116/32 75/118/34
f 64/93/18 79/117/33 80/94/19
f 62/108/26 77/115/31 78/113/29
f 59/98/22 76/114/30 60/68/17
f 58/97/21 73/95/20 74/116/32
f 65/119/16 74/116/16 73/95/16
f 66/120/16 75/118/16 74/116/16
f 68/122/16 75/118/16 67/121/16
f 68/122/16 77/115/16 76/114/16
f 69/123/16 78/113/16 77/115/16
f 71/125/16 78/113/16 70/124/16
f 71/127/16 80/94/16 79/117/16
f 72/128/16 73/95/16 80/94/16
f 88/130/16 84/206/16 81/207/16
f 81/207/16 84/206/16 82/208/16
f 82/208/16 84/206/16 83/209/16
f 84/206/16 88/130/16 85/210/16
f 85/210/16 88/130/16 86/129/16
f 70/132/35 85/134/36 86/142/35
f 68/135/37 83/137/38 84/143/37
f 65/138/39 82/140/40 66/144/40
f 72/109/27 81/139/39 65/138/39
f 70/132/35 87/111/28 71/110/28
f 69/133/36 84/143/37 85/134/36
f 67/136/38 82/140/40 83/137/38
f 89/145/41 112/147/43 105/161/56
f 95/148/44 110/150/46 111/169/53
f 93/151/47 108/153/49 109/159/54
f 91/154/50 106/156/52 107/160/55
f 96/146/42 111/158/53 112/147/43
f 94/149/45 109/159/54 110/150/46
f 92/152/48 107/160/55 108/153/49
f 90/155/51 105/161/56 106/156/52
f 97/162/57 106/156/57 105/161/57
f 98/163/57 107/160/57 106/156/57
f 100/165/57 107/160/57 99/164/57
f 100/165/57 109/159/57 108/153/57
f 102/167/57 109/159/57 101/166/57
f 102/167/57 111/169/57 110/150/57
f 104/170/57 111/158/57 103/211/57
f 104/170/57 105/161/57 112/147/57
f 116/171/58 136/173/60 115/177/63
f 93/151/47 116/171/58 92/152/48
f 115/177/63 135/174/61 114/176/62
f 92/152/48 119/178/64 91/154/50
f 115/177/63 117/179/65 118/181/67
f 119/178/64 115/177/63 118/181/67
f 121/180/66 117/179/65 120/183/69
f 122/182/68 118/181/67 121/180/66
f 90/155/51 119/178/64 122/182/68
f 125/184/70 121/180/66 124/186/72
f 89/145/41 122/182/68 125/184/70
f 124/186/72 120/183/69 123/185/71
f 96/146/42 125/184/70 128/189/75
f 127/188/74 123/185/71 126/187/73
f 128/189/75 124/186/72 127/188/74
f 95/157/44 128/189/75 131/191/77
f 127/188/74 129/190/76 130/212/79
f 131/191/77 127/188/74 130/212/79
f 134/192/78 130/194/79 133/197/81
f 95/148/44 134/192/78 94/149/45
f 133/197/81 129/195/76 132/196/80
f 137/172/59 133/197/81 136/173/60
f 94/149/45 137/172/59 93/151/47
f 136/173/60 132/196/80 135/174/61
f 142/198/12 38/26/13 143/25/13
f 141/199/11 37/62/12 142/198/12
f 140/200/10 36/60/11 141/199/11
f 139/201/9 35/58/10 140/200/10
f 138/202/8 34/56/9 139/201/9
f 138/2/82 15/18/82 1/1/82
