# Blender v2.79 (sub 0) OBJ File: ''
# www.blender.org
v 0.002190 -2.057433 -0.397151
v 0.002189 -2.050177 -0.257483
v 0.185053 -2.050177 -0.181738
v 0.283813 -2.057433 -0.280499
v 0.260797 -2.050177 0.001125
v 0.185053 -2.050177 0.183988
v 0.283813 -2.057433 0.282748
v 0.002189 -2.050177 0.259733
v 0.002190 -2.057433 0.399401
v -0.180674 -2.050177 0.183988
v -0.279434 -2.057433 0.282748
v -0.256418 -2.050177 0.001125
v -0.396086 -2.057433 0.001125
v -0.180674 -2.050177 -0.181738
v 0.400465 -2.057433 0.001125
v -0.279434 -2.057433 -0.280498
v 0.002190 -2.141963 -0.397151
v 0.283813 -2.141963 -0.280499
v 0.400465 -2.141963 0.001125
v 0.283813 -2.141963 0.282748
v 0.002190 -2.141963 0.399401
v -0.279434 -2.141963 0.282748
v -0.180674 -0.733909 0.183988
v -0.256418 -0.733909 0.001125
v -0.396086 -2.141963 0.001125
v -0.279434 -2.141963 -0.280498
v -0.180674 -0.733909 -0.181738
v 0.002189 -0.733909 -0.257483
v 0.002189 -2.126875 -0.257483
v 0.185053 -2.126875 -0.181738
v 0.260797 -2.126875 0.001125
v 0.185053 -2.126875 0.183988
v 0.002189 -2.126875 0.259733
v -0.180674 -2.126875 0.183988
v -0.256418 -2.126875 0.001125
v -0.180674 -2.126875 -0.181738
v 0.128979 -0.733909 0.127914
v 0.181496 -0.733909 0.001125
v 0.181497 0.326671 0.001125
v 0.002189 -0.733909 -0.178182
v 0.128979 -0.733909 -0.125664
v 0.185053 -0.733909 -0.181738
v 0.260797 -0.733909 0.001125
v 0.185053 -0.733909 0.183988
v 0.002189 -0.733909 0.180432
v 0.002189 -0.733909 0.259733
v -0.124600 -0.733909 0.127914
v -0.177118 -0.733909 0.001125
v -0.124600 -0.733909 -0.125664
v 0.002190 0.326671 0.076275
v 0.055329 0.326671 0.054264
v 0.055327 1.577085 0.054264
v 0.002190 0.326671 -0.178182
v -0.124600 0.326671 -0.125664
v -0.124600 0.326671 0.127914
v 0.128979 0.326671 0.127914
v 0.128979 0.326671 -0.125664
v -0.177117 0.326671 0.001125
v 0.002190 0.326671 0.180432
v 0.055329 0.326671 -0.052014
v 0.077339 0.326671 0.001125
v -0.050949 0.326671 0.054264
v -0.072960 0.326671 0.001125
v -0.050949 0.326671 -0.052014
v 0.002190 0.326671 -0.074025
v -0.050951 1.577085 -0.052014
v -0.227578 1.787897 -0.228641
v 0.002188 1.787897 -0.323814
v 0.055327 1.577085 -0.052014
v 0.077338 1.577085 0.001125
v -0.072962 1.577085 0.001125
v 0.002188 1.577085 0.076275
v 0.002188 1.577085 -0.074025
v -0.050951 1.577085 0.054264
v -0.149690 1.787897 -0.150753
v -0.212600 1.787897 0.001125
v -0.261745 2.221009 0.001125
v -0.227578 1.787897 0.230891
v 0.231954 1.787897 0.230891
v 0.002188 1.787897 0.326064
v 0.231954 1.787897 -0.228641
v -0.322751 1.787897 0.001125
v 0.327127 1.787897 0.001125
v 0.002188 1.787897 -0.213663
v 0.154066 1.787897 -0.150753
v 0.216976 1.787897 0.001125
v 0.154066 1.787897 0.153003
v 0.002188 1.787897 0.215913
v -0.149690 1.787897 0.153003
v -0.184440 2.221009 0.187754
v -0.184441 2.221009 -0.185504
v 0.002188 2.221009 0.265058
v 0.266121 2.221009 0.001125
v 0.002188 2.221009 -0.262808
v 0.188817 2.221009 -0.185504
v 0.188817 2.221009 0.187754
v 0.002188 2.406702 0.076273
v -0.050951 2.406702 0.054263
v -0.227578 2.195889 0.230890
v -0.072962 2.406702 0.001124
v -0.050951 2.406702 -0.052015
v -0.227578 2.195889 -0.228643
v 0.002188 2.406702 -0.074026
v 0.055327 2.406702 -0.052015
v 0.231954 2.195889 -0.228643
v 0.077338 2.406702 0.001124
v 0.055327 2.406702 0.054263
v 0.231954 2.195889 0.230890
v -0.322751 2.195889 0.001124
v 0.002188 2.195889 -0.323815
v 0.327127 2.195889 0.001124
v 0.002188 2.195889 0.326062
v 0.002188 2.195889 0.215912
v 0.154066 2.195889 0.153002
v 0.216976 2.195889 0.001124
v 0.154066 2.195889 -0.150755
v 0.002188 2.195889 -0.213664
v -0.149690 2.195889 -0.150755
v -0.212600 2.195889 0.001124
v -0.149690 2.195889 0.153002
v 0.047995 2.420455 -0.046907
v 0.000101 2.420455 -0.066745
v 0.000101 2.444240 -0.050853
v 0.000101 2.460133 -0.027068
v 0.000101 2.465713 0.000987
v 0.019939 2.460133 -0.018851
v 0.036757 2.444240 -0.035669
v 0.067834 2.420455 0.000987
v 0.028157 2.460133 0.000987
v 0.036757 2.444240 0.037644
v 0.051941 2.444240 0.000987
v 0.047995 2.420455 0.048882
v 0.019939 2.460133 0.020826
v 0.000101 2.420455 0.068720
v 0.000101 2.460133 0.029043
v 0.000101 2.444240 0.052828
v -0.019738 2.460133 0.020826
v -0.036556 2.444240 0.037644
v -0.047794 2.420455 0.048882
v -0.027955 2.460133 0.000987
v -0.067632 2.420455 0.000987
v -0.047794 2.420455 -0.046907
v -0.051740 2.444240 0.000987
v -0.019738 2.460133 -0.018851
v -0.036556 2.444240 -0.035669
vt 0.551493 0.265748
vt 0.575999 0.254013
vt 0.554872 0.252467
vt 0.530765 0.258475
vt 0.536646 0.247396
vt 0.509105 0.243869
vt 0.522260 0.235181
vt 0.653820 0.247223
vt 0.680265 0.242130
vt 0.667647 0.235181
vt 0.597322 0.271459
vt 0.617475 0.256979
vt 0.597296 0.257088
vt 0.574122 0.269760
vt 0.640591 0.266103
vt 0.636516 0.253816
vt 0.660496 0.257769
vt 0.619472 0.270387
vt 0.482948 0.308693
vt 0.548129 0.570153
vt 0.521184 0.523801
vt 0.524412 0.518185
vt 0.000169 0.999379
vt 0.026405 0.017678
vt 0.009545 0.010885
vt 0.624726 0.335707
vt 0.654464 0.330719
vt 0.574632 0.506136
vt 0.527442 0.533039
vt 0.522222 0.529914
vt 0.683503 0.322073
vt 0.266931 0.241824
vt 0.254380 0.671115
vt 0.274159 0.243235
vt 0.510108 0.570153
vt 0.530272 0.516360
vt 0.509719 0.479247
vt 0.536654 0.525779
vt 0.533457 0.531354
vt 0.482948 0.505874
vt 0.535416 0.519595
vt 0.076355 0.999830
vt 0.091773 0.020298
vt 0.075013 0.020800
vt 0.507756 0.318702
vt 0.096000 0.999831
vt 0.108774 0.018962
vt 0.483115 0.543505
vt 0.056713 0.999778
vt 0.058477 0.020772
vt 0.574840 0.543654
vt 0.115650 0.999780
vt 0.126291 0.015710
vt 0.017423 0.999529
vt 0.042256 0.020029
vt 0.421224 0.029904
vt 0.440216 0.757529
vt 0.433002 0.028987
vt 0.091740 0.012065
vt 0.411876 0.016046
vt 0.409887 0.029746
vt 0.331641 0.021491
vt 0.305338 0.005438
vt 0.303902 0.020200
vt 0.230408 0.017253
vt 0.207550 0.004915
vt 0.207065 0.017796
vt 0.183594 0.017497
vt 0.164050 0.000169
vt 0.155330 0.012035
vt 0.601963 0.213844
vt 0.615760 0.227081
vt 0.619335 0.218463
vt 0.402311 0.015850
vt 0.398695 0.028407
vt 0.251745 0.239836
vt 0.239571 0.670339
vt 0.259313 0.240651
vt 0.425557 0.757531
vt 0.445473 0.026651
vt 0.454890 0.757487
vt 0.458988 0.021896
vt 0.482611 0.757273
vt 0.474151 0.012082
vt 0.469604 0.757397
vt 0.387137 0.025107
vt 0.366927 0.757171
vt 0.381594 0.757314
vt 0.244193 0.239333
vt 0.232225 0.669957
vt 0.410903 0.757495
vt 0.486394 0.197524
vt 0.509671 0.186838
vt 0.482948 0.183018
vt 0.630520 0.234844
vt 0.639110 0.227697
vt 0.431949 0.013903
vt 0.441867 0.011404
vt 0.458690 0.000169
vt 0.451104 0.007174
vt 0.526045 0.204021
vt 0.530040 0.193297
vt 0.393445 0.014040
vt 0.229122 0.239194
vt 0.217530 0.669203
vt 0.224878 0.669578
vt 0.214056 0.240172
vt 0.202836 0.668461
vt 0.221598 0.239542
vt 0.495139 0.612112
vt 0.512380 0.570490
vt 0.495139 0.570490
vt 0.962646 0.929874
vt 0.889535 0.859343
vt 0.920097 0.971096
vt 0.246914 0.670723
vt 0.210183 0.668830
vt 0.236652 0.239123
vt 0.962646 0.870641
vt 0.861804 0.872344
vt 0.366590 0.017231
vt 0.254189 0.017306
vt 0.600039 0.039770
vt 0.632126 0.049950
vt 0.185392 0.005415
vt 0.138089 0.000169
vt 0.145215 0.007193
vt 0.043254 0.012474
vt 0.548612 0.199654
vt 0.563134 0.215460
vt 0.566648 0.205204
vt 0.278555 0.018372
vt 0.255264 0.003341
vt 0.581447 0.219843
vt 0.599179 0.223352
vt 0.357307 0.000169
vt 0.331078 0.005648
vt 0.482948 0.599921
vt 0.482948 0.582681
vt 0.860915 0.970396
vt 0.927444 0.899386
vt 0.818885 0.929076
vt 0.860969 0.830136
vt 0.863117 0.929431
vt 0.920124 0.829433
vt 0.919073 0.928551
vt 0.818942 0.871448
vt 0.619401 0.034785
vt 0.610297 0.044790
vt 0.615628 0.046668
vt 0.851113 0.901163
vt 0.917783 0.870693
vt 0.605094 0.042493
vt 0.621057 0.048154
vt 0.595453 0.036855
vt 0.584439 0.209820
vt 0.626566 0.049239
vt 0.629029 0.005078
vt 0.622386 0.014733
vt 0.625494 0.015973
vt 0.108032 0.010738
vt 0.280115 0.004089
vt 0.028504 0.010853
vt 0.059026 0.012802
vt 0.544639 0.210037
vt 0.632159 0.005380
vt 0.630708 0.000169
vt 0.630539 0.005410
vt 0.610380 0.031138
vt 0.626404 0.003390
vt 0.627643 0.004405
vt 0.614828 0.033131
vt 0.635700 0.003928
vt 0.635540 0.017504
vt 0.639110 0.017292
vt 0.628825 0.037007
vt 0.633619 0.037632
vt 0.628715 0.016847
vt 0.624078 0.036069
vt 0.632060 0.017357
vt 0.613659 0.008722
vt 0.625353 0.002002
vt 0.624561 0.000181
vt 0.616477 0.011120
vt 0.601855 0.026297
vt 0.606061 0.028841
vt 0.637715 0.050305
vt 0.638443 0.037977
vt 0.633882 0.004926
vt 0.619384 0.013120
vt 0.547659 0.479347
vt 0.135310 0.999674
vt 0.564463 0.334247
vt 0.535295 0.327941
vt 0.594568 0.336909
vt 0.386704 0.009225
vt 0.373977 0.017167
vt 0.396250 0.757422
vt 0.512380 0.612112
vt 0.524571 0.582681
vt 0.524570 0.599921
vt 0.037071 0.999677
vt 0.711882 0.310146
vt 0.075309 0.012629
vt 0.421842 0.015351
vt 0.230953 0.003720
vt 0.506931 0.198716
vt 0.195492 0.668094
vt 0.123828 0.007579
vt 0.891369 0.941153
vt 0.015460 0.005177
vt 0.154993 0.999511
vn 0.0215 0.9984 0.0519
vn -0.0215 0.9984 0.0519
vn -0.0519 0.9984 0.0215
vn -0.0519 0.9984 -0.0215
vn 0.0519 0.9984 -0.0215
vn 0.0519 0.9984 0.0215
vn 0.0215 0.9984 -0.0519
vn 0.0215 -0.9984 0.0519
vn -1.0000 -0.0000 0.0000
vn -0.7071 -0.0000 0.7071
vn -0.0000 -0.0000 1.0000
vn 0.7071 0.0000 -0.7071
vn -0.0000 0.0000 -1.0000
vn -0.7071 0.0000 -0.7071
vn 0.7071 -0.0000 0.7071
vn 1.0000 0.0000 0.0000
vn -0.6255 -0.4664 -0.6255
vn -0.8846 -0.4664 -0.0000
vn 0.0000 1.0000 -0.0000
vn 0.0000 -1.0000 0.0000
vn 0.6255 -0.4664 -0.6255
vn -0.0000 -0.4664 -0.8846
vn 0.8846 -0.4664 -0.0000
vn -0.4561 -0.7642 0.4561
vn -0.0000 -0.4664 0.8846
vn 0.0000 -0.7642 0.6450
vn -0.6255 -0.4664 0.6255
vn -0.7026 -0.1127 0.7026
vn -0.0000 -0.1127 0.9936
vn 0.6255 -0.4664 0.6255
vn -0.9936 -0.1127 0.0000
vn -0.4561 -0.7642 -0.4561
vn -0.6450 -0.7642 0.0000
vn 0.4561 -0.7642 0.4561
vn 0.6450 -0.7642 0.0000
vn 0.0000 0.7642 0.6450
vn -0.5443 0.6274 0.5568
vn -0.4561 0.7642 0.4561
vn -0.6450 0.7642 0.0000
vn -0.5474 0.6232 -0.5585
vn -0.4561 0.7642 -0.4561
vn 0.0000 -0.7642 -0.6450
vn 0.7026 -0.1127 0.7026
vn 0.9936 -0.1127 -0.0000
vn -0.0000 -0.1127 -0.9936
vn -0.7026 -0.1127 -0.7026
vn 0.7026 -0.1127 -0.7026
vn 0.8265 0.5629 -0.0012
vn 0.5218 0.6813 0.5134
vn 0.7249 0.6889 0.0006
vn 0.0103 0.6574 0.7534
vn 0.6450 0.7642 0.0000
vn 0.5245 0.6783 -0.5146
vn 0.4561 0.7642 0.4561
vn -0.7913 0.6114 0.0008
vn 0.4561 -0.7642 -0.4561
vn 0.4561 0.7642 -0.4561
vn 0.0105 0.6524 -0.7578
vn 0.4226 0.9063 -0.0000
vn 0.5159 0.6838 0.5159
vn 0.7296 0.6838 -0.0000
vn 0.0000 0.7642 -0.6450
vn 0.0000 0.9063 -0.4226
vn 0.2988 0.9063 -0.2988
vn -0.0193 0.5120 0.8588
vn 0.0000 0.9063 0.4226
vn 0.2988 0.9063 0.2988
vn 0.5820 0.5499 0.5991
vn -0.4226 0.9063 -0.0000
vn -0.5159 0.6838 -0.5159
vn -0.7296 0.6838 -0.0000
vn -0.0194 0.5047 -0.8631
vn -0.6354 0.4650 -0.6165
vn 0.5159 0.6838 -0.5159
vn 0.5830 0.5449 -0.6026
vn 0.0000 0.6838 -0.7296
vn -0.2988 0.9063 0.2988
vn -0.5159 0.6838 0.5159
vn -0.8927 0.4506 -0.0014
vn -0.6347 0.4704 0.6132
vn -0.2988 0.9063 -0.2988
vn 0.0000 0.6838 0.7296
f 9/1/1 6/2/1 8/3/1
f 11/4/2 8/3/2 10/5/2
f 13/6/3 10/5/3 12/7/3
f 14/8/4 13/9/4 12/10/4
f 15/11/5 3/12/5 5/13/5
f 15/11/6 6/2/6 7/14/6
f 3/12/7 1/15/7 2/16/7
f 9/1/1 7/14/1 6/2/1
f 11/4/2 9/1/2 8/3/2
f 13/6/3 11/4/3 10/5/3
f 14/8/4 16/17/4 13/9/4
f 15/11/5 4/18/5 3/12/5
f 15/11/6 5/13/6 6/2/6
f 3/12/7 4/18/7 1/15/7
s 1
f 16/17/8 2/16/8 14/8/8
f 25/19/9 11/4/10 13/6/9
f 34/20/10 8/21/11 10/22/10
f 12/23/9 23/24/10 24/25/9
f 18/26/12 1/15/13 4/18/12
f 17/27/13 16/17/14 1/15/13
f 32/28/15 5/29/16 6/30/15
f 26/31/14 13/9/9 16/17/14
f 66/32/17 63/33/9 71/34/18
f 35/35/9 10/22/10 12/36/9
f 30/37/12 2/38/13 3/39/12
f 29/40/13 14/41/14 2/38/13
f 5/42/16 42/43/12 43/44/16
f 22/45/10 9/1/11 11/4/10
f 3/46/12 28/47/13 42/43/12
f 36/48/14 12/36/9 14/41/14
f 6/49/15 43/44/16 44/50/15
f 33/51/11 6/30/15 8/21/11
f 2/52/13 27/53/14 28/47/13
f 10/54/10 46/55/11 23/24/10
f 39/56/16 41/57/12 57/58/12
f 41/59/19 43/44/19 42/43/19
f 39/56/19 51/60/19 56/61/19
f 67/62/19 84/63/19 68/64/19
f 79/65/19 88/66/19 80/67/19
f 78/68/19 76/69/19 82/70/19
f 110/71/20 118/72/20 102/73/20
f 56/61/19 50/74/19 59/75/19
f 28/47/19 41/59/19 42/43/19
f 69/76/21 65/77/13 73/78/22
f 56/61/15 38/79/16 39/56/16
f 53/80/13 41/57/12 40/81/13
f 54/82/14 48/83/9 58/84/9
f 54/82/14 40/81/13 49/85/14
f 55/86/10 48/87/9 47/88/10
f 70/89/23 60/90/12 69/76/21
f 59/75/11 37/91/15 56/61/15
f 119/92/20 99/93/20 109/94/20
f 102/73/20 119/95/20 109/96/20
f 60/97/19 39/56/19 57/58/19
f 65/98/19 57/58/19 53/80/19
f 54/82/19 63/99/19 64/100/19
f 99/93/20 113/101/20 112/102/20
f 59/75/19 62/103/19 55/86/19
f 78/68/24 72/104/25 80/67/26
f 70/89/23 51/105/15 61/106/16
f 71/107/18 62/108/10 74/109/27
f 92/110/19 94/111/19 91/112/19
f 90/113/28 88/114/29 92/115/29
f 73/78/22 64/116/14 66/32/17
f 72/104/25 62/108/10 50/117/11
f 52/118/30 50/117/11 51/105/15
f 77/119/31 89/120/28 90/113/28
f 67/62/32 71/34/18 82/121/33
f 79/65/34 70/89/23 83/122/35
f 112/102/36 98/123/37 99/93/38
f 109/96/39 101/124/40 102/73/41
f 78/68/24 71/107/18 74/109/27
f 73/78/22 67/62/32 68/64/42
f 72/104/25 79/65/34 80/67/26
f 78/68/19 88/66/19 89/125/19
f 48/126/19 27/53/19 24/127/19
f 45/128/19 23/24/19 46/55/19
f 108/129/20 115/130/20 111/131/20
f 81/132/19 86/133/19 83/122/19
f 110/71/20 116/134/20 117/135/20
f 44/50/19 45/128/19 46/55/19
f 67/62/19 76/136/19 75/137/19
f 90/138/19 91/112/19 77/139/19
f 96/140/43 86/141/44 93/142/44
f 94/143/45 75/144/46 91/145/46
f 93/142/44 85/146/47 95/147/47
f 85/146/47 94/143/45 95/147/47
f 128/148/48 107/149/49 106/150/50
f 77/119/31 75/144/46 76/151/31
f 96/140/43 88/114/29 87/152/43
f 112/102/36 107/149/49 97/153/51
f 111/131/52 104/154/53 106/150/50
f 108/129/54 106/150/50 107/149/49
f 99/93/38 100/155/55 109/94/39
f 81/132/56 73/78/22 68/64/42
f 105/156/57 103/157/58 104/154/53
f 81/132/56 70/89/23 69/76/21
f 129/158/59 130/159/60 131/160/61
f 27/53/19 40/161/19 28/47/19
f 81/132/19 84/63/19 85/162/19
f 47/163/19 24/25/19 23/24/19
f 43/44/19 37/164/19 44/50/19
f 86/133/19 79/65/19 83/122/19
f 111/131/20 116/134/20 105/156/20
f 53/80/19 64/100/19 65/98/19
f 112/102/20 114/165/20 108/129/20
f 102/73/41 103/157/58 110/71/62
f 124/166/63 125/167/19 126/168/64
f 134/169/65 98/123/37 97/153/51
f 135/170/66 130/159/60 133/171/67
f 132/172/68 97/153/51 107/149/49
f 140/173/69 145/174/70 143/175/71
f 145/174/70 122/176/72 142/177/73
f 126/168/64 125/167/19 129/158/59
f 129/158/59 127/178/74 126/168/64
f 131/160/61 121/179/75 127/178/74
f 129/158/59 125/167/19 133/171/67
f 128/148/48 104/154/53 121/179/75
f 127/178/74 122/176/72 123/180/76
f 133/171/67 125/167/19 135/170/66
f 121/179/75 103/157/58 122/176/72
f 143/181/71 137/182/77 140/183/69
f 135/170/66 125/167/19 137/182/77
f 122/176/72 101/124/40 142/177/73
f 138/184/78 141/185/79 139/186/80
f 142/177/73 100/187/55 141/188/79
f 144/189/81 123/180/76 145/174/70
f 145/174/70 141/188/79 143/175/71
f 137/182/77 125/167/19 140/183/69
f 130/159/60 134/169/65 132/172/68
f 140/173/69 125/167/19 144/189/81
f 131/160/61 132/172/68 128/148/48
f 124/166/63 127/178/74 123/180/76
f 138/184/78 134/169/65 136/190/82
f 144/189/81 125/167/19 124/166/63
f 139/186/80 100/155/55 98/123/37
f 137/182/77 136/190/82 135/170/66
f 31/191/16 3/39/12 5/29/16
f 14/192/14 24/127/9 27/53/14
f 20/193/15 15/11/16 7/14/15
f 21/194/11 7/14/15 9/1/11
f 19/195/16 4/18/12 15/11/16
f 55/86/19 63/196/19 58/197/19
f 55/86/10 45/198/11 59/75/11
f 94/111/19 96/199/19 95/200/19
f 95/200/19 96/199/19 93/201/19
f 92/110/19 91/112/19 90/138/19
f 8/202/11 44/50/15 46/55/11
f 16/17/8 1/15/8 2/16/8
f 25/19/9 22/45/10 11/4/10
f 34/20/10 33/51/11 8/21/11
f 12/23/9 10/54/10 23/24/10
f 18/26/12 17/27/13 1/15/13
f 17/27/13 26/31/14 16/17/14
f 32/28/15 31/191/16 5/29/16
f 26/31/14 25/203/9 13/9/9
f 66/32/17 64/116/14 63/33/9
f 35/35/9 34/20/10 10/22/10
f 30/37/12 29/40/13 2/38/13
f 29/40/13 36/48/14 14/41/14
f 5/42/16 3/46/12 42/43/12
f 22/45/10 21/194/11 9/1/11
f 3/46/12 2/52/13 28/47/13
f 36/48/14 35/35/9 12/36/9
f 6/49/15 5/42/16 43/44/16
f 33/51/11 32/28/15 6/30/15
f 2/52/13 14/192/14 27/53/14
f 10/54/10 8/202/11 46/55/11
f 39/56/16 38/79/16 41/57/12
f 41/59/19 38/204/19 43/44/19
f 39/56/19 61/205/19 51/60/19
f 67/62/19 75/137/19 84/63/19
f 79/65/19 87/206/19 88/66/19
f 78/68/19 89/125/19 76/69/19
f 110/71/20 117/135/20 118/72/20
f 56/61/19 51/60/19 50/74/19
f 28/47/19 40/161/19 41/59/19
f 69/76/21 60/90/12 65/77/13
f 56/61/15 37/91/15 38/79/16
f 53/80/13 57/58/12 41/57/12
f 54/82/14 49/85/14 48/83/9
f 54/82/14 53/80/13 40/81/13
f 55/86/10 58/197/9 48/87/9
f 70/89/23 61/106/16 60/90/12
f 59/75/11 45/198/11 37/91/15
f 119/92/20 120/207/20 99/93/20
f 102/73/20 118/72/20 119/95/20
f 60/97/19 61/205/19 39/56/19
f 65/98/19 60/97/19 57/58/19
f 54/82/19 58/84/19 63/99/19
f 99/93/20 120/207/20 113/101/20
f 59/75/19 50/74/19 62/103/19
f 78/68/24 74/109/27 72/104/25
f 70/89/23 52/118/30 51/105/15
f 71/107/18 63/208/9 62/108/10
f 92/110/19 96/199/19 94/111/19
f 90/113/28 89/120/28 88/114/29
f 73/78/22 65/77/13 64/116/14
f 72/104/25 74/109/27 62/108/10
f 52/118/30 72/104/25 50/117/11
f 77/119/31 76/151/31 89/120/28
f 67/62/32 66/32/17 71/34/18
f 79/65/34 52/118/30 70/89/23
f 112/102/36 97/153/51 98/123/37
f 109/96/39 100/187/55 101/124/40
f 78/68/24 82/70/33 71/107/18
f 73/78/22 66/32/17 67/62/32
f 72/104/25 52/118/30 79/65/34
f 78/68/19 80/67/19 88/66/19
f 48/126/19 49/209/19 27/53/19
f 45/128/19 47/163/19 23/24/19
f 108/129/20 114/165/20 115/130/20
f 81/132/19 85/162/19 86/133/19
f 110/71/20 105/156/20 116/134/20
f 44/50/19 37/164/19 45/128/19
f 67/62/19 82/121/19 76/136/19
f 96/140/43 87/152/43 86/141/44
f 94/143/45 84/210/45 75/144/46
f 93/142/44 86/141/44 85/146/47
f 85/146/47 84/210/45 94/143/45
f 128/148/48 132/172/68 107/149/49
f 77/119/31 91/145/46 75/144/46
f 96/140/43 92/115/29 88/114/29
f 112/102/36 108/129/54 107/149/49
f 111/131/52 105/156/57 104/154/53
f 108/129/54 111/131/52 106/150/50
f 99/93/38 98/123/37 100/155/55
f 81/132/56 69/76/21 73/78/22
f 105/156/57 110/71/62 103/157/58
f 81/132/56 83/122/35 70/89/23
f 129/158/59 133/171/67 130/159/60
f 27/53/19 49/209/19 40/161/19
f 81/132/19 68/64/19 84/63/19
f 47/163/19 48/211/19 24/25/19
f 43/44/19 38/204/19 37/164/19
f 86/133/19 87/206/19 79/65/19
f 111/131/20 115/130/20 116/134/20
f 53/80/19 54/82/19 64/100/19
f 112/102/20 113/101/20 114/165/20
f 102/73/41 101/124/40 103/157/58
f 134/169/65 139/186/80 98/123/37
f 135/170/66 136/190/82 130/159/60
f 132/172/68 134/169/65 97/153/51
f 140/173/69 144/189/81 145/174/70
f 145/174/70 123/180/76 122/176/72
f 129/158/59 131/160/61 127/178/74
f 131/160/61 128/148/48 121/179/75
f 128/148/48 106/150/50 104/154/53
f 127/178/74 121/179/75 122/176/72
f 121/179/75 104/154/53 103/157/58
f 143/181/71 138/184/78 137/182/77
f 122/176/72 103/157/58 101/124/40
f 138/184/78 143/181/71 141/185/79
f 142/177/73 101/124/40 100/187/55
f 144/189/81 124/166/63 123/180/76
f 145/174/70 142/177/73 141/188/79
f 130/159/60 136/190/82 134/169/65
f 131/160/61 130/159/60 132/172/68
f 124/166/63 126/168/64 127/178/74
f 138/184/78 139/186/80 134/169/65
f 139/186/80 141/185/79 100/155/55
f 137/182/77 138/184/78 136/190/82
f 31/191/16 30/37/12 3/39/12
f 14/192/14 12/212/9 24/127/9
f 20/193/15 19/195/16 15/11/16
f 21/194/11 20/193/15 7/14/15
f 19/195/16 18/26/12 4/18/12
f 55/86/19 62/103/19 63/196/19
f 55/86/10 47/88/10 45/198/11
f 8/202/11 6/49/15 44/50/15
