# Blender v2.79 (sub 0) OBJ File: 'Road.blend'
# www.blender.org
v -0.970748 -0.039763 2.263392
v -0.970748 0.013636 2.263392
v -0.970748 -0.039763 0.387674
v 1.029252 -0.039763 2.263392
v 1.029252 0.013636 2.263392
v 1.029252 -0.039763 0.387674
v 1.029252 0.013636 0.387674
v -0.849654 -0.039763 0.387674
v -0.849654 0.013636 0.387674
v -0.849654 -0.039763 2.263392
v -0.849654 0.013636 2.263392
v -0.970748 0.079895 2.263392
v -0.970748 0.079895 0.387674
v -0.849654 0.079895 2.263392
v -0.849654 0.079895 0.387674
v -1.844846 -0.039763 0.387674
v -1.844846 -0.039763 2.263392
v -1.844846 0.013636 2.263392
v -1.844846 0.013636 0.387674
v -1.844846 0.079895 2.263392
v -1.844846 0.079895 0.387674
v 1.029252 0.013636 0.387674
v 1.029252 -0.039763 0.387674
v 1.029252 -0.039763 2.263392
v 1.029252 0.013636 2.263392
v 1.996689 0.013636 0.387674
v 1.996689 -0.039763 0.387674
v 1.996689 -0.039763 2.263392
v 1.996689 0.013636 2.263392
v -0.970748 0.013636 -2.632604
v -0.970748 -0.039763 -2.632604
v -0.849654 -0.039763 -2.632604
v -0.849654 0.013636 -2.632604
v 1.029252 0.013636 -2.632604
v 1.029252 -0.039763 -2.632604
v -0.970748 0.079895 -2.632604
v -0.849654 0.079895 -2.632604
v -1.844846 0.013636 -2.632604
v -1.844846 -0.039763 -2.632604
v -1.844846 0.079895 -2.632604
v 1.029252 0.013636 -2.632604
v 1.029252 -0.039763 -2.632604
v 1.996689 0.013636 -2.632604
v 1.996689 -0.039763 -2.632604
v 0.232152 0.013636 0.387674
v 0.232152 -0.039763 2.263392
v 0.232152 -0.039763 0.387674
v 0.232152 0.013636 2.263392
v 0.232152 0.013636 -2.632604
v 0.232152 -0.039763 -2.632604
v 0.424480 0.013636 0.387674
v 0.424480 -0.039763 2.263392
v 0.424480 0.013636 -2.632604
v 0.424480 -0.039763 0.387674
v 0.424480 0.013636 2.263392
v 0.424480 -0.039763 -2.632604
v 0.624257 0.013636 0.387674
v 0.624257 -0.039763 2.263392
v 0.624257 0.013636 -2.632604
v 0.624257 -0.039763 0.387674
v 0.624257 0.013636 2.263392
v 0.624257 -0.039763 -2.632604
vt 0.506188 0.000000
vt 0.574451 0.146400
vt 0.506188 0.146400
vt 0.455872 0.617867
vt 0.612064 0.382133
vt 0.612064 0.617867
vt 0.000000 0.000000
vt 0.000000 0.000000
vt 0.000000 0.000000
vt 0.146735 0.563788
vt 0.156192 0.710189
vt 0.146735 0.710189
vt 0.349996 0.146400
vt 0.381624 0.000000
vt 0.381624 0.146400
vt 0.156192 0.382133
vt 0.224455 0.563788
vt 0.156192 0.563788
vt 0.768255 0.528533
vt 0.852740 0.382133
vt 0.852740 0.528533
vt 0.496731 0.146400
vt 0.062250 0.563788
vt 0.062250 0.710189
vt 0.687617 0.764267
vt 0.612064 1.000000
vt 0.612064 0.764267
vt 0.924447 0.617867
vt 0.914990 0.764267
vt 0.914990 0.617867
vt 0.193804 0.235733
vt 0.349996 0.000000
vt 0.349996 0.235733
vt 0.768255 0.146400
vt 0.574451 0.000000
vt 0.768255 0.000000
vt 0.193804 0.382133
vt 0.349996 0.382133
vt 0.000000 0.235733
vt 0.992710 0.764267
vt 0.924447 0.764267
vt 1.000000 0.146400
vt 0.924447 0.382133
vt 0.924447 0.146400
vt 0.992710 0.382133
vt 0.992710 0.617867
vt 0.224455 0.710189
vt 0.924447 0.000000
vt 0.000000 0.000000
vt 0.000000 0.000000
vt 0.000000 0.000000
vt 0.000000 0.000000
vt 0.000000 0.000000
vt 0.768256 0.146400
vt 0.924447 0.000000
vt 0.924447 0.146400
vt 0.506188 0.382133
vt 0.612064 0.764267
vt 0.536511 0.617867
vt 0.612064 0.617867
vt 0.612064 0.617867
vt 0.687617 0.617867
vt 0.417281 0.563788
vt 0.448910 0.710189
vt 0.417281 0.710189
vt 0.292718 0.563788
vt 0.302175 0.710188
vt 0.292718 0.710188
vt 0.302175 0.382133
vt 0.302175 0.563788
vt 0.224455 0.382133
vt 0.292718 0.382133
vt 0.224455 0.563788
vt 0.460958 0.617867
vt 0.536511 0.764267
vt 0.460958 0.764267
vt 0.768256 0.382133
vt 0.574451 0.382133
vt 0.574451 0.146400
vt 0.496731 0.382133
vt 0.193804 0.000000
vt 0.412246 0.382133
vt 0.412246 0.146400
vt 0.914990 0.528533
vt 0.883362 0.764267
vt 0.883362 0.528534
vt 0.612064 0.617867
vt 0.768255 0.382133
vt 0.768255 0.617867
vt 0.924447 0.382133
vt 0.768255 0.764267
vt 0.397226 0.382133
vt 0.397226 0.146400
vt 0.386660 0.710189
vt 0.047230 0.563788
vt 0.047230 0.710189
vt 0.867760 0.382133
vt 0.867760 0.528534
vt 0.496731 0.000000
vt 0.883362 0.382133
vt 0.031628 0.563788
vt 0.031628 0.710189
vt 0.381624 0.382133
vt 0.852740 0.764267
vt 0.386660 0.563788
vt 0.401680 0.710189
vt 0.412246 0.000000
vt 0.349996 0.382133
vt 0.000000 0.563788
vt 0.000000 0.710189
vt 0.914990 0.382133
vt 0.867760 0.764267
vt 0.401680 0.563788
vt 0.397226 0.000000
vt 0.574451 0.000000
vt 0.455872 0.382133
vt 0.349996 0.000000
vt 0.224455 0.382133
vt 0.768256 0.382133
vt 0.687617 1.000000
vt 0.146735 0.382133
vt 0.000000 0.382133
vt 1.000000 0.382133
vt 1.000000 0.000000
vt 0.768255 0.000000
vt 0.574451 0.382133
vt 0.536511 0.764267
vt 0.448910 0.563788
vt 0.224455 0.710188
vt 0.536511 0.617867
vt 0.924447 0.382133
vt 0.768256 0.382133
vt 0.000000 0.000000
vt 0.914990 0.764267
vt 0.612064 0.382133
vt 0.914990 0.382133
vn 0.0000 -1.0000 0.0000
vn -1.0000 0.0000 0.0000
vn 0.0000 0.0000 1.0000
vn 0.0000 1.0000 0.0000
vn 1.0000 0.0000 0.0000
vn 0.0000 0.0000 -1.0000
f 1/1/1 16/2/1 3/3/1
f 22/4/2 42/5/2 23/6/2
f 6/7/3 22/8/3 23/9/3
f 11/10/3 1/11/3 10/12/3
f 6/13/1 58/14/1 60/15/1
f 12/16/3 18/17/3 2/18/3
f 9/19/4 48/20/4 45/21/4
f 8/22/1 1/1/1 3/3/1
f 48/23/3 10/12/3 46/24/3
f 23/25/1 44/26/1 27/27/1
f 13/28/4 14/29/4 15/30/4
f 19/31/2 39/32/2 16/33/2
f 11/10/3 12/16/3 2/18/3
f 9/34/5 14/35/5 11/36/5
f 18/37/2 16/33/2 17/38/2
f 18/37/2 21/39/2 19/31/2
f 13/28/4 20/40/4 12/41/4
f 26/42/4 41/43/4 22/44/4
f 13/28/4 40/45/4 21/46/4
f 2/18/3 17/47/3 1/11/3
f 25/48/4 26/42/4 22/44/4
f 5/49/3 24/50/3 25/51/3
f 4/52/3 23/9/3 24/50/3
f 7/53/3 25/51/3 22/8/3
f 26/54/5 28/55/5 27/56/5
f 16/2/1 31/57/1 3/3/1
f 24/58/3 29/59/3 25/60/3
f 23/25/1 28/61/1 24/62/1
f 59/63/6 35/64/6 62/65/6
f 30/66/6 32/67/6 31/68/6
f 30/66/6 37/69/6 33/70/6
f 30/66/6 40/71/6 36/72/6
f 31/68/6 38/73/6 30/66/6
f 41/74/6 44/75/6 42/76/6
f 27/56/5 43/77/5 26/54/5
f 9/34/5 37/78/5 15/79/5
f 3/3/1 32/80/1 8/22/1
f 21/39/2 38/81/2 19/31/2
f 8/22/1 50/82/1 47/83/1
f 7/84/4 59/85/4 57/86/4
f 6/87/5 34/88/5 7/89/5
f 15/30/4 36/90/4 13/28/4
f 45/21/4 33/91/4 9/19/4
f 47/83/1 56/92/1 54/93/1
f 33/70/6 50/94/6 32/67/6
f 55/95/3 46/24/3 52/96/3
f 45/21/4 55/97/4 51/98/4
f 47/83/1 10/99/1 8/22/1
f 51/98/4 61/100/4 57/86/4
f 61/101/3 52/96/3 58/102/3
f 54/93/1 62/103/1 60/15/1
f 51/98/4 49/104/4 45/21/4
f 49/105/6 56/106/6 50/94/6
f 54/93/1 46/107/1 47/83/1
f 60/15/1 35/108/1 6/13/1
f 5/109/3 58/102/3 4/110/3
f 57/86/4 5/111/4 7/84/4
f 57/86/4 53/112/4 51/98/4
f 53/113/6 62/65/6 56/106/6
f 60/15/1 52/114/1 54/93/1
f 1/1/1 17/115/1 16/2/1
f 22/4/2 41/116/2 42/5/2
f 6/7/3 7/53/3 22/8/3
f 11/10/3 2/18/3 1/11/3
f 6/13/1 4/117/1 58/14/1
f 12/16/3 20/118/3 18/17/3
f 9/19/4 11/119/4 48/20/4
f 8/22/1 10/99/1 1/1/1
f 48/23/3 11/10/3 10/12/3
f 23/25/1 42/120/1 44/26/1
f 13/28/4 12/41/4 14/29/4
f 19/31/2 38/81/2 39/32/2
f 11/10/3 14/121/3 12/16/3
f 9/34/5 15/79/5 14/35/5
f 18/37/2 19/31/2 16/33/2
f 18/37/2 20/122/2 21/39/2
f 13/28/4 21/46/4 20/40/4
f 26/42/4 43/123/4 41/43/4
f 13/28/4 36/90/4 40/45/4
f 2/18/3 18/17/3 17/47/3
f 25/48/4 29/124/4 26/42/4
f 5/49/3 4/52/3 24/50/3
f 4/52/3 6/7/3 23/9/3
f 7/53/3 5/49/3 25/51/3
f 26/54/5 29/125/5 28/55/5
f 16/2/1 39/126/1 31/57/1
f 24/58/3 28/127/3 29/59/3
f 23/25/1 27/27/1 28/61/1
f 59/63/6 34/128/6 35/64/6
f 30/66/6 33/70/6 32/67/6
f 30/66/6 36/72/6 37/69/6
f 30/66/6 38/73/6 40/71/6
f 31/68/6 39/129/6 38/73/6
f 41/74/6 43/130/6 44/75/6
f 27/56/5 44/131/5 43/77/5
f 9/34/5 33/132/5 37/78/5
f 3/3/1 31/57/1 32/80/1
f 21/39/2 40/133/2 38/81/2
f 8/22/1 32/80/1 50/82/1
f 7/84/4 34/134/4 59/85/4
f 6/87/5 35/135/5 34/88/5
f 15/30/4 37/136/4 36/90/4
f 45/21/4 49/104/4 33/91/4
f 47/83/1 50/82/1 56/92/1
f 33/70/6 49/105/6 50/94/6
f 55/95/3 48/23/3 46/24/3
f 45/21/4 48/20/4 55/97/4
f 47/83/1 46/107/1 10/99/1
f 51/98/4 55/97/4 61/100/4
f 61/101/3 55/95/3 52/96/3
f 54/93/1 56/92/1 62/103/1
f 51/98/4 53/112/4 49/104/4
f 49/105/6 53/113/6 56/106/6
f 54/93/1 52/114/1 46/107/1
f 60/15/1 62/103/1 35/108/1
f 5/109/3 61/101/3 58/102/3
f 57/86/4 61/100/4 5/111/4
f 57/86/4 59/85/4 53/112/4
f 53/113/6 59/63/6 62/65/6
f 60/15/1 58/14/1 52/114/1
