# Blender v2.79 (sub 0) OBJ File: ''
# www.blender.org
v 0.642318 0.802213 2.087264
v -0.638856 -1.686193 2.087264
v 0.642318 -1.686193 2.087264
v -1.380175 -1.686193 2.087264
v -1.380176 1.503606 -1.672705
v -1.380176 -1.686193 -3.773812
v 1.383636 -1.686193 -3.773812
v 1.383638 1.503606 -1.672706
v 1.383638 -1.686193 2.087264
v -1.380175 1.503606 2.087264
v 0.774690 0.930614 2.087264
v 1.383638 1.503606 2.087264
v -0.771228 0.930614 2.087264
v -0.771228 -1.686193 2.087264
v -0.771228 0.930614 2.130271
v 0.642318 0.802213 2.130271
v -0.638856 0.802213 2.087264
v -0.638856 -1.686193 2.130271
v 0.774690 -1.686193 2.130271
v 0.774690 0.930614 2.130271
v -0.638856 0.802213 2.130271
v -0.771228 -1.686193 2.130271
v 0.774690 -1.686193 2.087264
v 0.433892 -0.453574 2.163891
v 0.464881 -0.434939 2.179281
v 0.448595 -0.419141 2.163891
v 0.413098 -0.453574 2.113690
v 0.437713 -0.408585 2.086522
v 0.418502 -0.453574 2.086522
v 0.437713 -0.408585 2.140859
v 0.418502 -0.453574 2.140859
v 0.456924 -0.453574 2.179281
v 0.484093 -0.453574 2.184685
v 0.433892 -0.404878 2.113690
v 0.484093 -0.384709 2.113690
v 0.484093 -0.389950 2.086522
v 0.484093 -0.404878 2.163891
v 0.484093 -0.389950 2.140859
v 0.484093 -0.427220 2.179281
v 0.530472 -0.408585 2.140859
v 0.534294 -0.404878 2.113690
v 0.519590 -0.419141 2.163891
v 0.530472 -0.408585 2.086522
v 0.503304 -0.434939 2.179281
v 0.555087 -0.453574 2.113690
v 0.534293 -0.453574 2.163891
v 0.549683 -0.453574 2.086522
v 0.549683 -0.453574 2.140859
v 0.511261 -0.453574 2.179281
v 0.530472 -0.498561 2.086522
v 0.530472 -0.498561 2.140859
v 0.503304 -0.472208 2.179281
v 0.534293 -0.502268 2.113690
v 0.519590 -0.488006 2.163891
v 0.484093 -0.517196 2.140859
v 0.484093 -0.479927 2.179281
v 0.484093 -0.522438 2.113690
v 0.484093 -0.502268 2.163891
v 0.484093 -0.517196 2.086522
v 0.437713 -0.498561 2.140859
v 0.433892 -0.502268 2.113690
v 0.448595 -0.488006 2.163891
v 0.437713 -0.498561 2.086522
v 0.464881 -0.472208 2.179281
v 0.642318 -1.686193 2.130271
vt 0.841715 0.752326
vt 0.948867 0.813949
vt 0.840877 0.753839
vt 0.223090 0.852472
vt 0.214536 0.863350
vt 0.213758 0.849060
vt 0.260973 0.865902
vt 0.252500 0.900041
vt 0.245046 0.884419
vt 0.254631 0.723050
vt 0.545636 0.468538
vt 0.708253 0.723050
vt 0.847664 0.254631
vt 0.847664 0.468538
vt 0.208913 0.301761
vt 0.000119 0.254631
vt 0.254631 0.254631
vt 0.254631 0.468538
vt 0.208913 0.421408
vt 0.000120 0.468538
vt 0.000120 0.421409
vt 0.000119 0.984337
vt 0.099277 0.785789
vt 0.099277 0.984337
vt 0.950356 0.812555
vt 0.970934 0.871385
vt 0.844132 0.747860
vt 0.956575 0.807543
vt 0.979271 0.871832
vt 0.973207 0.871421
vt 0.930643 0.985376
vt 0.926085 0.983428
vt 0.958192 0.806049
vt 0.981820 0.871786
vt 0.845180 0.745887
vt 0.933289 0.986505
vt 0.223658 0.838501
vt 0.227610 0.847259
vt 0.202583 0.845039
vt 0.210708 0.811851
vt 0.218082 0.826999
vt 0.248460 0.847228
vt 0.241918 0.826033
vt 0.260154 0.841676
vt 0.240046 0.858484
vt 0.231572 0.855482
vt 0.239842 0.851580
vt 0.304275 0.880924
vt 0.266885 0.930428
vt 0.247960 0.808587
vt 0.238001 0.837263
vt 0.234674 0.846722
vt 0.304554 0.820093
vt 0.256460 0.783627
vt 0.196873 0.783627
vt 0.223234 0.859447
vt 0.224753 0.873590
vt 0.249509 0.861851
vt 0.220337 0.885097
vt 0.203174 0.868389
vt 0.161506 0.830725
vt 0.235543 0.863706
vt 0.228539 0.864184
vt 0.214905 0.901894
vt 0.275577 0.834214
vt 0.278711 0.872124
vt 0.239432 0.872570
vt 0.203454 0.929319
vt 0.187618 0.876285
vt 0.161924 0.886960
vt 0.545637 0.254631
vt 0.254631 0.000119
vt 0.708253 0.000119
vt 0.185399 0.838966
vt 0.000119 0.301761
vt 0.924144 0.982612
vt 0.000119 0.785789
vn -1.0000 0.0000 0.0000
vn 0.5406 -0.2308 0.8090
vn -0.9046 -0.3863 0.1799
vn -0.0000 0.5501 -0.8351
vn -0.0000 0.0000 1.0000
vn 0.0000 1.0000 -0.0000
vn -0.0000 -1.0000 0.0000
vn 1.0000 -0.0000 0.0000
vn 0.5406 0.2308 0.8090
vn 0.9047 0.3863 0.1799
vn 0.9046 0.3863 0.1800
vn -0.3195 0.7952 0.5154
vn -0.1944 0.0830 0.9774
vn -0.9046 -0.3863 -0.1799
vn 0.3670 0.9134 0.1762
vn 0.3195 0.7952 0.5154
vn -0.0804 0.2002 0.9764
vn -0.3670 0.9134 -0.1762
vn 0.3670 0.9134 -0.1762
vn 0.2222 -0.5531 0.8029
vn -0.7836 -0.3346 0.5235
vn -0.7835 -0.3346 0.5235
vn -0.7835 -0.3346 0.5236
vn 0.3195 -0.7952 0.5154
vn 0.0805 0.2002 0.9764
vn 0.9046 0.3863 -0.1800
vn 0.9047 0.3863 -0.1800
vn -0.2222 -0.5531 0.8029
vn -0.3670 -0.9134 0.1762
vn -0.7835 0.3346 0.5236
vn 0.1944 0.0830 0.9774
vn -0.9047 0.3863 -0.1799
vn -0.9046 0.3863 -0.1799
vn 0.7835 0.3346 0.5236
vn 0.1944 -0.0830 0.9774
vn -0.9047 0.3863 0.1799
vn -0.5406 -0.2308 0.8090
vn -0.3195 -0.7952 0.5154
vn 0.0804 -0.2002 0.9764
vn -0.3670 -0.9134 -0.1762
vn -0.2222 0.5531 0.8029
vn -0.3670 0.9134 0.1762
vn 0.3670 -0.9134 0.1762
vn 0.2222 0.5531 0.8029
vn 0.3670 -0.9134 -0.1762
vn -0.0805 -0.2002 0.9764
vn -0.5406 0.2308 0.8090
vn 0.9046 -0.3863 -0.1799
vn 0.7835 -0.3346 0.5235
vn 0.7835 -0.3346 0.5236
vn -0.1944 -0.0830 0.9774
vn 0.9046 -0.3863 0.1799
vn 0.3670 0.9134 -0.1763
vn 0.9047 0.3863 -0.1799
vn -0.7836 0.3346 0.5235
vn 0.7836 0.3346 0.5235
vn 0.7836 -0.3346 0.5235
f 65/1/1 1/2/1 3/3/1
f 49/4/2 54/5/2 46/6/2
f 31/7/3 61/8/3 60/9/3
f 4/10/1 5/11/1 6/12/1
f 5/11/4 7/13/4 6/14/4
f 11/15/5 9/16/5 12/17/5
f 11/15/5 10/18/5 13/19/5
f 13/19/5 4/20/5 14/21/5
f 17/22/5 3/23/5 1/24/5
f 12/17/6 5/11/6 10/18/6
f 16/25/7 17/26/7 1/2/7
f 16/25/5 19/27/5 20/28/5
f 16/25/5 15/29/5 21/30/5
f 21/30/5 22/31/5 18/32/5
f 15/29/6 11/33/6 13/34/6
f 20/28/8 23/35/8 11/33/8
f 22/31/1 13/34/1 14/36/1
f 49/4/9 42/37/9 44/38/9
f 48/39/10 41/40/11 40/41/11
f 26/42/12 38/43/12 30/44/12
f 32/45/13 33/46/13 25/47/13
f 61/8/14 29/48/14 63/49/14
f 35/50/15 40/41/15 41/40/15
f 42/37/16 38/43/16 37/51/16
f 25/47/17 33/46/17 39/52/17
f 28/53/18 35/50/18 36/54/18
f 35/50/19 43/55/19 36/54/19
f 52/56/20 58/57/20 54/5/20
f 60/9/21 24/58/22 31/7/23
f 54/5/24 55/59/24 51/60/24
f 39/52/25 33/46/25 44/38/25
f 41/40/26 47/61/27 43/55/26
f 64/62/28 58/57/28 56/63/28
f 57/64/29 60/9/29 61/8/29
f 24/58/30 30/44/30 31/7/30
f 44/38/31 33/46/31 49/4/31
f 34/65/32 29/48/33 27/66/33
f 40/41/34 46/6/34 48/39/34
f 49/4/35 33/46/35 52/56/35
f 31/7/36 34/65/36 27/66/36
f 32/45/37 62/67/37 64/62/37
f 62/67/38 55/59/38 58/57/38
f 52/56/39 33/46/39 56/63/39
f 57/64/40 63/49/40 59/68/40
f 25/47/41 37/51/41 26/42/41
f 30/44/42 35/50/42 34/65/42
f 51/60/43 57/64/43 53/69/43
f 44/38/44 37/51/44 39/52/44
f 57/64/45 50/70/45 53/69/45
f 8/71/8 9/72/8 7/73/8
f 56/63/46 33/46/46 64/62/46
f 32/45/47 26/42/47 24/58/47
f 53/69/48 47/61/48 45/74/48
f 46/6/49 51/60/49 48/39/50
f 64/62/51 33/46/51 32/45/51
f 48/39/52 53/69/52 45/74/52
f 11/15/5 23/75/5 9/16/5
f 11/15/5 12/17/5 10/18/5
f 13/19/5 10/18/5 4/20/5
f 16/25/5 65/1/5 19/27/5
f 16/25/5 20/28/5 15/29/5
f 21/30/5 15/29/5 22/31/5
f 21/30/8 2/76/8 17/26/8
f 65/1/1 16/25/1 1/2/1
f 49/4/2 52/56/2 54/5/2
f 31/7/3 27/66/3 61/8/3
f 4/10/1 10/18/1 5/11/1
f 5/11/4 8/71/4 7/13/4
f 17/22/5 2/77/5 3/23/5
f 12/17/6 8/71/6 5/11/6
f 16/25/7 21/30/7 17/26/7
f 15/29/6 20/28/6 11/33/6
f 20/28/8 19/27/8 23/35/8
f 22/31/1 15/29/1 13/34/1
f 49/4/9 46/6/9 42/37/9
f 48/39/10 45/74/10 41/40/11
f 26/42/12 37/51/12 38/43/12
f 61/8/14 27/66/14 29/48/14
f 35/50/15 38/43/15 40/41/15
f 42/37/16 40/41/16 38/43/16
f 28/53/18 34/65/18 35/50/18
f 35/50/19 41/40/53 43/55/19
f 52/56/20 56/63/20 58/57/20
f 60/9/21 62/67/21 24/58/22
f 54/5/24 58/57/24 55/59/24
f 41/40/26 45/74/54 47/61/27
f 64/62/28 62/67/28 58/57/28
f 57/64/29 55/59/29 60/9/29
f 24/58/30 26/42/55 30/44/30
f 34/65/32 28/53/32 29/48/33
f 40/41/34 42/37/56 46/6/34
f 31/7/36 30/44/36 34/65/36
f 32/45/37 24/58/37 62/67/37
f 62/67/38 60/9/38 55/59/38
f 57/64/40 61/8/40 63/49/40
f 25/47/41 39/52/41 37/51/41
f 30/44/42 38/43/42 35/50/42
f 51/60/43 55/59/43 57/64/43
f 44/38/44 42/37/44 37/51/44
f 57/64/45 59/68/45 50/70/45
f 8/71/8 12/17/8 9/72/8
f 32/45/47 25/47/47 26/42/47
f 53/69/48 50/70/48 47/61/48
f 46/6/49 54/5/57 51/60/49
f 48/39/52 51/60/52 53/69/52
f 21/30/8 18/32/8 2/76/8
