# Blender v2.79 (sub 0) OBJ File: ''
# www.blender.org
v -0.078082 -0.500000 -1.000000
v 0.164963 0.000000 -1.000000
v 0.164963 -0.000000 1.000000
v -0.078082 -0.500000 1.000000
v -0.083082 -0.500000 -1.000000
v -0.083082 -0.500000 1.000000
v 0.164963 0.500000 1.000000
v 0.164963 0.500000 -1.000000
v -0.084214 0.500000 -1.000000
v -0.084214 0.500000 1.000000
v -0.084880 0.000000 -1.000000
v -0.084214 -0.000000 1.000000
vn 0.8994 -0.4372 -0.0000
vn 0.0000 -1.0000 -0.0000
vn 1.0000 0.0000 0.0000
vn 0.0000 1.0000 0.0000
vn -1.0000 0.0011 0.0003
vn -1.0000 0.0002 0.0001
vn -1.0000 0.0000 0.0000
vn -1.0000 0.0013 0.0003
f 2//1 4//1 1//1
f 1//2 6//2 5//2
f 3//3 8//3 7//3
f 8//4 10//4 7//4
f 9//5 12//6 10//7
f 2//1 3//1 4//1
f 1//2 4//2 6//2
f 3//3 2//3 8//3
f 8//4 9//4 10//4
f 9//5 11//8 12//6
