# Blender v2.79 (sub 0) OBJ File: 'Assets.blend'
# www.blender.org
v -0.162244 0.352617 -0.560517
v -0.380785 0.334613 -0.419354
v -0.526184 0.334613 -0.176052
v -0.526184 0.334613 0.104195
v -0.380785 0.334613 0.346296
v -0.157762 0.352617 0.485380
v 0.122485 0.352617 0.484179
v 0.346257 0.334613 0.343016
v 0.488532 0.334613 0.099714
v 0.488532 0.334613 -0.180533
v 0.346257 0.334613 -0.422634
v 0.118004 0.352617 -0.561718
v -0.162244 0.272902 -0.560517
v -0.378096 0.281683 -0.419080
v -0.526184 0.294270 -0.176052
v -0.526184 0.294270 0.104195
v -0.380785 0.294270 0.346296
v -0.157762 0.272902 0.485380
v 0.122485 0.272902 0.484179
v 0.346257 0.294270 0.343016
v 0.488532 0.294270 0.099714
v 0.488532 0.294270 -0.180533
v 0.348945 0.281683 -0.422361
v 0.118004 0.272902 -0.561718
v -0.381512 0.352617 0.357473
v 0.345131 0.352617 0.354359
v -0.381512 0.272902 0.357473
v 0.345131 0.272902 0.354359
v -0.408193 0.352617 0.334069
v 0.371610 0.352617 0.330727
v -0.408193 0.272902 0.334069
v 0.371610 0.272902 0.330727
v -0.535526 0.352617 0.115689
v -0.535526 0.272902 0.115689
v 0.497067 0.352617 0.111265
v 0.497067 0.272902 0.111265
v -0.542288 0.352617 0.090183
v 0.503610 0.352617 0.085702
v -0.542288 0.272902 0.090183
v 0.503610 0.272902 0.085702
v -0.543371 0.352617 -0.162740
v -0.543371 0.272902 -0.162740
v 0.502526 0.352617 -0.167222
v 0.502526 0.272902 -0.167222
v -0.536474 0.352617 -0.188217
v 0.495411 0.352617 -0.192638
v -0.536474 0.272902 -0.188217
v 0.495411 0.272902 -0.192638
v -0.410951 0.352617 -0.407797
v -0.410951 0.272902 -0.407797
v 0.368011 0.352617 -0.411135
v 0.368011 0.272902 -0.411135
v -0.380135 0.352617 -0.433470
v 0.336975 0.352617 -0.436543
v -0.380135 0.272902 -0.433470
v 0.336975 0.272902 -0.436543
v -0.391018 0.275030 0.258817
v -0.391018 0.275030 0.168509
v -0.300709 0.275030 0.258817
v -0.300709 0.275030 0.168509
v -0.375009 -0.481930 0.184517
v -0.375009 -0.481930 0.242809
v -0.316718 -0.481930 0.184517
v -0.316718 -0.481930 0.242809
v 0.268525 0.275030 0.258817
v 0.268525 0.275030 0.168509
v 0.358834 0.275030 0.258817
v 0.358834 0.275030 0.168509
v 0.284534 -0.481930 0.184517
v 0.284534 -0.481930 0.242809
v 0.342825 -0.481930 0.184517
v 0.342825 -0.481930 0.242809
v 0.268525 0.275030 -0.252038
v 0.268525 0.275030 -0.342346
v 0.358834 0.275030 -0.252038
v 0.358834 0.275030 -0.342346
v 0.284534 -0.481930 -0.326338
v 0.284534 -0.481930 -0.268047
v 0.342825 -0.481930 -0.326338
v 0.342825 -0.481930 -0.268047
v -0.391018 0.275030 -0.252038
v -0.391018 0.275030 -0.342346
v -0.300709 0.275030 -0.252038
v -0.300709 0.275030 -0.342346
v -0.375009 -0.481930 -0.326338
v -0.375009 -0.481930 -0.268047
v -0.316718 -0.481930 -0.326338
v -0.316718 -0.481930 -0.268047
vt 0.039897 0.610866
vt 0.412639 0.619646
vt 0.041333 0.621355
vt 0.313744 0.435032
vt 0.303443 0.007471
vt 0.313742 0.003187
vt 0.037265 0.464308
vt 0.020387 0.438474
vt 0.039157 0.452771
vt 0.075024 0.782243
vt 0.071630 0.753162
vt 0.083160 0.771515
vt 0.647701 0.866458
vt 0.771959 0.819546
vt 0.713716 0.869022
vt 0.758493 0.780347
vt 0.880787 0.818527
vt 0.940069 0.881979
vt 0.966612 0.891742
vt 0.944972 0.888463
vt 0.423419 0.880115
vt 0.445406 0.896895
vt 0.425566 0.888119
vt 0.453094 0.578076
vt 0.468860 0.599356
vt 0.452363 0.587312
vt 0.408327 0.744266
vt 0.377847 0.728946
vt 0.383530 0.719580
vt 0.972845 0.918170
vt 0.855583 0.960811
vt 0.930342 0.900035
vt 0.866670 0.999745
vt 0.746571 0.952786
vt 0.647926 0.901595
vt 0.684194 0.892253
vt 0.689908 0.901473
vt 0.018768 0.599867
vt 0.446444 0.476183
vt 0.445677 0.466007
vt 0.388337 0.785940
vt 0.381390 0.775544
vt 0.054189 0.371161
vt 0.000255 0.160471
vt 0.054182 0.067062
vt 0.074605 0.382285
vt 0.064273 0.067386
vt 0.074601 0.055937
vt 0.187076 0.437963
vt 0.176366 0.006970
vt 0.187076 0.000255
vt 0.416763 0.069066
vt 0.469308 0.276981
vt 0.416716 0.368041
vt 0.705407 0.878224
vt 0.903880 0.780347
vt 0.670972 0.880152
vt 0.166219 0.003040
vt 0.050901 0.872985
vt 0.395744 0.753164
vt 0.000255 0.886629
vt 0.021778 0.894259
vt 0.047924 0.883799
vt 0.166225 0.435180
vt 0.424262 0.754552
vt 0.292924 0.437964
vt 0.292925 0.000255
vt 0.045513 0.570505
vt 0.465881 0.452118
vt 0.001157 0.592889
vt 0.025817 0.599356
vt 0.047617 0.582476
vt 0.487198 0.458154
vt 0.032958 0.738019
vt 0.068464 0.707708
vt 0.440647 0.604266
vt 0.416335 0.611311
vt 0.405410 0.056111
vt 0.078314 0.719400
vt 0.410879 0.068769
vt 0.405411 0.382108
vt 0.459530 0.612203
vt 0.410901 0.371884
vt 0.939501 0.892253
vt 0.727779 0.988794
vt 0.724806 0.023627
vt 0.742484 0.341618
vt 0.704712 0.340020
vt 0.700490 0.021565
vt 0.667041 0.336826
vt 0.676284 0.018478
vt 0.629539 0.332044
vt 0.749187 0.000255
vt 0.773590 0.024658
vt 0.749187 0.024658
vt 0.780290 0.341618
vt 0.596375 0.461208
vt 0.647190 0.771591
vt 0.609932 0.773996
vt 0.561854 0.773996
vt 0.551476 0.460640
vt 0.524714 0.771589
vt 0.574210 0.438474
vt 0.487709 0.767614
vt 0.556016 0.037910
vt 0.591858 0.338157
vt 0.543791 0.338156
vt 0.533151 0.025643
vt 0.506748 0.335790
vt 0.509326 0.023107
vt 0.469838 0.331861
vt 0.556215 0.000255
vt 0.578608 0.026105
vt 0.602601 0.024577
vt 0.629028 0.335790
vt 0.742967 0.461846
vt 0.760646 0.779837
vt 0.722874 0.778239
vt 0.718651 0.459784
vt 0.685203 0.775046
vt 0.694445 0.456697
vt 0.647701 0.770263
vt 0.767348 0.438474
vt 0.791750 0.462877
vt 0.767348 0.462877
vt 0.798452 0.779837
vt 0.303472 0.432132
vt 0.000255 0.443666
vt 0.049142 0.754686
vt 0.981907 0.884573
vt 0.462267 0.891993
vt 0.485857 0.595735
vt 0.398875 0.752651
vt 0.647701 0.893238
vt 0.000255 0.605210
vt 0.000258 0.277754
vt 0.064312 0.371652
vt 0.176397 0.431629
vt 0.469327 0.160142
vt 0.050363 0.752650
vt 0.977107 0.907980
vt 0.773590 0.000255
vt 0.620424 0.459656
vt 0.574169 0.476070
vt 0.527590 0.458074
vt 0.791750 0.438474
vn 0.0035 0.5613 0.8276
vn 0.0037 -0.4961 0.8683
vn -0.6564 0.0000 0.7544
vn -0.4074 0.0000 0.9132
vn -0.4963 0.0000 0.8682
vn 0.0043 0.0000 1.0000
vn 0.9951 0.0000 0.0988
vn 0.8043 0.0000 -0.5943
vn 0.6892 0.0000 -0.7245
vn 0.4673 0.0000 -0.8841
vn 0.4963 0.0000 -0.8682
vn -0.0043 0.0000 -1.0000
vn -0.9989 0.0000 -0.0460
vn -0.7635 0.0000 0.6458
vn 0.0000 1.0000 0.0000
vn 0.0035 0.6124 0.7906
vn 0.0037 0.5601 0.8284
vn 0.0000 -1.0000 0.0000
vn 0.0037 -0.5002 0.8659
vn 0.0036 -0.5502 0.8350
vn -0.0038 -0.4634 -0.8862
vn -0.0038 0.5329 -0.8462
vn 0.5037 0.0000 0.8639
vn -0.9979 0.0000 -0.0649
vn 0.4361 0.0000 0.8999
vn -0.8639 0.0000 0.5037
vn -0.7760 0.0000 -0.6307
vn -0.0037 0.5412 -0.8409
vn -0.0038 -0.4724 -0.8814
vn 0.8682 0.0000 0.4963
vn 0.6808 0.0000 0.7325
vn -1.0000 0.0000 0.0043
vn -0.6123 0.0000 -0.7906
vn -0.0035 0.5963 -0.8028
vn -0.0036 -0.5266 -0.8501
vn 1.0000 0.0000 -0.0043
vn -0.8682 0.0000 -0.4963
vn 0.8694 0.0000 0.4941
vn -0.0038 0.5416 -0.8407
vn -0.0027 -0.7854 -0.6190
vn -0.3577 0.0000 -0.9338
vn 0.8639 0.0000 -0.5037
vn 0.0024 -0.8511 0.5250
vn 0.0036 0.6125 0.7905
vn -0.5037 0.0000 -0.8639
vn 0.8318 0.0000 -0.5551
vn 0.0000 -0.0211 -0.9998
vn 0.9998 -0.0211 0.0000
vn 0.0000 -0.0211 0.9998
vn -0.9998 -0.0211 0.0000
vn 0.0037 0.5570 0.8305
vn 0.0038 -0.4920 0.8706
vn 0.5147 0.0217 -0.8571
vn -0.9843 -0.0491 0.1694
vn 0.0034 0.6161 0.7877
vn 0.0035 0.5655 0.8247
vn 0.0039 -0.4950 0.8689
vn 0.0037 -0.5465 0.8374
vn -0.0040 -0.4687 -0.8833
vn -0.0036 0.5273 -0.8497
vn -0.0036 0.5368 -0.8437
vn -0.0039 -0.4767 -0.8790
vn -0.0035 0.5924 -0.8056
vn -0.0037 -0.5305 -0.8477
vn -0.0036 0.5359 -0.8443
vn -0.0028 -0.7899 -0.6132
vn -0.3197 -0.0211 -0.9473
vn 0.0022 -0.8537 0.5207
vn 0.0034 0.6169 0.7870
vn 0.7530 0.0348 -0.6571
f 3/1/1 46/2/1 45/3/1
f 48/4/2 15/5/2 47/6/2
f 37/7/3 16/8/3 4/9/3
f 29/10/4 17/11/4 5/12/4
f 27/13/5 6/14/5 25/15/5
f 18/16/6 7/17/6 6/14/6
f 26/18/7 20/19/7 8/20/7
f 35/21/8 21/22/8 9/23/8
f 43/24/9 22/25/9 10/26/9
f 52/27/10 11/28/10 51/29/10
f 56/30/11 12/31/11 54/32/11
f 24/33/12 1/34/12 12/31/12
f 55/35/13 2/36/13 53/37/13
f 45/3/14 15/38/14 3/1/14
f 12/31/15 53/37/15 54/32/15
f 38/39/16 4/9/16 9/40/16
f 30/41/17 5/12/17 8/42/17
f 26/18/15 6/14/15 7/17/15
f 28/43/18 18/44/18 27/45/18
f 32/46/19 17/47/19 31/48/19
f 40/49/20 16/50/20 39/51/20
f 55/52/18 24/53/18 56/54/18
f 17/47/21 28/43/21 27/45/21
f 5/55/22 26/18/22 8/20/22
f 19/56/23 26/18/23 7/17/23
f 17/57/24 25/15/24 5/55/24
f 34/58/18 32/46/18 31/48/18
f 33/59/15 30/41/15 35/21/15
f 20/60/25 30/41/25 8/42/25
f 34/61/26 29/10/26 33/59/26
f 16/62/27 33/59/27 4/63/27
f 4/63/28 35/21/28 9/23/28
f 16/50/29 36/64/29 34/58/29
f 32/65/30 35/21/30 30/41/30
f 44/66/18 39/51/18 42/67/18
f 41/68/15 38/39/15 43/24/15
f 21/69/31 38/39/31 9/40/31
f 42/70/32 37/7/32 41/68/32
f 15/71/33 41/68/33 3/72/33
f 3/72/34 43/24/34 10/26/34
f 15/5/35 44/66/35 42/67/35
f 40/73/36 43/24/36 38/39/36
f 50/74/37 45/3/37 49/75/37
f 22/76/38 46/2/38 10/77/38
f 50/78/18 48/4/18 47/6/18
f 45/3/15 51/29/15 49/75/15
f 2/79/39 51/29/39 11/28/39
f 14/80/40 52/81/40 50/78/40
f 2/79/41 50/74/41 49/75/41
f 48/82/42 51/29/42 46/2/42
f 14/80/43 56/54/43 23/83/43
f 54/32/44 2/36/44 11/84/44
f 13/85/45 53/37/45 1/34/45
f 11/84/46 56/30/46 54/32/46
f 63/86/47 58/87/47 60/88/47
f 64/89/48 60/88/48 59/90/48
f 62/91/49 59/90/49 57/92/49
f 63/93/18 62/94/18 61/95/18
f 58/87/50 62/94/50 57/96/50
f 71/97/47 66/98/47 68/99/47
f 67/100/48 71/97/48 68/99/48
f 70/101/49 67/100/49 65/102/49
f 71/97/18 70/101/18 69/103/18
f 66/104/50 70/101/50 65/102/50
f 79/105/47 74/106/47 76/107/47
f 80/108/48 76/107/48 75/109/48
f 78/110/49 75/109/49 73/111/49
f 79/105/18 78/112/18 77/113/18
f 74/106/50 78/114/50 73/115/50
f 87/116/47 82/117/47 84/118/47
f 88/119/48 84/118/48 83/120/48
f 86/121/49 83/120/49 81/122/49
f 87/123/18 86/124/18 85/125/18
f 82/117/50 86/124/50 81/126/50
f 3/1/51 10/77/51 46/2/51
f 48/4/52 22/127/52 15/5/52
f 37/7/3 39/128/3 16/8/3
f 29/10/4 31/129/4 17/11/4
f 27/13/5 18/16/5 6/14/5
f 18/16/6 19/56/6 7/17/6
f 26/18/7 28/130/7 20/19/7
f 35/21/8 36/131/8 21/22/8
f 43/24/9 44/132/9 22/25/9
f 52/27/53 23/133/53 11/28/53
f 56/30/11 24/33/11 12/31/11
f 24/33/12 13/85/12 1/34/12
f 55/35/54 14/134/54 2/36/54
f 45/3/14 47/135/14 15/38/14
f 12/31/15 1/34/15 53/37/15
f 38/39/55 37/7/55 4/9/55
f 30/41/56 29/10/56 5/12/56
f 26/18/15 25/15/15 6/14/15
f 28/43/18 19/136/18 18/44/18
f 32/46/57 20/137/57 17/47/57
f 40/49/58 21/138/58 16/50/58
f 55/52/18 13/139/18 24/53/18
f 17/47/59 20/137/59 28/43/59
f 5/55/60 25/15/60 26/18/60
f 19/56/23 28/130/23 26/18/23
f 17/57/24 27/13/24 25/15/24
f 34/58/18 36/64/18 32/46/18
f 33/59/15 29/10/15 30/41/15
f 20/60/25 32/65/25 30/41/25
f 34/61/26 31/129/26 29/10/26
f 16/62/27 34/61/27 33/59/27
f 4/63/61 33/59/61 35/21/61
f 16/50/62 21/138/62 36/64/62
f 32/65/30 36/131/30 35/21/30
f 44/66/18 40/49/18 39/51/18
f 41/68/15 37/7/15 38/39/15
f 21/69/31 40/73/31 38/39/31
f 42/70/32 39/128/32 37/7/32
f 15/71/33 42/70/33 41/68/33
f 3/72/63 41/68/63 43/24/63
f 15/5/64 22/127/64 44/66/64
f 40/73/36 44/132/36 43/24/36
f 50/74/37 47/135/37 45/3/37
f 22/76/38 48/82/38 46/2/38
f 50/78/18 52/81/18 48/4/18
f 45/3/15 46/2/15 51/29/15
f 2/79/65 49/75/65 51/29/65
f 14/80/66 23/83/66 52/81/66
f 2/79/67 14/140/67 50/74/67
f 48/82/42 52/27/42 51/29/42
f 14/80/68 55/52/68 56/54/68
f 54/32/69 53/37/69 2/36/69
f 13/85/45 55/35/45 53/37/45
f 11/84/70 23/141/70 56/30/70
f 63/86/47 61/95/47 58/87/47
f 64/89/48 63/86/48 60/88/48
f 62/91/49 64/89/49 59/90/49
f 63/93/18 64/142/18 62/94/18
f 58/87/50 61/95/50 62/94/50
f 71/97/47 69/143/47 66/98/47
f 67/100/48 72/144/48 71/97/48
f 70/101/49 72/144/49 67/100/49
f 71/97/18 72/144/18 70/101/18
f 66/104/50 69/145/50 70/101/50
f 79/105/47 77/113/47 74/106/47
f 80/108/48 79/105/48 76/107/48
f 78/110/49 80/108/49 75/109/49
f 79/105/18 80/108/18 78/112/18
f 74/106/50 77/113/50 78/114/50
f 87/116/47 85/125/47 82/117/47
f 88/119/48 87/116/48 84/118/48
f 86/121/49 88/119/49 83/120/49
f 87/123/18 88/146/18 86/124/18
f 82/117/50 85/125/50 86/124/50
