# Blender v2.79 (sub 0) OBJ File: ''
# www.blender.org
v -0.526184 0.334613 -0.176052
v 0.495411 0.352617 -0.192638
v -0.536474 0.352617 -0.188217
v 0.495411 0.272902 -0.192638
v -0.526184 0.294270 -0.176052
v -0.536474 0.272902 -0.188217
v -0.542288 0.352617 0.090183
v -0.526184 0.294270 0.104195
v -0.526184 0.334613 0.104195
v -0.408193 0.352617 0.334069
v -0.380785 0.294270 0.346296
v -0.380785 0.334613 0.346296
v -0.381512 0.272902 0.357473
v -0.157762 0.352617 0.485380
v -0.381512 0.352617 0.357473
v -0.157762 0.272902 0.485380
v 0.122485 0.352617 0.484179
v 0.345131 0.352617 0.354359
v 0.346257 0.294270 0.343016
v 0.346257 0.334613 0.343016
v 0.497067 0.352617 0.111265
v 0.488532 0.294270 0.099714
v 0.488532 0.334613 0.099714
v 0.502526 0.352617 -0.167222
v 0.488532 0.294270 -0.180533
v 0.488532 0.334613 -0.180533
v 0.368011 0.272902 -0.411135
v 0.346257 0.334613 -0.422634
v 0.368011 0.352617 -0.411135
v 0.336975 0.272902 -0.436543
v 0.118004 0.352617 -0.561718
v 0.336975 0.352617 -0.436543
v 0.118004 0.272902 -0.561718
v -0.162244 0.352617 -0.560517
v -0.380135 0.272902 -0.433470
v -0.380785 0.334613 -0.419354
v -0.380135 0.352617 -0.433470
v 0.503610 0.352617 0.085702
v 0.371610 0.352617 0.330727
v 0.345131 0.272902 0.354359
v 0.371610 0.272902 0.330727
v -0.408193 0.272902 0.334069
v 0.503610 0.272902 0.085702
v -0.542288 0.272902 0.090183
v 0.122485 0.272902 0.484179
v -0.535526 0.272902 0.115689
v -0.535526 0.352617 0.115689
v 0.497067 0.272902 0.111265
v 0.502526 0.272902 -0.167222
v -0.543371 0.272902 -0.162740
v -0.543371 0.352617 -0.162740
v -0.410951 0.272902 -0.407797
v -0.410951 0.352617 -0.407797
v -0.378096 0.281683 -0.419080
v 0.348945 0.281683 -0.422361
v -0.162244 0.272902 -0.560517
v -0.316718 -0.481930 0.184517
v -0.391018 0.275030 0.168509
v -0.300709 0.275030 0.168509
v -0.316718 -0.481930 0.242809
v -0.300709 0.275030 0.258817
v -0.375009 -0.481930 0.242809
v -0.391018 0.275030 0.258817
v -0.375009 -0.481930 0.184517
v 0.342825 -0.481930 0.184517
v 0.268525 0.275030 0.168509
v 0.358834 0.275030 0.168509
v 0.358834 0.275030 0.258817
v 0.284534 -0.481930 0.242809
v 0.268525 0.275030 0.258817
v 0.284534 -0.481930 0.184517
v 0.342825 -0.481930 -0.326338
v 0.268525 0.275030 -0.342346
v 0.358834 0.275030 -0.342346
v 0.342825 -0.481930 -0.268047
v 0.358834 0.275030 -0.252038
v 0.284534 -0.481930 -0.268047
v 0.268525 0.275030 -0.252038
v 0.284534 -0.481930 -0.326338
v -0.316718 -0.481930 -0.326338
v -0.391018 0.275030 -0.342346
v -0.300709 0.275030 -0.342346
v -0.316718 -0.481930 -0.268047
v -0.300709 0.275030 -0.252038
v -0.375009 -0.481930 -0.268047
v -0.391018 0.275030 -0.252038
v -0.375009 -0.481930 -0.326338
v 0.342825 -0.481930 0.242809
vt 0.047924 0.883799
vt 0.423419 0.880115
vt 0.425566 0.888119
vt 0.176366 0.006970
vt 0.166225 0.435180
vt 0.166219 0.003040
vt 0.037265 0.464308
vt 0.020387 0.438474
vt 0.039157 0.452771
vt 0.446444 0.476183
vt 0.445677 0.466007
vt 0.782838 0.062874
vt 0.813595 0.063187
vt 0.798309 0.071174
vt 0.647926 0.901595
vt 0.746571 0.952786
vt 0.727779 0.988794
vt 0.940069 0.881979
vt 0.966612 0.891742
vt 0.944972 0.888463
vt 0.445406 0.896895
vt 0.453094 0.578076
vt 0.468860 0.599356
vt 0.452363 0.587312
vt 0.187076 0.437963
vt 0.187076 0.000255
vt 0.049142 0.754686
vt 0.050901 0.872985
vt 0.000255 0.886629
vt 0.758493 0.780347
vt 0.713716 0.869022
vt 0.647701 0.866458
vt 0.684194 0.892253
vt 0.689908 0.901473
vt 0.041333 0.621355
vt 0.018768 0.599867
vt 0.039897 0.610866
vt 0.855583 0.960811
vt 0.930342 0.900035
vt 0.395744 0.753164
vt 0.388337 0.785940
vt 0.381390 0.775544
vt 0.083160 0.771515
vt 0.771959 0.819546
vt 0.880787 0.818527
vt 0.054189 0.371161
vt 0.000255 0.160471
vt 0.054182 0.067062
vt 0.074605 0.382285
vt 0.064273 0.067386
vt 0.074601 0.055937
vt 0.303443 0.007471
vt 0.292924 0.437964
vt 0.292925 0.000255
vt 0.416763 0.069066
vt 0.469308 0.276981
vt 0.416716 0.368041
vt 0.705407 0.878224
vt 0.939501 0.892253
vt 0.462267 0.891993
vt 0.424262 0.754552
vt 0.670972 0.880152
vt 0.408327 0.744266
vt 0.377847 0.728946
vt 0.383530 0.719580
vt 0.047617 0.582476
vt 0.903880 0.780347
vt 0.021778 0.894259
vt 0.078314 0.719400
vt 0.032958 0.738019
vt 0.068464 0.707708
vt 0.410879 0.068769
vt 0.410901 0.371884
vt 0.000255 0.605210
vt 0.045513 0.570505
vt 0.779075 0.355465
vt 0.777129 0.567595
vt 0.752091 0.564905
vt 0.465881 0.452118
vt 0.412639 0.619646
vt 0.459530 0.612203
vt 0.025817 0.599356
vt 0.075024 0.782243
vt 0.071630 0.753162
vt 0.866670 0.999745
vt 0.972845 0.918170
vt 0.485857 0.595735
vt 0.487198 0.458154
vt 0.440647 0.604266
vt 0.416335 0.611311
vt 0.405411 0.382108
vt 0.405410 0.056111
vt 0.313744 0.435032
vt 0.313742 0.003187
vt 0.945523 0.045696
vt 0.929012 0.062208
vt 0.929012 0.045696
vt 0.000255 0.443666
vt 0.001157 0.592889
vt 0.841888 0.356535
vt 0.834789 0.569223
vt 0.825617 0.357585
vt 0.810592 0.367641
vt 0.802259 0.569223
vt 0.941300 0.358715
vt 0.911208 0.572094
vt 0.924803 0.358017
vt 0.810619 0.342203
vt 0.885719 0.569934
vt 0.908351 0.356622
vt 0.795237 0.357201
vt 0.950057 0.276669
vt 0.924476 0.276669
vt 0.912515 0.061510
vt 0.873430 0.273426
vt 0.896063 0.060115
vt 0.898919 0.275587
vt 0.739999 0.270067
vt 0.766718 0.061158
vt 0.860345 0.566697
vt 0.891972 0.354533
vt 0.957811 0.342203
vt 0.941300 0.342203
vt 0.764973 0.272725
vt 0.790037 0.274326
vt 0.962345 0.573175
vt 0.936765 0.573175
vt 0.848056 0.270191
vt 0.879684 0.058026
vt 0.847710 0.272725
vt 0.822560 0.274327
vt 0.981907 0.884573
vt 0.647701 0.893238
vt 0.000258 0.277754
vt 0.064312 0.371652
vt 0.469327 0.160142
vt 0.977107 0.907980
vt 0.176397 0.431629
vt 0.798444 0.045696
vt 0.303472 0.432132
vt 0.398875 0.752651
vt 0.050363 0.752650
vt 0.945523 0.062208
vt 0.859999 0.567596
vt 0.957811 0.358715
vt 0.829829 0.062153
vn -0.0037 0.5399 -0.8417
vn -0.0036 0.5381 -0.8429
vn -0.0037 0.5412 -0.8409
vn -0.0039 -0.4755 -0.8797
vn -0.0038 -0.4737 -0.8807
vn -0.0038 -0.4724 -0.8814
vn -0.6564 -0.0000 0.7544
vn 0.0034 0.6150 0.7885
vn 0.0035 0.6135 0.7897
vn 0.0035 0.6124 0.7906
vn 0.0000 -1.0000 -0.0000
vn -0.5037 0.0000 -0.8639
vn 0.9951 0.0000 0.0988
vn 0.8043 0.0000 -0.5943
vn 0.6892 -0.0000 -0.7246
vn 0.0036 -0.5491 0.8357
vn 0.0037 -0.5476 0.8367
vn 0.0036 -0.5502 0.8350
vn -0.8639 0.0000 0.5037
vn -0.4963 -0.0000 0.8682
vn -0.9989 0.0000 -0.0460
vn -0.7635 -0.0000 0.6458
vn 0.0000 1.0000 0.0000
vn 0.4362 -0.0000 0.8999
vn 0.0035 0.5640 0.8258
vn 0.0036 0.5617 0.8274
vn 0.0037 0.5602 0.8284
vn 0.0037 -0.4988 0.8667
vn 0.0038 -0.4965 0.8680
vn 0.0037 -0.5002 0.8659
vn -0.0037 -0.5293 -0.8484
vn -0.0036 -0.5277 -0.8494
vn -0.0036 -0.5267 -0.8501
vn -0.0037 0.5313 -0.8472
vn -0.0036 0.5289 -0.8487
vn -0.0038 0.5329 -0.8462
vn 0.0035 0.6156 0.7880
vn 0.0036 0.6138 0.7895
vn 0.0036 0.6125 0.7905
vn 0.8682 0.0000 0.4963
vn -0.9979 0.0000 -0.0649
vn 0.4998 0.0148 -0.8660
vn 0.4747 0.0034 -0.8801
vn 0.4673 0.0000 -0.8841
vn -0.0035 0.5952 -0.8036
vn -0.0035 0.5935 -0.8048
vn -0.0035 0.5963 -0.8028
vn 0.0043 -0.0000 1.0000
vn -0.7760 0.0000 -0.6307
vn -0.3484 -0.0053 -0.9373
vn -0.3336 -0.0134 -0.9426
vn -0.3578 0.0000 -0.9338
vn 0.0023 -0.8519 0.5237
vn 0.0023 -0.8530 0.5220
vn 0.0024 -0.8511 0.5250
vn -0.8682 0.0000 -0.4963
vn -0.9998 -0.0211 0.0000
vn 0.6807 -0.0000 0.7325
vn 0.8639 0.0000 -0.5037
vn -0.6123 0.0000 -0.7906
vn -0.4074 -0.0000 0.9132
vn 0.4963 0.0000 -0.8682
vn 1.0000 -0.0000 -0.0043
vn 0.8694 0.0000 0.4941
vn -0.0037 0.5375 -0.8433
vn -0.0038 0.5415 -0.8407
vn -0.0028 -0.7886 -0.6149
vn -0.0027 -0.7867 -0.6173
vn -0.0027 -0.7854 -0.6190
vn 0.0036 0.5582 0.8297
vn 0.0036 0.5601 0.8284
vn 0.0035 0.5612 0.8276
vn 0.0037 -0.4949 0.8690
vn 0.0038 -0.4932 0.8699
vn 0.0037 -0.4961 0.8683
vn -1.0000 0.0000 0.0043
vn 0.8318 0.0000 -0.5551
vn 0.0000 -0.0211 -0.9998
vn 0.9998 -0.0211 0.0000
vn 0.0000 -0.0211 0.9998
vn -0.0039 -0.4672 -0.8842
vn -0.0039 -0.4649 -0.8853
vn -0.0038 -0.4634 -0.8861
vn -0.0043 0.0000 -1.0000
vn -0.9843 -0.0491 0.1695
vn 0.0035 0.5655 0.8247
vn 0.0039 -0.4950 0.8689
vn -0.0036 0.5359 -0.8443
vn -0.0028 -0.7899 -0.6132
vn 0.7530 0.0348 -0.6571
vn 0.5037 -0.0000 0.8639
vn -0.0036 0.5368 -0.8437
vn -0.0039 -0.4767 -0.8790
vn 0.0034 0.6161 0.7877
vn 0.0037 -0.5465 0.8374
vn -0.0037 -0.5305 -0.8477
vn -0.0036 0.5273 -0.8497
vn 0.0034 0.6169 0.7870
vn 0.5147 0.0217 -0.8571
vn -0.0035 0.5924 -0.8056
vn -0.3197 -0.0211 -0.9473
vn 0.0022 -0.8538 0.5207
vn 0.0037 0.5570 0.8305
vn 0.0038 -0.4920 0.8706
vn -0.0040 -0.4687 -0.8833
f 9/1/1 21/2/2 23/3/3
f 8/4/4 48/5/5 46/6/6
f 7/7/7 8/8/7 9/9/7
f 38/10/8 9/9/9 23/11/10
f 75/12/11 79/13/11 72/14/11
f 35/15/12 34/16/12 56/17/12
f 18/18/13 19/19/13 20/20/13
f 21/2/14 22/21/14 23/3/14
f 24/22/15 25/23/15 26/24/15
f 43/25/16 8/4/17 44/26/18
f 42/27/19 47/28/19 46/29/19
f 16/30/20 15/31/20 13/32/20
f 35/15/21 36/33/21 37/34/21
f 3/35/22 5/36/22 1/37/22
f 31/38/23 37/34/23 32/39/23
f 19/40/24 39/41/24 20/42/24
f 39/41/25 12/43/26 20/42/27
f 18/18/23 14/44/23 17/45/23
f 40/46/11 16/47/11 13/48/11
f 41/49/28 11/50/29 42/51/30
f 5/52/31 49/53/32 50/54/33
f 35/55/11 33/56/11 30/57/11
f 12/58/34 18/18/35 20/20/36
f 32/39/37 36/33/38 28/59/39
f 48/60/40 39/41/40 41/61/40
f 11/62/41 15/31/41 12/58/41
f 27/63/42 28/64/43 29/65/44
f 46/6/11 41/49/11 42/51/11
f 1/66/45 24/22/46 26/24/47
f 45/67/48 14/44/48 16/30/48
f 8/68/49 47/28/49 9/1/49
f 36/69/50 52/70/51 53/71/52
f 54/72/53 30/57/54 55/73/55
f 6/74/56 53/71/56 52/70/56
f 51/75/23 38/10/23 24/22/23
f 71/76/57 70/77/57 66/78/57
f 22/79/58 38/10/58 23/11/58
f 27/63/59 2/80/59 4/81/59
f 5/82/60 51/75/60 1/66/60
f 10/83/61 11/84/61 12/43/61
f 33/85/62 32/39/62 30/86/62
f 49/87/63 38/10/63 43/88/63
f 25/89/64 2/80/64 26/90/64
f 2/80/23 53/71/23 3/35/23
f 47/28/23 39/41/23 21/2/23
f 36/69/1 29/65/65 28/64/66
f 54/72/67 27/91/68 52/92/69
f 52/92/11 4/93/11 6/94/11
f 60/95/11 64/96/11 57/97/11
f 1/37/70 2/80/71 3/35/72
f 4/93/73 5/52/74 6/94/75
f 44/98/76 51/75/76 50/99/76
f 28/59/77 30/86/77 32/39/77
f 71/100/78 67/101/78 65/102/78
f 88/103/79 67/101/79 68/104/79
f 87/105/78 82/106/78 80/107/78
f 88/103/11 71/108/11 65/102/11
f 80/107/79 84/109/79 83/110/79
f 88/103/80 70/77/80 69/111/80
f 64/96/57 63/112/57 58/113/57
f 11/50/81 40/46/82 13/48/83
f 56/17/84 31/38/84 33/85/84
f 57/114/79 61/115/79 60/116/79
f 64/96/78 59/117/78 57/114/78
f 75/12/80 78/118/80 77/119/80
f 83/110/80 86/120/80 85/121/80
f 83/122/11 87/105/11 80/123/11
f 72/14/79 76/124/79 75/12/79
f 79/13/78 74/125/78 72/14/78
f 87/105/57 86/126/57 81/127/57
f 60/116/80 63/128/80 62/129/80
f 43/25/11 50/54/11 49/53/11
f 79/13/57 78/130/57 73/131/57
f 7/7/7 44/98/7 8/8/7
f 18/18/13 40/132/13 19/19/13
f 21/2/14 48/60/14 22/21/14
f 24/22/15 49/87/15 25/23/15
f 35/15/85 54/133/85 36/33/85
f 3/35/22 6/74/22 5/36/22
f 31/38/23 34/16/23 37/34/23
f 39/41/25 10/83/86 12/43/26
f 18/18/23 15/31/23 14/44/23
f 40/46/11 45/134/11 16/47/11
f 41/49/28 19/135/87 11/50/29
f 35/55/11 56/136/11 33/56/11
f 11/62/41 13/32/41 15/31/41
f 8/68/49 46/29/49 47/28/49
f 22/79/58 43/88/58 38/10/58
f 5/82/60 50/99/60 51/75/60
f 25/89/64 4/81/64 2/80/64
f 36/69/1 53/71/88 29/65/65
f 54/72/67 55/73/89 27/91/68
f 28/59/90 55/137/90 30/86/90
f 40/132/91 17/45/91 45/67/91
f 9/1/1 47/28/92 21/2/2
f 8/4/4 22/138/93 48/5/5
f 38/10/8 7/7/94 9/9/9
f 75/12/11 77/139/11 79/13/11
f 35/15/12 37/34/12 34/16/12
f 43/25/16 22/138/95 8/4/17
f 42/27/19 10/83/19 47/28/19
f 16/30/20 14/44/20 15/31/20
f 19/40/24 41/61/24 39/41/24
f 5/52/31 25/140/96 49/53/32
f 12/58/34 15/31/97 18/18/35
f 32/39/37 37/34/98 36/33/38
f 48/60/40 21/2/40 39/41/40
f 27/63/42 55/141/99 28/64/43
f 46/6/11 48/5/11 41/49/11
f 1/66/45 51/75/100 24/22/46
f 45/67/48 17/45/48 14/44/48
f 36/69/50 54/142/101 52/70/51
f 54/72/53 35/55/102 30/57/54
f 6/74/56 3/35/56 53/71/56
f 51/75/23 7/7/23 38/10/23
f 71/76/57 69/111/57 70/77/57
f 27/63/59 29/65/59 2/80/59
f 10/83/61 42/27/61 11/84/61
f 33/85/62 31/38/62 32/39/62
f 49/87/63 24/22/63 38/10/63
f 2/80/23 29/65/23 53/71/23
f 47/28/23 10/83/23 39/41/23
f 52/92/11 27/91/11 4/93/11
f 60/95/11 62/143/11 64/96/11
f 1/37/70 26/90/103 2/80/71
f 4/93/73 25/140/104 5/52/74
f 44/98/76 7/7/76 51/75/76
f 71/100/78 66/144/78 67/101/78
f 88/103/79 65/102/79 67/101/79
f 87/105/78 81/127/78 82/106/78
f 88/103/11 69/111/11 71/108/11
f 80/107/79 82/106/79 84/109/79
f 88/103/80 68/104/80 70/77/80
f 64/96/57 62/143/57 63/112/57
f 11/50/81 19/135/105 40/46/82
f 56/17/84 34/16/84 31/38/84
f 57/114/79 59/117/79 61/115/79
f 64/96/78 58/113/78 59/117/78
f 75/12/80 76/124/80 78/118/80
f 83/110/80 84/109/80 86/120/80
f 83/122/11 85/145/11 87/105/11
f 72/14/79 74/125/79 76/124/79
f 79/13/78 73/131/78 74/125/78
f 87/105/57 85/145/57 86/126/57
f 60/116/80 61/115/80 63/128/80
f 43/25/11 44/26/11 50/54/11
f 79/13/57 77/146/57 78/130/57
f 40/132/91 18/18/91 17/45/91
