# Blender v2.79 (sub 0) OBJ File: 'Assets.blend'
# www.blender.org
mtllib smallplant.mtl
o Cylinder
v 0.004452 -0.028466 0.156497
v 0.004452 -0.239708 0.118170
v -0.111692 -0.028466 0.108388
v -0.084591 -0.239708 0.081287
v -0.159801 -0.028466 -0.007756
v -0.121474 -0.239708 -0.007756
v -0.111692 -0.028466 -0.123900
v -0.084591 -0.239708 -0.096800
v 0.004452 -0.028466 -0.172009
v 0.004452 -0.239708 -0.133683
v 0.120596 -0.028466 -0.123900
v 0.093495 -0.239708 -0.096800
v 0.168705 -0.028466 -0.007756
v 0.130378 -0.239708 -0.007756
v 0.120596 -0.028466 0.108388
v 0.093495 -0.239708 0.081287
v 0.004452 -0.028466 0.209573
v -0.149223 -0.028466 0.145919
v -0.212877 -0.028466 -0.007756
v -0.149223 -0.028466 -0.161431
v 0.004452 -0.028466 -0.225085
v 0.158127 -0.028466 -0.161431
v 0.221781 -0.028466 -0.007756
v 0.158127 -0.028466 0.145918
v 0.004452 0.026568 0.156497
v -0.111692 0.026568 0.108388
v -0.159801 0.026568 -0.007756
v -0.111692 0.026568 -0.123900
v 0.004452 0.026568 -0.172009
v 0.120596 0.026568 -0.123900
v 0.168705 0.026568 -0.007756
v 0.120596 0.026568 0.108388
v 0.004452 0.026568 0.209573
v -0.149223 0.026568 0.145919
v -0.212877 0.026568 -0.007756
v -0.149223 0.026568 -0.161431
v 0.004452 0.026568 -0.225085
v 0.158127 0.026568 -0.161431
v 0.221781 0.026568 -0.007756
v 0.158127 0.026568 0.145918
v -0.058511 -0.239708 0.018324
v -0.021628 -0.239708 -0.070719
v 0.030532 -0.239708 0.055207
v 0.067415 -0.239708 -0.033836
v 0.004316 -0.028466 -0.022529
v 0.004316 0.153024 -0.022529
v 0.020924 -0.028466 -0.015651
v 0.020924 0.153024 -0.015651
v 0.027803 -0.028466 0.000957
v 0.027803 0.153024 0.000957
v 0.020924 -0.028466 0.017564
v 0.020924 0.153024 0.017564
v 0.004316 -0.028466 0.024443
v 0.004316 0.153024 0.024443
v -0.012291 -0.028466 0.017564
v -0.012291 0.153024 0.017564
v -0.019170 -0.028466 0.000957
v -0.019170 0.153024 0.000957
v -0.012291 -0.028466 -0.015651
v -0.012291 0.153024 -0.015651
v 0.005432 0.341443 -0.194087
v 0.005432 0.533885 -0.001645
v 0.057507 0.519236 -0.053719
v 0.101653 0.477520 -0.097866
v 0.131151 0.415087 -0.127364
v 0.141509 0.341443 -0.137722
v 0.131151 0.267799 -0.127364
v 0.101653 0.205366 -0.097866
v 0.057507 0.163650 -0.053719
v 0.079077 0.519236 -0.001645
v 0.141509 0.477520 -0.001645
v 0.183226 0.415087 -0.001645
v 0.197874 0.341443 -0.001645
v 0.183226 0.267799 -0.001645
v 0.141509 0.205366 -0.001645
v 0.079077 0.163650 -0.001645
v 0.057507 0.519236 0.050429
v 0.101653 0.477520 0.094576
v 0.131151 0.415087 0.124074
v 0.141509 0.341443 0.134432
v 0.131151 0.267799 0.124074
v 0.101653 0.205366 0.094576
v 0.057507 0.163650 0.050429
v 0.005432 0.519236 0.071999
v 0.005432 0.477520 0.134432
v 0.005432 0.415087 0.176148
v 0.005432 0.341443 0.190797
v 0.005432 0.267799 0.176148
v 0.005432 0.205366 0.134432
v 0.005432 0.163650 0.071999
v -0.046642 0.519236 0.050429
v -0.090789 0.477520 0.094576
v -0.120286 0.415087 0.124074
v -0.130645 0.341443 0.134432
v -0.120286 0.267799 0.124074
v -0.090789 0.205366 0.094576
v -0.046642 0.163650 0.050429
v -0.068212 0.519236 -0.001645
v -0.130645 0.477520 -0.001645
v -0.172361 0.415087 -0.001645
v -0.187010 0.341443 -0.001645
v -0.172361 0.267799 -0.001645
v -0.130645 0.205366 -0.001645
v -0.068212 0.163650 -0.001645
v -0.046642 0.519236 -0.053719
v -0.090789 0.477520 -0.097866
v -0.120286 0.415087 -0.127364
v -0.130645 0.341443 -0.137722
v -0.120286 0.267799 -0.127364
v -0.090789 0.205366 -0.097866
v -0.046642 0.163650 -0.053719
v 0.005432 0.519236 -0.075289
v 0.005432 0.477520 -0.137722
v 0.005432 0.415087 -0.179438
v 0.005432 0.267799 -0.179438
v 0.005432 0.205366 -0.137722
v 0.005432 0.163650 -0.075289
vt 0.381525 0.782848
vt 0.400504 0.996201
vt 0.481201 0.985398
vt 0.443393 0.774566
vt 0.560623 0.967487
vt 0.504283 0.760834
vt 0.638146 0.942609
vt 0.074619 0.741761
vt 0.000188 0.942609
vt 0.077711 0.967487
vt 0.134052 0.760834
vt 0.157134 0.985398
vt 0.194942 0.774565
vt 0.237831 0.996201
vt 0.982553 0.388026
vt 0.982553 0.281913
vt 0.929497 0.334970
vt 0.256810 0.782848
vt 0.319167 0.999812
vt 0.319167 0.785616
vt 0.217211 0.621594
vt 0.214352 0.672017
vt 0.293480 0.681691
vt 0.000188 0.595609
vt 0.011183 0.617510
vt 0.076779 0.614128
vt 0.483301 0.638289
vt 0.477790 0.706397
vt 0.584954 0.722141
vt 0.742007 0.618166
vt 0.742007 0.525377
vt 0.597675 0.541041
vt 0.594347 0.603368
vt 0.486621 0.544472
vt 0.012139 0.661788
vt 0.077178 0.660384
vt 0.483072 0.600756
vt 0.388114 0.547083
vt 0.385009 0.598034
vt 0.299246 0.549688
vt 0.144325 0.617775
vt 0.142660 0.664419
vt 0.216597 0.594073
vt 0.297156 0.626140
vt 0.592776 0.647593
vt 0.075495 0.591556
vt 0.296617 0.595794
vt 0.385444 0.631632
vt 0.712484 0.667889
vt 0.078508 0.555174
vt 0.000685 0.546590
vt 0.143659 0.592655
vt 0.145939 0.554599
vt 0.218869 0.552311
vt 0.699475 0.741384
vt 0.380962 0.693091
vt 0.714691 0.476245
vt 0.594949 0.497446
vt 0.486405 0.505636
vt 0.388084 0.511996
vt 0.299129 0.517961
vt 0.218713 0.523643
vt 0.146059 0.528714
vt 0.080330 0.531637
vt 0.014826 0.522514
vt 0.907520 0.206880
vt 0.801408 0.206880
vt 0.854464 0.259937
vt 0.779431 0.334970
vt 0.854464 0.410003
vt 0.907521 0.463059
vt 0.726375 0.281913
vt 0.726375 0.388026
vt 0.801408 0.463059
vt 0.895690 0.866286
vt 0.917810 0.866286
vt 0.917809 0.518990
vt 0.873571 0.866286
vt 0.895690 0.518990
vt 0.851452 0.866286
vt 0.873571 0.518990
vt 0.829333 0.866286
vt 0.851451 0.518990
vt 0.807214 0.866286
vt 0.829332 0.518991
vt 0.785095 0.866286
vt 0.807212 0.518991
vt 0.654118 0.139176
vt 0.711688 0.196746
vt 0.748816 0.107340
vt 0.762976 0.866286
vt 0.785093 0.518991
vt 0.939929 0.866286
vt 0.939929 0.518990
vt 0.654118 0.057759
vt 0.740584 0.099108
vt 0.793105 0.196746
vt 0.760458 0.107340
vt 0.850675 0.139176
vt 0.768690 0.099108
vt 0.850675 0.057759
vt 0.768690 0.087467
vt 0.793105 0.000188
vt 0.760458 0.079235
vt 0.711688 0.000188
vt 0.748816 0.079235
vt 0.740584 0.087467
vt 0.427763 0.068533
vt 0.346524 0.046371
vt 0.400357 0.100155
vt 0.413215 0.349531
vt 0.464661 0.385237
vt 0.503330 0.327932
vt 0.441779 0.249106
vt 0.522283 0.256432
vt 0.515395 0.181069
vt 0.426011 0.146256
vt 0.482525 0.114970
vt 0.382700 0.395451
vt 0.412454 0.425644
vt 0.432612 0.301212
vt 0.381584 0.243752
vt 0.439614 0.196234
vt 0.379286 0.158097
vt 0.349099 0.378736
vt 0.376054 0.287481
vt 0.382622 0.200398
vt 0.371212 0.114464
vt 0.314447 0.372181
vt 0.365887 0.331158
vt 0.324947 0.279699
vt 0.337393 0.158319
vt 0.342541 0.117028
vt 0.333160 0.197672
vt 0.297016 0.148573
vt 0.314954 0.109443
vt 0.273652 0.321743
vt 0.320500 0.322669
vt 0.276594 0.230840
vt 0.329076 0.238128
vt 0.278800 0.374352
vt 0.272893 0.275439
vt 0.220961 0.329826
vt 0.216476 0.220020
vt 0.284695 0.188339
vt 0.255874 0.126438
vt 0.212687 0.274581
vt 0.231506 0.169606
vt 0.289558 0.090662
vt 0.213313 0.083857
vt 0.205599 0.415341
vt 0.242319 0.386502
vt 0.131893 0.279804
vt 0.165964 0.132965
vt 0.270111 0.057291
vt 0.155802 0.354232
vt 0.066084 0.419607
vt 0.000188 0.302969
vt 0.136047 0.201604
vt 0.073410 0.053734
vt 0.268395 0.004645
vt 0.004139 0.165067
vt 0.443190 0.005421
vt 0.519169 0.457951
vt 0.605683 0.388177
vt 0.653741 0.271061
vt 0.636652 0.139330
vt 0.555949 0.038923
vt 0.428757 0.475868
vt 0.291657 0.423247
vt 0.252258 0.469273
vt 0.257932 0.446200
vt 0.312505 0.423468
vt 0.364252 0.452429
vt 0.369258 0.471691
vt 0.332173 0.428852
vt 0.348983 0.439456
vt 0.271277 0.428772
vt 0.563716 0.741761
vt 0.762974 0.518991
vt 0.174524 0.475868
vt 0.174702 0.000188
vn -0.0000 -0.1785 0.9839
vn -0.6957 -0.1785 0.6957
vn -0.9839 -0.1785 -0.0000
vn -0.6957 -0.1785 -0.6957
vn 0.0000 -0.1785 -0.9839
vn 0.6957 -0.1785 -0.6957
vn 0.9839 -0.1785 0.0000
vn 0.0000 -1.0000 0.0000
vn 0.6957 -0.1785 0.6957
vn -1.0000 0.0000 0.0000
vn -0.7071 0.0000 -0.7071
vn 0.0000 1.0000 0.0000
vn 0.7071 0.0000 -0.7071
vn 1.0000 0.0000 0.0000
vn -0.7071 0.0000 0.7071
vn 0.7071 0.0000 0.7071
vn -0.0000 0.0000 1.0000
vn 0.0000 0.0000 -1.0000
vn -0.0000 0.9063 -0.4226
vn 0.2988 0.9063 -0.2988
vn 0.5159 -0.6839 -0.5159
vn -0.0000 -0.6839 -0.7296
vn -0.0000 -0.3668 -0.9303
vn -0.0000 0.3668 -0.9303
vn 0.5159 0.6839 -0.5159
vn -0.0000 0.6839 -0.7296
vn 0.2992 -0.9060 -0.2996
vn 0.0003 -0.9059 -0.4234
vn 0.6578 -0.3668 -0.6578
vn 0.6578 0.3668 -0.6578
vn 0.7296 0.6839 0.0000
vn 0.4253 -0.9050 -0.0007
vn 0.9303 -0.3668 0.0000
vn 0.9303 0.3668 0.0000
vn 0.4226 0.9063 -0.0000
vn 0.3035 -0.9036 0.3023
vn 0.7296 -0.6839 0.0000
vn 0.6578 -0.3668 0.6578
vn 0.5159 0.6839 0.5159
vn 0.2988 0.9063 0.2988
vn 0.6578 0.3668 0.6578
vn -0.0000 0.6839 0.7296
vn 0.0000 0.9063 0.4226
vn -0.0000 -0.6839 0.7296
vn 0.5159 -0.6839 0.5159
vn 0.0004 -0.9025 0.4307
vn 0.0000 -0.3668 0.9303
vn -0.5159 -0.6839 0.5159
vn 0.0000 0.3668 0.9303
vn -0.5159 0.6839 0.5159
vn -0.6578 -0.3668 0.6578
vn -0.6578 0.3668 0.6578
vn -0.2988 0.9063 0.2988
vn -0.7296 0.6839 -0.0000
vn -0.4285 -0.9036 -0.0008
vn -0.3048 -0.9025 0.3044
vn -0.9303 -0.3668 -0.0000
vn -0.9303 0.3668 0.0000
vn -0.4226 0.9063 0.0000
vn -0.7296 -0.6839 -0.0000
vn -0.5159 -0.6839 -0.5159
vn -0.6578 -0.3668 -0.6578
vn -0.6578 0.3668 -0.6578
vn -0.2988 0.9063 -0.2988
vn -0.5159 0.6839 -0.5159
vn -0.3003 -0.9050 -0.3013
vn -0.0019 -0.9759 0.2181
vn -0.1465 -0.9791 -0.1411
vn -0.2120 -0.9773 0.0041
vn 0.1467 -0.9773 0.1527
vn -0.0015 -0.9803 -0.1975
vn 0.2031 -0.9791 0.0038
vn 0.1406 -0.9803 -0.1385
vn -0.1531 -0.9759 0.1556
usemtl None
s 1
f 2/1/1 1/2/1 3/3/2
f 4/4/2 3/3/2 5/5/3
f 6/6/3 5/5/3 7/7/4
f 8/8/4 7/9/4 9/10/5
f 10/11/5 9/10/5 11/12/6
f 12/13/6 11/12/6 13/14/7
f 4/15/8 6/16/8 41/17/8
f 14/18/7 13/14/7 15/19/9
f 16/20/9 15/19/9 1/2/1
f 31/21/10 13/22/10 15/23/11
f 36/24/12 28/25/12 29/26/12
f 26/27/13 3/28/13 5/29/14
f 36/30/11 20/31/11 19/32/10
f 35/33/10 19/32/10 18/34/15
f 28/25/16 7/35/16 9/36/17
f 34/37/15 18/34/15 17/38/17
f 33/39/17 17/38/17 24/40/16
f 30/41/15 11/42/15 13/22/10
f 39/43/12 31/21/12 32/44/12
f 34/37/12 26/27/12 27/45/12
f 37/46/12 29/26/12 30/41/12
f 40/47/12 32/44/12 25/48/12
f 33/39/12 25/48/12 26/27/12
f 35/33/12 27/45/12 28/49/12
f 30/41/12 31/21/12 39/43/12
f 37/46/18 21/50/18 20/51/11
f 29/26/17 9/36/17 11/42/15
f 38/52/13 22/53/13 21/50/18
f 39/43/14 23/54/14 22/53/13
f 27/45/14 5/29/14 7/55/16
f 32/44/11 15/23/11 1/56/18
f 25/48/18 1/56/18 3/28/13
f 40/47/16 24/40/16 23/54/14
f 7/57/8 5/58/8 19/32/8
f 5/58/8 3/59/8 18/34/8
f 3/59/8 1/60/8 17/38/8
f 1/60/8 15/61/8 24/40/8
f 15/61/8 13/62/8 23/54/8
f 13/62/8 11/63/8 22/53/8
f 11/63/8 9/64/8 21/50/8
f 9/64/8 7/65/8 20/51/8
f 41/17/8 6/16/8 8/66/8
f 8/66/8 10/67/8 42/68/8
f 42/68/8 44/69/8 43/70/8
f 41/17/8 43/70/8 2/71/8
f 42/68/8 10/67/8 12/72/8
f 43/70/8 44/69/8 14/73/8
f 43/70/8 16/74/8 2/71/8
f 12/72/8 14/73/8 44/69/8
f 47/75/13 45/76/18 46/77/18
f 49/78/14 47/75/13 48/79/13
f 51/80/16 49/78/14 50/81/14
f 53/82/17 51/80/16 52/83/16
f 55/84/15 53/82/17 54/85/17
f 57/86/10 55/84/15 56/87/15
f 11/88/12 9/89/12 45/90/12
f 59/91/11 57/86/10 58/92/10
f 45/76/18 59/93/11 60/94/11
f 13/95/12 11/88/12 47/96/12
f 7/97/12 59/98/12 45/90/12
f 5/99/12 57/100/12 59/98/12
f 3/101/12 55/102/12 57/100/12
f 1/103/12 53/104/12 55/102/12
f 1/103/12 15/105/12 51/106/12
f 15/105/12 13/95/12 49/107/12
f 112/108/19 62/109/12 63/110/20
f 68/111/21 116/112/22 115/113/23
f 66/114/13 61/115/18 114/116/24
f 64/117/25 113/118/26 112/108/19
f 69/119/27 117/120/28 116/112/22
f 67/121/29 115/113/23 61/115/18
f 114/116/24 113/118/26 64/117/25
f 73/122/14 66/114/13 65/123/30
f 71/124/31 64/117/25 63/110/20
f 76/125/32 69/119/27 68/111/21
f 74/126/33 67/121/29 66/114/13
f 72/127/34 65/123/30 64/117/25
f 63/110/20 62/109/12 70/128/35
f 68/111/21 67/121/29 74/126/33
f 83/129/36 76/125/32 75/130/37
f 81/131/38 74/126/33 73/122/14
f 72/127/34 71/124/31 78/132/39
f 70/128/35 62/109/12 77/133/40
f 75/130/37 74/126/33 81/131/38
f 73/122/14 72/127/34 79/134/41
f 71/124/31 70/128/35 77/133/40
f 79/134/41 78/132/39 85/135/42
f 77/133/40 62/109/12 84/136/43
f 89/137/44 82/138/45 81/131/38
f 87/139/17 80/140/16 79/134/41
f 85/135/42 78/132/39 77/133/40
f 90/141/46 83/129/36 82/138/45
f 88/142/47 81/131/38 80/140/16
f 96/143/48 89/137/44 88/142/47
f 94/144/15 87/139/17 86/145/49
f 92/146/50 85/135/42 84/136/43
f 90/141/46 89/137/44 96/143/48
f 95/147/51 88/142/47 87/139/17
f 93/148/52 86/145/49 85/135/42
f 84/136/43 62/109/12 91/149/53
f 99/150/54 92/146/50 91/149/53
f 104/151/55 97/152/56 96/143/48
f 102/153/57 95/147/51 94/144/15
f 100/154/58 93/148/52 92/146/50
f 91/149/53 62/109/12 98/155/59
f 96/143/48 95/147/51 102/153/57
f 94/144/15 93/148/52 100/154/58
f 104/151/55 103/156/60 110/157/61
f 109/158/62 102/153/57 101/159/10
f 107/160/63 100/154/58 99/150/54
f 98/155/59 62/109/12 105/161/64
f 103/156/60 102/153/57 109/158/62
f 108/162/11 101/159/10 100/154/58
f 99/150/54 98/155/59 105/161/64
f 105/163/64 62/109/12 112/108/19
f 110/164/61 109/165/62 115/113/23
f 108/166/11 107/167/63 114/116/24
f 113/118/26 106/168/65 105/163/64
f 111/169/66 110/164/61 116/112/22
f 115/113/23 109/165/62 108/166/11
f 114/116/24 107/167/63 106/168/65
f 54/170/67 90/141/46 97/152/56
f 60/171/68 58/172/69 104/151/55
f 52/173/70 83/129/36 90/141/46
f 46/174/71 60/175/68 111/169/66
f 50/176/72 76/125/32 83/129/36
f 48/177/73 69/119/27 76/125/32
f 58/172/69 56/178/74 97/152/56
f 48/177/73 46/174/71 117/120/28
f 2/1/1 3/3/2 4/4/2
f 4/4/2 5/5/3 6/6/3
f 6/6/3 7/7/4 8/179/4
f 8/8/4 9/10/5 10/11/5
f 10/11/5 11/12/6 12/13/6
f 12/13/6 13/14/7 14/18/7
f 14/18/7 15/19/9 16/20/9
f 16/20/9 1/2/1 2/1/1
f 31/21/10 15/23/11 32/44/11
f 36/24/12 29/26/12 37/46/12
f 26/27/13 5/29/14 27/45/14
f 36/30/11 19/32/10 35/33/10
f 35/33/10 18/34/15 34/37/15
f 28/25/16 9/36/17 29/26/17
f 34/37/15 17/38/17 33/39/17
f 33/39/17 24/40/16 40/47/16
f 30/41/15 13/22/10 31/21/10
f 39/43/12 32/44/12 40/47/12
f 34/37/12 27/45/12 35/33/12
f 37/46/12 30/41/12 38/52/12
f 40/47/12 25/48/12 33/39/12
f 33/39/12 26/27/12 34/37/12
f 35/33/12 28/49/12 36/30/12
f 30/41/12 39/43/12 38/52/12
f 37/46/18 20/51/11 36/24/11
f 29/26/17 11/42/15 30/41/15
f 38/52/13 21/50/18 37/46/18
f 39/43/14 22/53/13 38/52/13
f 27/45/14 7/55/16 28/49/16
f 32/44/11 1/56/18 25/48/18
f 25/48/18 3/28/13 26/27/13
f 40/47/16 23/54/14 39/43/14
f 7/57/8 19/32/8 20/31/8
f 5/58/8 18/34/8 19/32/8
f 3/59/8 17/38/8 18/34/8
f 1/60/8 24/40/8 17/38/8
f 15/61/8 23/54/8 24/40/8
f 13/62/8 22/53/8 23/54/8
f 11/63/8 21/50/8 22/53/8
f 9/64/8 20/51/8 21/50/8
f 41/17/8 8/66/8 42/68/8
f 42/68/8 43/70/8 41/17/8
f 41/17/8 2/71/8 4/15/8
f 42/68/8 12/72/8 44/69/8
f 43/70/8 14/73/8 16/74/8
f 47/75/13 46/77/18 48/79/13
f 49/78/14 48/79/13 50/81/14
f 51/80/16 50/81/14 52/83/16
f 53/82/17 52/83/16 54/85/17
f 55/84/15 54/85/17 56/87/15
f 57/86/10 56/87/15 58/92/10
f 11/88/12 45/90/12 47/96/12
f 59/91/11 58/92/10 60/180/11
f 45/76/18 60/94/11 46/77/18
f 13/95/12 47/96/12 49/107/12
f 7/97/12 45/90/12 9/89/12
f 5/99/12 59/98/12 7/97/12
f 3/101/12 57/100/12 5/99/12
f 1/103/12 55/102/12 3/101/12
f 1/103/12 51/106/12 53/104/12
f 15/105/12 49/107/12 51/106/12
f 68/111/21 115/113/23 67/121/29
f 66/114/13 114/116/24 65/123/30
f 64/117/25 112/108/19 63/110/20
f 69/119/27 116/112/22 68/111/21
f 67/121/29 61/115/18 66/114/13
f 114/116/24 64/117/25 65/123/30
f 73/122/14 65/123/30 72/127/34
f 71/124/31 63/110/20 70/128/35
f 76/125/32 68/111/21 75/130/37
f 74/126/33 66/114/13 73/122/14
f 72/127/34 64/117/25 71/124/31
f 68/111/21 74/126/33 75/130/37
f 83/129/36 75/130/37 82/138/45
f 81/131/38 73/122/14 80/140/16
f 72/127/34 78/132/39 79/134/41
f 75/130/37 81/131/38 82/138/45
f 73/122/14 79/134/41 80/140/16
f 71/124/31 77/133/40 78/132/39
f 79/134/41 85/135/42 86/145/49
f 89/137/44 81/131/38 88/142/47
f 87/139/17 79/134/41 86/145/49
f 85/135/42 77/133/40 84/136/43
f 90/141/46 82/138/45 89/137/44
f 88/142/47 80/140/16 87/139/17
f 96/143/48 88/142/47 95/147/51
f 94/144/15 86/145/49 93/148/52
f 92/146/50 84/136/43 91/149/53
f 90/141/46 96/143/48 97/152/56
f 95/147/51 87/139/17 94/144/15
f 93/148/52 85/135/42 92/146/50
f 99/150/54 91/149/53 98/155/59
f 104/151/55 96/143/48 103/156/60
f 102/153/57 94/144/15 101/159/10
f 100/154/58 92/146/50 99/150/54
f 96/143/48 102/153/57 103/156/60
f 94/144/15 100/154/58 101/159/10
f 104/151/55 110/157/61 111/181/66
f 109/158/62 101/159/10 108/162/11
f 107/160/63 99/150/54 106/182/65
f 103/156/60 109/158/62 110/157/61
f 108/162/11 100/154/58 107/160/63
f 99/150/54 105/161/64 106/182/65
f 110/164/61 115/113/23 116/112/22
f 108/166/11 114/116/24 61/115/18
f 113/118/26 105/163/64 112/108/19
f 111/169/66 116/112/22 117/120/28
f 115/113/23 108/166/11 61/115/18
f 114/116/24 106/168/65 113/118/26
f 54/170/67 97/152/56 56/178/74
f 60/171/68 104/151/55 111/181/66
f 52/173/70 90/141/46 54/170/67
f 46/174/71 111/169/66 117/120/28
f 50/176/72 83/129/36 52/173/70
f 48/177/73 76/125/32 50/176/72
f 58/172/69 97/152/56 104/151/55
f 48/177/73 117/120/28 69/119/27
