# Blender v2.79 (sub 0) OBJ File: 'Assets.blend'
# www.blender.org
mtllib table.mtl
o Cube_Cube.001
v 0.982243 0.439399 1.056517
v 0.982243 0.328340 1.056517
v 0.982243 0.439399 -1.011056
v 0.982243 0.328340 -1.011056
v 0.702225 0.328340 -0.731506
v 0.702225 -0.430996 -0.731506
v 0.702225 0.328340 -0.869438
v 0.702225 -0.430996 -0.867918
v 0.838637 0.328340 -0.731506
v 0.838637 -0.430996 -0.731506
v 0.838637 0.328340 -0.869438
v 0.838637 -0.430996 -0.867918
v 0.838637 0.439399 -1.011056
v 0.838637 0.328340 -1.011056
v 0.838637 0.439399 1.056517
v 0.838637 0.328340 1.056517
v 0.982243 0.439399 -0.869438
v 0.982243 0.328340 -0.869438
v -0.737739 0.328340 -0.869438
v 0.838637 0.439399 -0.869438
v 0.702225 0.439399 -1.011056
v 0.702225 0.439399 0.920105
v -0.737739 0.328340 -1.011056
v -0.737739 0.439399 -0.869438
v -0.737739 0.328340 1.056517
v -0.737739 0.328340 0.920105
v 0.702225 0.328340 0.920105
v 0.702225 -0.430996 0.920105
v 0.702225 0.328340 0.783692
v 0.702225 -0.430996 0.783692
v 0.838637 0.328340 0.920105
v 0.838637 -0.430996 0.920105
v 0.838637 0.328340 0.783692
v 0.838637 -0.430996 0.783692
v 0.982243 0.328340 0.920105
v 0.838637 0.439399 0.920105
v 0.982243 0.439399 0.920105
v -0.737739 0.439399 1.056517
v -0.737739 0.439399 -1.011056
v -1.017757 0.439399 1.056517
v -1.017757 0.328340 1.056517
v -1.017757 0.439399 -1.011056
v -1.017757 0.328340 -1.011056
v -0.737739 0.328340 -0.731506
v -0.737739 -0.430996 -0.731506
v 0.702225 0.439399 1.056517
v -0.737739 -0.430996 -0.867918
v -0.874151 0.328340 -0.731506
v -0.874151 -0.430996 -0.731506
v -0.874151 0.328340 -0.869438
v -0.874151 -0.430996 -0.867918
v -0.874151 0.439399 -1.011056
v -0.874151 0.328340 -1.011056
v -0.874151 0.439399 1.056517
v -0.874151 0.328340 1.056517
v -1.017757 0.439399 -0.869438
v -1.017757 0.328340 -0.869438
v -0.737739 0.439399 0.920105
v -0.874151 0.439399 -0.869438
v 0.702225 0.328340 -1.011056
v -0.737739 -0.430996 0.920105
v -0.737739 0.328340 0.783692
v -0.737739 -0.430996 0.783692
v -0.874151 0.328340 0.920105
v -0.874151 -0.430996 0.920105
v -0.874151 0.328340 0.783692
v -0.874151 -0.430996 0.783692
v -1.017757 0.328340 0.920105
v -0.874151 0.439399 0.920105
v -1.017757 0.439399 0.920105
v 0.982243 0.439399 -0.731506
v 0.702225 0.328340 1.056517
v 0.702225 0.439399 -0.869438
v -0.737739 0.439399 -0.731506
v 0.982243 0.328340 -0.731506
v 0.838637 0.439399 -0.731506
v -1.017757 0.439399 -0.731506
v -1.017757 0.328340 -0.731506
v -0.874151 0.439399 -0.731506
v 0.702225 0.439399 -0.731506
v 0.982243 0.328340 0.783692
v 0.838637 0.439399 0.783692
v -1.017757 0.328340 0.783692
v -0.874151 0.439399 0.783692
v -0.737739 0.439399 0.783692
v 0.982243 0.439399 0.783692
v -1.017757 0.439399 0.783692
v 0.702225 0.439399 0.783692
vt 0.356285 0.066221
vt 0.298544 0.153685
vt 0.304461 0.154358
vt 0.491417 0.192108
vt 0.323815 0.297618
vt 0.327299 0.312439
vt 0.308702 0.299417
vt 0.309417 0.314056
vt 0.660736 0.000308
vt 0.643602 0.000174
vt 0.643602 0.981981
vt 0.626466 0.000275
vt 0.626466 0.982081
vt 0.609330 0.000379
vt 0.609330 0.982185
vt 0.592195 0.000479
vt 0.626563 0.998657
vt 0.503339 0.183228
vt 0.499160 0.203182
vt 0.522964 0.186146
vt 0.514936 0.174929
vt 0.294206 0.560408
vt 0.122128 0.268735
vt 0.137439 0.275530
vt 0.142758 0.262180
vt 0.211822 0.130446
vt 0.218411 0.133249
vt 0.216982 0.027263
vt 0.360745 0.076569
vt 0.369783 0.076514
vt 0.298864 0.161525
vt 0.307748 0.160482
vt 0.207530 0.137045
vt 0.214870 0.140890
vt 0.293181 0.313469
vt 0.259593 0.555740
vt 0.202412 0.144087
vt 0.211243 0.148570
vt 0.746993 0.980939
vt 0.746993 0.000479
vt 0.729881 0.000583
vt 0.798329 0.980634
vt 0.798329 0.000174
vt 0.781217 0.000275
vt 0.781217 0.980735
vt 0.764105 0.000378
vt 0.764105 0.980839
vt 0.747090 0.997492
vt 0.764202 0.997392
vt 0.200048 0.018020
vt 0.208694 0.029785
vt 0.040387 0.797933
vt 0.040387 0.810563
vt 0.053443 0.810563
vt 0.494849 0.172054
vt 0.483551 0.181522
vt 0.320417 0.284961
vt 0.307929 0.286349
vt 0.206420 0.128001
vt 0.106393 0.258450
vt 0.116975 0.246572
vt 0.024732 0.067753
vt 0.129853 0.255637
vt 0.523315 0.000278
vt 0.523312 0.981957
vt 0.540446 0.981853
vt 0.557581 0.000302
vt 0.540448 0.000174
vt 0.574713 0.000436
vt 0.557578 0.981981
vt 0.591846 0.000564
vt 0.574711 0.982114
vt 0.557440 0.999692
vt 0.012178 0.073434
vt 0.018917 0.053744
vt 0.291309 0.152551
vt 0.350197 0.059711
vt 0.023968 0.504078
vt 0.294513 0.299181
vt 0.006022 0.059401
vt 0.013069 0.040414
vt 0.191889 0.030986
vt 0.199545 0.035966
vt 0.200417 0.131582
vt 0.215333 0.013526
vt 0.290401 0.161076
vt 0.041556 0.509958
vt 0.729532 0.000697
vt 0.712420 0.000564
vt 0.712420 0.981053
vt 0.678197 0.000302
vt 0.661085 0.000174
vt 0.661085 0.980663
vt 0.695308 0.000436
vt 0.678197 0.980791
vt 0.695308 0.980925
vt 0.695185 0.997477
vt 0.712297 0.997605
vt 0.026983 0.797933
vt 0.026983 0.810563
vt 0.040039 0.810563
vt 0.289753 0.169776
vt 0.037126 0.062596
vt 0.032213 0.048381
vt 0.136969 0.244174
vt 0.126384 0.236801
vt 0.359426 0.047923
vt 0.299691 0.170139
vt 0.054558 0.533948
vt 0.050870 0.552399
vt 0.252217 0.592642
vt 0.058245 0.515497
vt 0.255905 0.574191
vt 0.218520 0.000174
vt 0.295853 0.286084
vt 0.193899 0.136902
vt 0.183501 0.029131
vt 0.147795 0.250042
vt 0.013579 0.797933
vt 0.013579 0.810703
vt 0.026634 0.810703
vt 0.310624 0.168355
vt 0.369509 0.061376
vt 0.378081 0.079338
vt 0.000174 0.797934
vt 0.000174 0.810703
vt 0.013230 0.810703
vt 0.009908 0.757342
vt 0.211255 0.797585
vt 0.184855 0.014381
vt 0.181691 0.000174
vt 0.384407 0.066066
vt 0.504714 0.161775
vt 0.394272 0.055787
vt 0.660736 0.982114
vt 0.592194 0.982286
vt 0.643699 0.998556
vt 0.511367 0.194445
vt 0.276448 0.558022
vt 0.729881 0.981043
vt 0.053443 0.797934
vt 0.591843 0.982243
vt 0.574573 0.999826
vt 0.000174 0.046070
vt 0.729532 0.981186
vt 0.040039 0.797933
vt 0.362613 0.034572
vt 0.026634 0.797933
vt 0.013230 0.797933
vt 0.029048 0.034175
vn 0.0000 0.0000 -1.0000
vn 1.0000 0.0000 0.0000
vn 0.0000 1.0000 0.0000
vn -1.0000 0.0000 0.0000
vn -0.0000 -0.0020 -1.0000
vn -0.0000 0.0000 1.0000
vn 0.0000 -1.0000 0.0000
usemtl None
s off
f 14/1/1 13/2/1 3/3/1
f 35/4/2 37/5/2 1/6/2
f 37/5/3 36/7/3 15/8/3
f 5/9/4 7/10/4 8/11/4
f 8/11/5 7/10/5 11/12/5
f 12/13/2 11/12/2 9/14/2
f 10/15/6 9/14/6 5/16/6
f 8/11/7 12/13/7 10/17/7
f 31/18/7 35/4/7 2/19/7
f 72/20/7 27/21/7 31/18/7
f 2/22/6 1/6/6 15/8/6
f 54/23/3 38/24/3 58/25/3
f 52/26/1 39/27/1 23/28/1
f 14/1/7 4/29/7 18/30/7
f 3/3/3 13/2/3 20/31/3
f 4/29/2 3/3/2 17/32/2
f 59/33/3 24/34/3 39/27/3
f 15/8/6 46/35/6 72/36/6
f 79/37/3 74/38/3 24/34/3
f 28/39/4 27/40/4 29/41/4
f 30/42/1 29/43/1 33/44/1
f 34/45/2 33/44/2 31/46/2
f 32/47/6 31/46/6 27/40/6
f 30/48/7 34/49/7 32/47/7
f 50/50/7 53/51/7 23/28/7
f 27/52/7 29/53/7 33/54/7
f 33/55/7 81/56/7 35/4/7
f 86/57/3 82/58/3 36/7/3
f 81/56/2 86/57/2 37/5/2
f 42/59/1 52/26/1 53/51/1
f 40/60/4 70/61/4 68/62/4
f 54/23/3 69/63/3 70/61/3
f 44/64/2 45/65/2 47/66/2
f 50/67/5 19/68/5 47/66/5
f 48/69/4 50/67/4 51/70/4
f 44/71/6 48/69/6 49/72/6
f 49/72/7 51/70/7 47/73/7
f 41/74/7 68/62/7 64/75/7
f 39/27/1 21/76/1 60/77/1
f 54/23/6 40/60/6 41/78/6
f 38/24/3 46/35/3 22/79/3
f 55/80/7 64/75/7 26/81/7
f 57/82/7 43/83/7 53/51/7
f 59/33/3 52/26/3 42/59/3
f 56/84/4 42/59/4 43/83/4
f 19/85/7 23/28/7 60/77/7
f 24/34/3 73/86/3 21/76/3
f 38/24/6 54/23/6 55/87/6
f 62/88/2 26/89/2 61/90/2
f 66/91/1 62/92/1 63/93/1
f 64/94/4 66/91/4 67/95/4
f 26/89/6 64/94/6 65/96/6
f 65/96/7 67/97/7 63/98/7
f 64/99/7 66/100/7 62/101/7
f 74/38/3 80/102/3 73/86/3
f 68/62/7 83/103/7 66/104/7
f 69/63/3 84/105/3 87/106/3
f 70/61/4 87/106/4 83/103/4
f 7/107/7 60/77/7 14/1/7
f 80/102/3 76/108/3 20/31/3
f 73/86/3 20/31/3 13/2/3
f 46/35/3 15/8/3 36/7/3
f 21/76/1 13/2/1 14/1/1
f 26/109/7 62/110/7 29/111/7
f 46/35/6 38/24/6 25/112/6
f 25/112/7 26/109/7 27/113/7
f 44/114/7 19/85/7 7/107/7
f 88/115/3 82/58/3 76/108/3
f 77/116/4 56/84/4 57/82/4
f 79/37/3 59/33/3 56/84/3
f 78/117/7 57/82/7 50/50/7
f 85/118/3 88/115/3 80/102/3
f 48/119/7 50/120/7 19/121/7
f 18/30/2 17/32/2 71/122/2
f 17/32/3 20/31/3 76/108/3
f 11/123/7 18/30/7 75/124/7
f 5/125/7 7/126/7 11/127/7
f 84/105/3 85/118/3 74/38/3
f 69/63/3 58/25/3 85/118/3
f 58/25/3 22/79/3 88/115/3
f 22/79/3 36/7/3 82/58/3
f 62/110/7 44/128/7 5/129/7
f 87/106/4 77/116/4 78/117/4
f 84/105/3 79/37/3 77/116/3
f 83/103/7 78/117/7 48/130/7
f 66/104/7 48/130/7 44/131/7
f 75/124/2 71/122/2 86/57/2
f 71/122/3 76/108/3 82/58/3
f 9/132/7 75/124/7 81/56/7
f 29/133/7 5/134/7 9/132/7
f 14/1/1 3/3/1 4/29/1
f 35/4/2 1/6/2 2/19/2
f 37/5/3 15/8/3 1/6/3
f 5/9/4 8/11/4 6/135/4
f 8/11/5 11/12/5 12/13/5
f 12/13/2 9/14/2 10/15/2
f 10/15/6 5/16/6 6/136/6
f 8/11/7 10/17/7 6/137/7
f 31/18/7 2/19/7 16/138/7
f 72/20/7 31/18/7 16/138/7
f 2/22/6 15/8/6 16/139/6
f 54/23/3 58/25/3 69/63/3
f 52/26/1 23/28/1 53/51/1
f 14/1/7 18/30/7 11/123/7
f 3/3/3 20/31/3 17/32/3
f 4/29/2 17/32/2 18/30/2
f 59/33/3 39/27/3 52/26/3
f 15/8/6 72/36/6 16/139/6
f 79/37/3 24/34/3 59/33/3
f 28/39/4 29/41/4 30/140/4
f 30/42/1 33/44/1 34/45/1
f 34/45/2 31/46/2 32/47/2
f 32/47/6 27/40/6 28/39/6
f 30/48/7 32/47/7 28/39/7
f 50/50/7 23/28/7 19/85/7
f 27/52/7 33/54/7 31/141/7
f 33/55/7 35/4/7 31/18/7
f 86/57/3 36/7/3 37/5/3
f 81/56/2 37/5/2 35/4/2
f 42/59/1 53/51/1 43/83/1
f 40/60/4 68/62/4 41/74/4
f 54/23/3 70/61/3 40/60/3
f 44/64/2 47/66/2 19/68/2
f 50/67/5 47/66/5 51/70/5
f 48/69/4 51/70/4 49/72/4
f 44/71/6 49/72/6 45/142/6
f 49/72/7 47/73/7 45/143/7
f 41/74/7 64/75/7 55/80/7
f 39/27/1 60/77/1 23/28/1
f 54/23/6 41/78/6 55/87/6
f 38/24/3 22/79/3 58/25/3
f 55/80/7 26/81/7 25/144/7
f 57/82/7 53/51/7 50/50/7
f 59/33/3 42/59/3 56/84/3
f 56/84/4 43/83/4 57/82/4
f 19/85/7 60/77/7 7/107/7
f 24/34/3 21/76/3 39/27/3
f 38/24/6 55/87/6 25/112/6
f 62/88/2 61/90/2 63/145/2
f 66/91/1 63/93/1 67/95/1
f 64/94/4 67/95/4 65/96/4
f 26/89/6 65/96/6 61/90/6
f 65/96/7 63/98/7 61/90/7
f 64/99/7 62/101/7 26/146/7
f 74/38/3 73/86/3 24/34/3
f 68/62/7 66/104/7 64/75/7
f 69/63/3 87/106/3 70/61/3
f 70/61/4 83/103/4 68/62/4
f 7/107/7 14/1/7 11/123/7
f 80/102/3 20/31/3 73/86/3
f 73/86/3 13/2/3 21/76/3
f 46/35/3 36/7/3 22/79/3
f 21/76/1 14/1/1 60/77/1
f 26/109/7 29/111/7 27/113/7
f 46/35/6 25/112/6 72/36/6
f 25/112/7 27/113/7 72/36/7
f 44/114/7 7/107/7 5/147/7
f 88/115/3 76/108/3 80/102/3
f 77/116/4 57/82/4 78/117/4
f 79/37/3 56/84/3 77/116/3
f 78/117/7 50/50/7 48/130/7
f 85/118/3 80/102/3 74/38/3
f 48/119/7 19/121/7 44/148/7
f 18/30/2 71/122/2 75/124/2
f 17/32/3 76/108/3 71/122/3
f 11/123/7 75/124/7 9/132/7
f 5/125/7 11/127/7 9/149/7
f 84/105/3 74/38/3 79/37/3
f 69/63/3 85/118/3 84/105/3
f 58/25/3 88/115/3 85/118/3
f 22/79/3 82/58/3 88/115/3
f 62/110/7 5/129/7 29/111/7
f 87/106/4 78/117/4 83/103/4
f 84/105/3 77/116/3 87/106/3
f 83/103/7 48/130/7 66/104/7
f 66/104/7 44/131/7 62/150/7
f 75/124/2 86/57/2 81/56/2
f 71/122/3 82/58/3 86/57/3
f 9/132/7 81/56/7 33/55/7
f 29/133/7 9/132/7 33/55/7
