# Blender v2.79 (sub 0) OBJ File: 'garbage.blend'
# www.blender.org
mtllib table_final_unwrap.mtl
o Cube.006_Cube.000
v -0.654137 1.335114 -0.903892
v 0.595863 1.250197 -0.903893
v -0.654137 1.250197 -0.903893
v 0.595863 1.335114 0.846108
v -0.654137 1.250197 0.846107
v 0.595863 1.250197 0.846107
v -0.654137 1.335114 0.846108
v 0.595863 1.335114 -0.903892
v 0.325706 0.491528 0.145908
v 0.325706 0.434606 0.229700
v 0.325706 0.434606 0.145908
v 0.231071 0.491528 -0.273043
v 0.325706 0.434606 -0.273043
v 0.231071 0.434606 -0.273043
v -0.384508 -0.014886 0.188877
v -0.336742 0.434606 0.229700
v -0.336742 0.434606 0.145910
v -0.336742 0.491528 -0.189253
v -0.336742 0.434606 -0.273043
v -0.336742 0.434606 -0.189253
v -0.242107 0.491528 0.229700
v -0.242107 0.434606 0.229700
v -0.336742 1.250197 -0.189253
v -0.336742 0.491528 -0.273043
v 0.231071 1.250197 0.145910
v 0.231071 0.491528 0.145910
v -0.242107 0.491528 -0.273043
v 0.231071 0.491528 -0.189253
v 0.325706 0.491528 0.229700
v 0.231071 0.434606 0.229700
v 0.231071 0.491528 0.229700
v 0.369924 -0.014886 0.187342
v -0.242107 0.434606 -0.273043
v -0.242107 0.434606 0.145908
v 0.231071 0.434606 -0.189253
v 0.231071 0.434606 0.145908
v -0.242107 0.434606 -0.189253
v -0.288653 -0.014886 -0.231308
v 0.325706 0.434606 -0.189253
v -0.242107 0.491528 0.145910
v -0.336742 1.250197 -0.273043
v 0.325706 0.491528 -0.189253
v -0.336742 1.250197 0.229700
v -0.336742 0.491528 0.145910
v -0.336742 0.491528 0.229700
v -0.242107 0.491528 -0.189253
v 0.280297 -0.014886 -0.232229
v 0.325706 0.491528 -0.273043
v -0.242107 1.250197 0.229700
v -0.242107 1.250197 0.145910
v -0.336742 1.250197 0.145910
v 0.325706 1.250197 -0.189253
v 0.231071 1.250197 0.229700
v 0.231071 1.250197 -0.189253
v 0.325706 1.250197 0.145908
v 0.231071 1.250197 -0.273043
v -0.242107 1.250197 -0.189253
v 0.325706 1.250197 0.229700
v -0.242107 1.250197 -0.273043
v 0.325706 1.250197 -0.273043
v -0.383289 -0.014886 -0.231308
v -0.288653 -0.014886 -0.315098
v 0.374932 -0.014886 -0.316021
v 0.374932 -0.014886 -0.232229
v 0.275289 -0.014886 0.271131
v 0.369924 -0.014886 0.271131
v -0.384508 -0.014886 0.272667
v -0.289872 -0.014886 0.188877
v -0.289872 -0.014886 0.272667
v 0.275289 -0.014886 0.187342
v 0.280297 -0.014886 -0.316021
v -0.383289 -0.014886 -0.315098
vt 0.658472 0.003730
vt 0.634258 0.414280
vt 0.633092 0.003802
vt 0.742467 0.003802
vt 0.718252 0.414352
vt 0.717086 0.003874
vt 0.403502 0.820959
vt 0.000000 0.410480
vt 0.403502 0.410480
vt 0.406991 0.406991
vt -0.003489 0.003489
vt 0.406991 0.003489
vt 0.039657 0.926969
vt 0.002164 0.893952
vt 0.039657 0.893952
vt 0.691705 0.003946
vt 0.718252 0.414352
vt 0.692872 0.414424
vt 0.685020 0.414136
vt 0.659639 0.414208
vt 0.357998 0.965990
vt 0.417270 0.999027
vt 0.357987 0.999006
vt 0.843361 0.053584
vt 0.878565 0.311422
vt 0.841558 0.313875
vt 0.190344 0.858799
vt 0.227836 0.891816
vt 0.190344 0.891816
vt 0.061370 0.963838
vt 0.002087 0.930821
vt 0.061370 0.930821
vt 0.550205 0.440804
vt 0.512712 0.000753
vt 0.550205 0.000752
vt 0.609487 0.440371
vt 0.550205 0.000319
vt 0.609488 0.000319
vt 0.637136 0.994473
vt 0.933550 0.956981
vt 0.933550 0.994473
vt 0.417067 0.963838
vt 0.357783 0.930821
vt 0.417067 0.930821
vt 0.357783 0.963838
vt 0.884198 0.312541
vt 0.914509 0.049967
vt 0.921862 0.314153
vt 0.002301 0.965867
vt 0.061573 0.998904
vt 0.002290 0.998884
vt 0.061584 0.965887
vt 0.633820 0.695593
vt 0.930235 0.545624
vt 0.930235 0.695593
vt 0.633820 0.733085
vt 0.930235 0.733086
vt 0.633820 0.508131
vt 0.633820 0.545624
vt 0.918433 0.311741
vt 0.974613 0.055771
vt 0.977173 0.317713
vt 0.989518 0.545624
vt 0.637136 0.807011
vt 0.933550 0.807011
vt 0.637136 0.769519
vt 0.933550 0.769519
vt 0.512712 0.440804
vt 0.453429 0.000753
vt 0.992833 0.807011
vt 0.992833 0.956981
vt 0.512712 0.440804
vt 0.475220 0.000753
vt 0.512712 0.000753
vt 0.637136 0.956981
vt 0.577853 0.807011
vt 0.002882 0.858799
vt 0.040374 0.891816
vt 0.002882 0.891816
vt 0.040374 0.858799
vt 0.949351 0.317372
vt 0.967312 0.059255
vt 0.986212 0.317373
vt 0.574537 0.545624
vt 0.574537 0.695593
vt 0.227118 0.926969
vt 0.189626 0.893952
vt 0.227118 0.893952
vt 0.189626 0.926969
vt 0.571995 0.440804
vt 0.571995 0.000753
vt 0.609487 0.440804
vt 0.609487 0.000753
vt 0.475220 0.440804
vt 0.415937 0.000753
vt 0.475220 0.440371
vt 0.415937 0.000319
vt 0.475220 0.000319
vt 0.453429 0.440371
vt 0.415937 0.000319
vt 0.453429 0.000319
vt 0.609487 0.440371
vt 0.571995 0.000319
vt 0.609488 0.000319
vt 0.550205 0.440371
vt 0.512712 0.000319
vt 0.571995 0.440371
vt 0.512712 0.000319
vt 0.609488 0.440804
vt 0.609488 0.000752
vt 0.512712 0.440371
vt 0.453429 0.440804
vt 0.415937 0.000753
vt 0.512712 0.440371
vt 0.915873 0.049799
vt 0.823802 0.044431
vt 0.852532 0.004372
vt 0.884200 0.044374
vt 0.914668 0.011080
vt 0.826275 0.079376
vt 0.843380 0.009056
vt 0.876845 0.048355
vt 0.879200 0.071592
vt 0.904942 0.000319
vt 0.936327 0.047609
vt 0.939096 0.317722
vt 0.974739 0.050027
vt 0.977509 0.320140
vt 0.881164 0.309433
vt 0.785235 0.046707
vt 0.820371 0.315436
vt 0.781805 0.317713
vt 0.973938 0.054597
vt 0.981291 0.318784
vt 0.785053 0.059849
vt 0.783250 0.320140
vt 0.811100 0.318658
vt 0.846316 0.046012
vt 0.876238 0.310495
vt 0.838354 0.312133
vt 0.791762 0.063380
vt 0.774586 0.318784
vt 0.932598 0.080084
vt 0.786587 0.051252
vt 0.778625 0.317373
vt 0.659639 0.414208
vt 0.743633 0.414280
vt 0.000000 0.820959
vt -0.003489 0.406991
vt 0.002164 0.926969
vt 0.683853 0.003658
vt 0.417281 0.966010
vt 0.227836 0.858799
vt 0.002087 0.963838
vt 0.930235 0.508131
vt 0.989518 0.695593
vt 0.577853 0.956981
vt 0.415937 0.440805
vt 0.415937 0.440371
vt 0.415937 0.440371
vt 0.415937 0.440805
vt 0.879641 0.074478
vn 0.0000 0.0000 -1.0000
vn 0.0000 -0.0000 1.0000
vn 0.0000 -1.0000 -0.0000
vn 0.0000 1.0000 0.0000
vn 1.0000 0.0000 0.0000
vn -1.0000 0.0000 0.0000
vn -0.9944 0.1057 0.0000
vn 0.9952 0.0979 0.0000
vn 0.0000 -0.0932 0.9957
vn -0.9941 -0.1089 -0.0000
vn 0.9944 -0.1057 0.0000
vn -0.9947 0.1030 0.0000
vn 0.9947 -0.1030 -0.0000
vn 0.0000 0.0932 -0.9957
vn 0.0000 -0.0918 -0.9958
vn -0.0000 -0.0952 -0.9955
vn 0.0000 0.0952 0.9955
vn 0.0000 0.0918 0.9958
vn 0.9941 0.1089 0.0000
vn -0.9952 -0.0979 0.0000
vn 0.0000 0.0952 -0.9955
vn 0.0000 -0.0952 0.9955
usemtl Material.048
s 1
f 1/1/1 2/2/1 3/3/1
f 4/4/2 5/5/2 6/6/2
f 6/7/3 3/8/3 2/9/3
f 7/10/4 8/11/4 1/12/4
f 9/13/5 10/14/5 11/15/5
f 4/16/5 2/17/5 8/18/5
f 1/1/6 5/19/6 7/20/6
f 12/21/1 13/22/1 14/23/1
f 15/24/7 16/25/7 17/26/7
f 18/27/6 19/28/6 20/29/6
f 21/30/2 16/31/2 22/32/2
f 23/33/6 24/34/6 18/35/6
f 25/36/1 9/37/1 26/38/1
f 27/39/4 28/40/4 12/41/4
f 29/42/2 30/43/2 10/44/2
f 21/30/2 30/43/2 31/45/2
f 10/46/8 32/47/8 11/48/8
f 24/49/1 33/50/1 19/51/1
f 14/23/1 27/52/1 12/21/1
f 34/53/3 35/54/3 36/55/3
f 22/56/3 36/55/3 30/57/3
f 33/58/3 35/54/3 37/59/3
f 20/60/9 38/61/9 37/62/9
f 39/63/3 36/55/3 35/54/3
f 28/40/4 40/64/4 26/65/4
f 26/65/4 21/66/4 31/67/4
f 41/68/1 27/69/1 24/34/1
f 28/40/4 9/70/4 42/71/4
f 43/72/6 44/73/6 45/74/6
f 46/75/4 44/76/4 40/64/4
f 45/77/6 17/78/6 16/79/6
f 18/27/6 17/78/6 44/80/6
f 14/81/10 47/82/10 35/83/10
f 20/84/3 34/53/3 17/85/3
f 48/86/5 39/87/5 13/88/5
f 9/13/5 39/87/5 42/89/5
f 49/90/2 45/74/2 21/91/2
f 50/92/5 21/91/5 40/93/5
f 51/94/1 40/95/1 44/73/1
f 52/96/2 28/97/2 42/98/2
f 53/99/6 26/100/6 31/101/6
f 54/102/6 12/103/6 28/104/6
f 55/105/5 29/106/5 9/37/5
f 56/107/1 48/108/1 12/103/1
f 57/109/2 18/35/2 46/110/2
f 58/111/2 31/101/2 29/106/2
f 59/112/5 46/113/5 27/69/5
f 60/114/5 42/98/5 48/108/5
f 61/115/3 62/116/3 38/117/3
f 47/82/3 63/118/3 64/119/3
f 65/120/3 32/121/3 66/122/3
f 67/123/3 68/124/3 69/125/3
f 22/126/11 68/127/11 34/128/11
f 19/129/12 61/115/12 20/60/12
f 38/130/13 33/131/13 37/132/13
f 62/116/14 19/129/14 33/131/14
f 11/48/15 70/133/15 36/134/15
f 68/135/16 17/26/16 34/136/16
f 16/25/17 69/125/17 22/126/17
f 65/120/18 10/46/18 30/137/18
f 64/138/19 13/139/19 39/140/19
f 70/141/20 30/137/20 36/142/20
f 13/139/21 71/143/21 14/81/21
f 47/144/22 39/140/22 35/145/22
f 1/1/1 8/146/1 2/2/1
f 4/4/2 7/147/2 5/5/2
f 6/7/3 5/148/3 3/8/3
f 7/10/4 4/149/4 8/11/4
f 9/13/5 29/150/5 10/14/5
f 4/16/5 6/6/5 2/17/5
f 1/1/6 3/151/6 5/19/6
f 12/21/1 48/152/1 13/22/1
f 15/24/7 67/123/7 16/25/7
f 18/27/6 24/153/6 19/28/6
f 21/30/2 45/154/2 16/31/2
f 23/33/6 41/68/6 24/34/6
f 25/36/1 55/105/1 9/37/1
f 27/39/4 46/75/4 28/40/4
f 29/42/2 31/45/2 30/43/2
f 21/30/2 22/32/2 30/43/2
f 10/46/8 66/122/8 32/47/8
f 24/49/1 27/52/1 33/50/1
f 14/23/1 33/50/1 27/52/1
f 34/53/3 37/59/3 35/54/3
f 22/56/3 34/53/3 36/55/3
f 33/58/3 14/155/3 35/54/3
f 20/60/9 61/115/9 38/61/9
f 39/63/3 11/156/3 36/55/3
f 28/40/4 46/75/4 40/64/4
f 26/65/4 40/64/4 21/66/4
f 41/68/1 59/112/1 27/69/1
f 28/40/4 26/65/4 9/70/4
f 43/72/6 51/94/6 44/73/6
f 46/75/4 18/157/4 44/76/4
f 45/77/6 44/80/6 17/78/6
f 18/27/6 20/29/6 17/78/6
f 14/81/10 71/143/10 47/82/10
f 20/84/3 37/59/3 34/53/3
f 48/86/5 42/89/5 39/87/5
f 9/13/5 11/15/5 39/87/5
f 49/90/2 43/72/2 45/74/2
f 50/92/5 49/90/5 21/91/5
f 51/94/1 50/158/1 40/95/1
f 52/96/2 54/159/2 28/97/2
f 53/99/6 25/160/6 26/100/6
f 54/102/6 56/107/6 12/103/6
f 55/105/5 58/111/5 29/106/5
f 56/107/1 60/114/1 48/108/1
f 57/109/2 23/33/2 18/35/2
f 58/111/2 53/99/2 31/101/2
f 59/112/5 57/161/5 46/113/5
f 60/114/5 52/96/5 42/98/5
f 61/115/3 72/162/3 62/116/3
f 47/82/3 71/143/3 63/118/3
f 65/120/3 70/141/3 32/121/3
f 67/123/3 15/24/3 68/124/3
f 22/126/11 69/125/11 68/127/11
f 19/129/12 72/162/12 61/115/12
f 38/130/13 62/116/13 33/131/13
f 62/116/14 72/162/14 19/129/14
f 11/48/15 32/47/15 70/133/15
f 68/135/16 15/24/16 17/26/16
f 16/25/17 67/123/17 69/125/17
f 65/120/18 66/122/18 10/46/18
f 64/138/19 63/118/19 13/139/19
f 70/141/20 65/120/20 30/137/20
f 13/139/21 63/118/21 71/143/21
f 47/144/22 64/138/22 39/140/22
