# Blender v2.79 (sub 0) OBJ File: 'Traffic Obstacle 1.blend'
# www.blender.org
v 0.621055 -0.886895 1.025961
v 0.621055 -0.886895 0.984488
v 0.652792 -0.873749 0.984488
v 0.652792 -0.873749 1.025961
v -0.016007 0.651110 1.025961
v -0.016007 0.651110 0.984488
v 0.015729 0.664255 0.984488
v 0.015729 0.664255 1.025961
v -0.654323 -0.885272 1.020654
v -0.654095 -0.885244 0.977470
v -0.622233 -0.898284 0.977631
v -0.622461 -0.898312 1.020814
v -0.015536 0.675644 1.025052
v -0.015307 0.675672 0.981869
v 0.016555 0.662633 0.982029
v 0.016326 0.662605 1.025212
v 0.221763 0.273380 1.228635
v 0.141047 0.462958 1.228635
v 0.221763 0.273379 -1.224353
v 0.141047 0.462957 -1.224353
v 0.185804 0.258070 1.228635
v 0.105088 0.447648 1.228635
v 0.185804 0.258069 -1.224353
v 0.105088 0.447647 -1.224353
v 0.465048 -0.309799 1.228635
v 0.384332 -0.120221 1.228635
v 0.465048 -0.309800 -1.224353
v 0.384332 -0.120222 -1.224353
v 0.429089 -0.325109 1.228635
v 0.348373 -0.135531 1.228635
v 0.429089 -0.325110 -1.224353
v 0.348373 -0.135532 -1.224353
v -0.425431 -0.328217 1.228601
v -0.348617 -0.137025 1.228601
v -0.425431 -0.328218 -1.224388
v -0.348617 -0.137026 -1.224388
v -0.461696 -0.313647 1.228601
v -0.384882 -0.122455 1.228601
v -0.461696 -0.313648 -1.224387
v -0.384882 -0.122456 -1.224388
v -0.298261 -0.018553 1.228601
v -0.221446 0.172639 1.228601
v -0.298261 -0.018554 -1.224387
v -0.221446 0.172638 -1.224388
v -0.334526 -0.003983 1.228601
v -0.257712 0.187209 1.228601
v -0.334526 -0.003984 -1.224388
v -0.257712 0.187208 -1.224388
v -0.183984 0.260769 1.228601
v -0.107169 0.451961 1.228601
v -0.183984 0.260768 -1.224388
v -0.107169 0.451960 -1.224388
v -0.220249 0.275339 1.228601
v -0.143435 0.466531 1.228601
v -0.220249 0.275338 -1.224388
v -0.143435 0.466530 -1.224388
v -0.654323 -0.885273 -0.992284
v -0.654095 -0.885244 -1.035467
v -0.622233 -0.898284 -1.035307
v -0.622461 -0.898312 -0.992124
v -0.015536 0.675644 -0.987885
v -0.015307 0.675672 -1.031068
v 0.016555 0.662632 -1.030908
v 0.016326 0.662604 -0.987725
v 0.336038 -0.002342 1.228635
v 0.255322 0.187236 1.228635
v 0.336037 -0.002342 -1.224353
v 0.255322 0.187235 -1.224353
v 0.300078 -0.017652 1.228635
v 0.219362 0.171926 1.228635
v 0.300078 -0.017652 -1.224353
v 0.219362 0.171925 -1.224353
v 0.621055 -0.886895 -0.986976
v 0.621055 -0.886895 -1.028449
v 0.652792 -0.873750 -1.028449
v 0.652792 -0.873750 -0.986976
v -0.016007 0.651109 -0.986976
v -0.016007 0.651109 -1.028449
v 0.015729 0.664255 -1.028449
v 0.015729 0.664255 -0.986976
vt 0.000572 0.782059
vt 0.193440 0.798230
vt 0.001150 0.798321
vt 0.387453 0.000663
vt 0.194585 0.016834
vt 0.195163 0.000572
vt 0.001150 0.000663
vt 0.192862 0.781968
vt 0.938819 0.782131
vt 0.944632 0.016823
vt 0.944632 0.798383
vt 0.195163 0.798228
vt 0.386875 0.016925
vt 0.387453 0.798319
vt 0.951589 0.782131
vt 0.945776 0.016823
vt 0.951589 0.000572
vt 0.899729 0.733282
vt 0.922680 0.933504
vt 0.899729 0.933504
vt 0.975685 0.201939
vt 0.952734 0.402161
vt 0.952734 0.201939
vt 0.952734 0.200795
vt 0.975685 0.000572
vt 0.975685 0.200795
vt 0.952734 0.604672
vt 0.975685 0.804637
vt 0.952734 0.804637
vt 0.952734 0.403306
vt 0.975685 0.603528
vt 0.952734 0.603528
vt 0.243135 0.799463
vt 0.220184 0.999428
vt 0.220184 0.799463
vt 0.572004 0.916465
vt 0.754267 0.734202
vt 0.754267 0.916465
vt 0.244279 0.799463
vt 0.315294 0.870478
vt 0.244279 0.870478
vt 0.937675 0.366243
vt 0.755412 0.183979
vt 0.937675 0.183980
vt 0.315294 0.871622
vt 0.244279 0.942637
vt 0.244279 0.871622
vt 0.923825 0.934649
vt 0.986132 0.996955
vt 0.923825 0.996955
vt 0.578950 0.979916
vt 0.641257 0.917609
vt 0.641257 0.979916
vt 0.572004 0.182835
vt 0.754267 0.000572
vt 0.754267 0.182835
vt 0.071587 0.871624
vt 0.000572 0.942639
vt 0.000572 0.871624
vt 0.570860 0.734202
vt 0.388597 0.916465
vt 0.388597 0.734202
vt 0.316438 0.942637
vt 0.387453 0.871622
vt 0.387453 0.942637
vt 0.818863 0.877600
vt 0.881170 0.939907
vt 0.818863 0.939907
vt 0.923825 0.933504
vt 0.986132 0.871197
vt 0.986132 0.933504
vt 0.755412 0.182835
vt 0.937675 0.000572
vt 0.937675 0.182835
vt 0.072731 0.799465
vt 0.143746 0.870480
vt 0.072731 0.870480
vt 0.754267 0.366243
vt 0.572004 0.183980
vt 0.754267 0.183980
vt 0.826426 0.805441
vt 0.755412 0.876455
vt 0.755412 0.805441
vt 0.388597 0.917609
vt 0.450904 0.979916
vt 0.388597 0.979916
vt 0.072731 0.933931
vt 0.135038 0.871624
vt 0.135038 0.933931
vt 0.388597 0.733057
vt 0.570860 0.550794
vt 0.570860 0.733057
vt 0.316438 0.799463
vt 0.387453 0.870478
vt 0.316438 0.870478
vt 0.570860 0.366243
vt 0.388597 0.183980
vt 0.570860 0.183980
vt 0.898585 0.733282
vt 0.827570 0.804296
vt 0.827570 0.733282
vt 0.642402 0.917609
vt 0.704709 0.979916
vt 0.642402 0.979916
vt 0.514355 0.917609
vt 0.452048 0.979916
vt 0.452048 0.917609
vt 0.754267 0.550794
vt 0.572004 0.733057
vt 0.572004 0.550794
vt 0.755412 0.733282
vt 0.826426 0.804296
vt 0.755412 0.804296
vt 0.570860 0.549650
vt 0.388597 0.367387
vt 0.570860 0.367387
vt 0.144890 0.870480
vt 0.215905 0.799465
vt 0.215905 0.870480
vt 0.515499 0.917609
vt 0.577806 0.979916
vt 0.515499 0.979916
vt 0.923825 0.870053
vt 0.986132 0.807746
vt 0.986132 0.870053
vt 0.215905 0.871624
vt 0.205411 0.963171
vt 0.205411 0.871624
vt 0.976829 0.550733
vt 0.987323 0.459186
vt 0.987323 0.550733
vt 0.882314 0.969146
vt 0.892808 0.877600
vt 0.892808 0.969146
vt 0.987323 0.735879
vt 0.976829 0.644450
vt 0.987323 0.644450
vt 0.976829 0.366495
vt 0.987323 0.458042
vt 0.976829 0.458042
vt 0.987323 0.551877
vt 0.976829 0.643306
vt 0.976829 0.551877
vt 0.754267 0.549650
vt 0.572004 0.367387
vt 0.754267 0.367387
vt 0.071587 0.799465
vt 0.000572 0.870480
vt 0.000572 0.799465
vt 0.388597 0.000572
vt 0.570860 0.182835
vt 0.388597 0.182835
vt 0.827570 0.876455
vt 0.898585 0.805441
vt 0.898585 0.876455
vt 0.136182 0.871624
vt 0.198489 0.933931
vt 0.136182 0.933931
vt 0.755412 0.939907
vt 0.817719 0.877600
vt 0.817719 0.939907
vt 0.755412 0.724702
vt 0.843596 0.732096
vt 0.755676 0.732137
vt 0.932924 0.367429
vt 0.844740 0.374822
vt 0.845004 0.367387
vt 0.755676 0.367429
vt 0.843331 0.724661
vt 0.936726 0.374817
vt 0.934068 0.724735
vt 0.934068 0.367387
vt 0.845004 0.732095
vt 0.932660 0.374864
vt 0.932924 0.732136
vt 0.979487 0.357920
vt 0.976829 0.008003
vt 0.979487 0.000572
vt 0.193440 0.000572
vt 0.938819 0.000572
vt 0.945776 0.798383
vt 0.922680 0.733282
vt 0.975685 0.402161
vt 0.952734 0.000572
vt 0.975685 0.604673
vt 0.975685 0.403306
vt 0.243135 0.999428
vt 0.572004 0.734202
vt 0.315294 0.799463
vt 0.755412 0.366243
vt 0.315294 0.942637
vt 0.986132 0.934649
vt 0.578950 0.917609
vt 0.572004 0.000572
vt 0.071587 0.942639
vt 0.570860 0.916465
vt 0.316438 0.871622
vt 0.881170 0.877600
vt 0.923825 0.871197
vt 0.755412 0.000572
vt 0.143746 0.799465
vt 0.572004 0.366243
vt 0.826426 0.876455
vt 0.450904 0.917609
vt 0.072731 0.871624
vt 0.388597 0.550794
vt 0.387453 0.799463
vt 0.388597 0.366243
vt 0.898585 0.804296
vt 0.704709 0.917609
vt 0.514355 0.979916
vt 0.754267 0.733057
vt 0.826426 0.733282
vt 0.388597 0.549650
vt 0.144890 0.799465
vt 0.577806 0.917609
vt 0.923825 0.807746
vt 0.215905 0.963171
vt 0.976829 0.459186
vt 0.882314 0.877600
vt 0.976829 0.735879
vt 0.987323 0.366495
vt 0.987323 0.643306
vt 0.572004 0.549650
vt 0.071587 0.870480
vt 0.570860 0.000572
vt 0.827570 0.805441
vt 0.198489 0.871624
vt 0.755412 0.877600
vt 0.843596 0.367387
vt 0.936726 0.732166
vt 0.976829 0.365351
vn 0.3827 -0.9239 -0.0000
vn -0.3827 0.9239 -0.0000
vn -0.9239 -0.3827 -0.0000
vn 0.0000 0.0000 -1.0000
vn 0.9239 0.3827 -0.0000
vn -0.0000 0.0000 1.0000
vn -0.3787 -0.9255 -0.0026
vn 0.3788 0.9255 0.0026
vn -0.9255 0.3788 -0.0047
vn 0.0053 0.0007 -1.0000
vn 0.9255 -0.3788 0.0046
vn -0.0053 -0.0007 1.0000
vn -0.9201 -0.3917 0.0000
vn 0.9201 0.3917 -0.0000
vn -0.3917 0.9201 -0.0000
vn 0.3917 -0.9201 0.0000
vn -0.9279 0.3728 -0.0000
vn 0.9279 -0.3728 0.0000
vn 0.3728 0.9279 -0.0000
vn -0.3728 -0.9279 0.0000
vn 0.3787 0.9255 0.0026
vn 0.0053 0.0006 -1.0000
vn 0.9255 -0.3788 0.0047
vn -0.0053 -0.0006 1.0000
f 1/1/1 3/2/1 4/3/1
f 5/4/2 7/5/2 6/6/2
f 5/7/3 2/8/3 1/1/3
f 2/9/4 7/10/4 3/11/4
f 3/12/5 8/13/5 4/14/5
f 1/15/6 8/16/6 5/17/6
f 10/18/7 12/19/7 9/20/7
f 16/21/8 14/22/8 13/23/8
f 9/24/9 14/25/9 10/26/9
f 14/27/10 11/28/10 10/29/10
f 15/30/11 12/31/11 11/32/11
f 13/33/12 12/34/12 16/35/12
f 18/36/13 19/37/13 17/38/13
f 20/39/6 23/40/6 19/41/6
f 23/42/14 22/43/14 21/44/14
f 21/45/4 18/46/4 17/47/4
f 19/48/15 21/49/15 17/50/15
f 20/51/16 22/52/16 24/53/16
f 26/54/13 27/55/13 25/56/13
f 28/57/6 31/58/6 27/59/6
f 31/60/14 30/61/14 29/62/14
f 29/63/4 26/64/4 25/65/4
f 27/66/15 29/67/15 25/68/15
f 28/69/16 30/70/16 32/71/16
f 34/72/17 35/73/17 33/74/17
f 36/75/6 39/76/6 35/77/6
f 39/78/18 38/79/18 37/80/18
f 37/81/4 34/82/4 33/83/4
f 35/84/19 37/85/19 33/86/19
f 36/87/20 38/88/20 40/89/20
f 42/90/17 43/91/17 41/92/17
f 44/93/6 47/94/6 43/95/6
f 47/96/18 46/97/18 45/98/18
f 45/99/4 42/100/4 41/101/4
f 43/102/19 45/103/19 41/104/19
f 44/105/20 46/106/20 48/107/20
f 50/108/17 51/109/17 49/110/17
f 52/111/6 55/112/6 51/113/6
f 55/114/18 54/115/18 53/116/18
f 53/117/4 50/118/4 49/119/4
f 51/120/19 53/121/19 49/122/19
f 52/123/20 54/124/20 56/125/20
f 57/126/7 59/127/7 60/128/7
f 64/129/21 62/130/21 61/131/21
f 57/132/9 62/133/9 58/134/9
f 62/135/22 59/136/22 58/137/22
f 63/138/23 60/139/23 59/140/23
f 61/141/12 60/142/12 64/143/12
f 66/144/13 67/145/13 65/146/13
f 68/147/6 71/148/6 67/149/6
f 71/150/14 70/151/14 69/152/14
f 69/153/4 66/154/4 65/155/4
f 67/156/15 69/157/15 65/158/15
f 68/159/16 70/160/16 72/161/16
f 73/162/1 75/163/1 76/164/1
f 77/165/2 79/166/2 78/167/2
f 77/168/3 74/169/3 73/162/3
f 74/170/4 79/171/4 75/172/4
f 75/173/5 80/174/5 76/175/5
f 73/176/6 80/177/6 77/178/6
f 1/1/1 2/8/1 3/2/1
f 5/4/2 8/13/2 7/5/2
f 5/7/3 6/179/3 2/8/3
f 2/9/4 6/180/4 7/10/4
f 3/12/5 7/5/5 8/13/5
f 1/15/6 4/181/6 8/16/6
f 10/18/7 11/182/7 12/19/7
f 16/21/21 15/183/21 14/22/21
f 9/24/9 13/184/9 14/25/9
f 14/27/10 15/185/10 11/28/10
f 15/30/23 16/186/23 12/31/23
f 13/33/12 9/187/12 12/34/12
f 18/36/13 20/188/13 19/37/13
f 20/39/6 24/189/6 23/40/6
f 23/42/14 24/190/14 22/43/14
f 21/45/4 22/191/4 18/46/4
f 19/48/15 23/192/15 21/49/15
f 20/51/16 18/193/16 22/52/16
f 26/54/13 28/194/13 27/55/13
f 28/57/6 32/195/6 31/58/6
f 31/60/14 32/196/14 30/61/14
f 29/63/4 30/197/4 26/64/4
f 27/66/15 31/198/15 29/67/15
f 28/69/16 26/199/16 30/70/16
f 34/72/17 36/200/17 35/73/17
f 36/75/6 40/201/6 39/76/6
f 39/78/18 40/202/18 38/79/18
f 37/81/4 38/203/4 34/82/4
f 35/84/19 39/204/19 37/85/19
f 36/87/20 34/205/20 38/88/20
f 42/90/17 44/206/17 43/91/17
f 44/93/6 48/207/6 47/94/6
f 47/96/18 48/208/18 46/97/18
f 45/99/4 46/209/4 42/100/4
f 43/102/19 47/210/19 45/103/19
f 44/105/20 42/211/20 46/106/20
f 50/108/17 52/212/17 51/109/17
f 52/111/6 56/213/6 55/112/6
f 55/114/18 56/214/18 54/115/18
f 53/117/4 54/215/4 50/118/4
f 51/120/19 55/216/19 53/121/19
f 52/123/20 50/217/20 54/124/20
f 57/126/7 58/218/7 59/127/7
f 64/129/8 63/219/8 62/130/8
f 57/132/9 61/220/9 62/133/9
f 62/135/10 63/221/10 59/136/10
f 63/138/23 64/222/23 60/139/23
f 61/141/24 57/223/24 60/142/24
f 66/144/13 68/224/13 67/145/13
f 68/147/6 72/225/6 71/148/6
f 71/150/14 72/226/14 70/151/14
f 69/153/4 70/227/4 66/154/4
f 67/156/15 71/228/15 69/157/15
f 68/159/16 66/229/16 70/160/16
f 73/162/1 74/169/1 75/163/1
f 77/165/2 80/174/2 79/166/2
f 77/168/3 78/230/3 74/169/3
f 74/170/4 78/231/4 79/171/4
f 75/173/5 79/166/5 80/174/5
f 73/176/6 76/232/6 80/177/6
