v -0.910137 -0.274555 0.811096
v -0.910137 -0.174555 0.811096
v -0.910137 -0.274555 -0.752251
v -0.910137 -0.174555 -0.747733
v 0.889863 -0.274555 0.811096
v 0.889863 -0.174555 0.811096
v 0.889863 -0.274555 -0.752251
v 0.889863 -0.174555 -0.749856
v -0.910137 -0.274555 0.651945
v -0.910137 -0.174555 0.651945
v 0.889863 -0.274555 0.651945
v 0.889863 -0.174555 0.651945
v 0.889863 -0.174555 -0.616179
v 0.785240 -0.274555 -0.752251
v 0.785240 -0.174555 -0.752251
v 0.785240 -0.274555 0.811096
v 0.785240 -0.174555 0.811096
v 0.785240 -0.174555 0.651945
v 0.785240 -0.274555 0.651945
v 0.785240 -0.274555 -0.616423
v 0.785240 -0.174555 -0.618574
v -0.795375 -0.274555 -0.752251
v -0.795375 -0.174555 0.811096
v -0.795375 -0.274555 0.651945
v -0.795375 -0.274555 -0.621027
v -0.795375 -0.174555 -0.752251
v -0.795375 -0.274555 0.811096
v -0.795375 -0.174555 0.651945
v -0.795375 -0.174555 -0.619618
v -0.910137 -0.274555 -0.522354
v -0.910137 -0.274555 -0.306693
v -0.910137 -0.274555 -0.091033
v -0.910137 -0.274555 0.124628
v -0.910137 -0.274555 0.340289
v 0.889863 -0.174555 -0.524698
v 0.889863 -0.174555 -0.305799
v 0.889863 -0.174555 -0.090339
v 0.889863 -0.174555 0.125120
v 0.889863 -0.174555 0.340580
v -0.910137 -0.174555 0.340579
v -0.910137 -0.174555 0.125120
v -0.910137 -0.174555 -0.090340
v -0.910137 -0.174555 -0.305799
v -0.910137 -0.174555 -0.521259
v 0.889863 -0.274555 0.340580
v 0.889863 -0.274555 0.115092
v 0.889863 -0.274555 -0.090339
v 0.889863 -0.274555 -0.305799
v 0.889863 -0.274555 -0.524698
v 0.785240 -0.274555 -0.524698
v 0.785240 -0.274555 -0.305799
v 0.785240 -0.274555 -0.090339
v 0.785240 -0.274555 0.115092
v 0.785240 -0.274555 0.334653
v 0.785240 -0.174555 -0.521258
v 0.785240 -0.174555 -0.305799
v 0.785240 -0.174555 -0.090339
v 0.785240 -0.174555 0.125120
v 0.785240 -0.174555 0.340580
v -0.795375 -0.274555 -0.526877
v -0.795375 -0.274555 -0.306693
v -0.795375 -0.274555 -0.091033
v -0.795375 -0.274555 0.124628
v -0.795375 -0.274555 0.340289
v -0.795375 -0.174555 -0.521258
v -0.795375 -0.174555 -0.305799
v -0.795375 -0.174555 -0.090339
v -0.795375 -0.174555 0.125120
v -0.795375 -0.174555 0.340580
v 0.785240 0.031312 0.125120
v 0.785240 -0.077868 0.340580
v -0.795375 0.031312 0.125120
v -0.795375 -0.077868 0.340580
v 0.785240 0.141711 -0.090339
v -0.795375 0.141903 -0.090339
v 0.785240 0.240181 -0.305799
v -0.795375 0.239828 -0.305799
v 0.785240 0.343858 -0.521258
v -0.795375 0.343858 -0.521258
v 0.785240 0.381283 -0.618786
v -0.795375 0.381283 -0.618786
v 0.889863 -0.274555 -0.616423
v 0.889863 -0.174555 -0.616423
v 0.785240 -0.174555 -0.619178
v -0.910137 -0.174555 -0.615081
v -0.910137 -0.274555 -0.621058
v -0.504618 0.773272 0.349994
v -0.504619 0.037630 0.547381
v 0.460407 -0.127931 0.478066
v 0.460407 0.037630 0.547381
v -0.504619 0.135197 0.564363
v -0.504619 -0.057090 0.518467
v -0.504619 -0.127931 0.478065
v 0.460407 -0.057090 0.518467
v 0.460407 0.135197 0.564363
v -0.504109 0.229402 -0.282181
v 0.461278 0.231222 -0.282181
v -0.504109 0.726335 0.564363
v -0.504109 0.726335 -0.282181
v 0.461278 0.726335 0.564363
v 0.461278 0.726335 -0.282181
v -0.562460 0.778053 0.620723
v -0.562460 0.778053 -0.333644
v 0.519629 0.778053 -0.333645
v 0.519629 0.778053 0.620723
v -0.562460 0.835835 0.620723
v -0.562460 0.835835 -0.333644
v 0.519629 0.835835 -0.333645
v 0.519629 0.835835 0.620723
v -0.192991 0.956474 0.294864
v -0.192991 0.956474 -0.007785
v 0.150160 0.956474 -0.007785
v 0.150160 0.956474 0.294864
vt 0.226056 0.038587
vt 0.195202 0.044352
vt 0.226115 0.037114
vt 0.203458 0.018320
vt 0.221893 0.033332
vt 0.221188 0.036151
vt 0.247664 0.063960
vt 0.235573 0.048888
vt 0.235387 0.047958
vt 0.218159 0.062603
vt 0.225361 0.050699
vt 0.225681 0.050882
vt 0.235048 0.048753
vt 0.234575 0.047761
vt 0.214524 0.061864
vt 0.215053 0.064552
vt 0.208425 0.062680
vt 0.235180 0.045277
vt 0.234257 0.045238
vt 0.254782 0.063689
vt 0.217218 0.061369
vt 0.225351 0.049811
vt 0.204805 0.017412
vt 0.226981 0.031066
vt 0.224881 0.035794
vt 0.188251 0.046428
vt 0.193635 0.042022
vt 0.201736 0.015421
vt 0.204694 0.014700
vt 0.227688 0.038468
vt 0.228642 0.036106
vt 0.226053 0.047653
vt 0.226084 0.049742
vt 0.255035 0.066255
vt 0.246957 0.066657
vt 0.244624 0.063592
vt 0.225257 0.047653
vt 0.243591 0.064410
vt 0.152941 0.031071
vt 0.166425 0.000064
vt 0.225685 0.039789
vt 0.226703 0.042259
vt 0.225569 0.042134
vt 0.225440 0.044176
vt 0.226457 0.044240
vt 0.225326 0.046004
vt 0.226227 0.046005
vt 0.229577 0.033611
vt 0.227496 0.036274
vt 0.280758 0.058168
vt 0.271555 0.057939
vt 0.277500 0.053979
vt 0.273271 0.061165
vt 0.265665 0.060610
vt 0.266787 0.063478
vt 0.260044 0.062512
vt 0.260763 0.065199
vt 0.227105 0.040108
vt 0.230639 0.038660
vt 0.233554 0.043289
vt 0.209129 0.060629
vt 0.205569 0.058749
vt 0.201905 0.056230
vt 0.198241 0.053061
vt 0.195049 0.048996
vt 0.194418 0.047105
vt 0.279546 0.051164
vt 0.232463 0.037810
vt 0.233903 0.040888
vt 0.234691 0.043152
vt 0.283951 0.054270
vt 0.232474 0.041218
vt 0.191651 0.050807
vt 0.196213 0.055136
vt 0.200384 0.058257
vt 0.204413 0.060761
vt 0.195416 0.145213
vt 0.241866 0.107472
vt 0.231929 0.153331
vt 0.221482 0.199429
vt 0.177236 0.230374
vt 0.211939 0.242183
vt 0.169883 0.264454
vt 0.196366 0.302972
vt 0.166025 0.275707
vt 0.105749 0.568655
vt 0.204680 0.100856
vt 0.099283 0.000064
vt 0.099283 0.511307
vt 0.103346 0.120573
vt 0.105620 0.264002
vt 0.102814 0.951355
vt 0.077534 0.510791
vt 0.067715 0.398331
vt 0.039933 0.269796
vt 0.019960 0.131350
vt 0.000064 0.022708
vt 0.096903 0.396167
vt 0.102618 0.956635
vt 0.103482 0.949561
vt 0.101868 0.957114
vt 0.101868 0.963710
vt 0.102313 0.957132
vt 0.101501 0.951464
vt 0.101828 0.956719
vt 0.100706 0.949604
vt 0.101913 0.963824
vt 0.103129 0.992878
vt 0.102243 0.963592
vt 0.102684 0.963486
vt 0.102253 0.990874
vt 0.102293 0.999935
vt 0.101103 0.993299
vt 0.185917 0.191020
vt 0.285976 0.059734
vt 0.105749 0.046428
vn -1.0000 -0.0000 0.0000
vn 0.0000 0.0000 -1.0000
vn 1.0000 0.0000 0.0000
vn 0.0000 0.0000 1.0000
vn 0.0000 -1.0000 0.0000
vn 0.0000 1.0000 0.0000
vn -0.0029 0.0215 0.9998
vn 0.0000 0.8920 0.4520
vn 0.0000 0.8900 0.4560
vn -0.0002 0.9095 0.4157
vn 0.0000 0.9011 0.4336
vn 0.0000 0.9336 0.3583
vn 0.0000 0.9550 0.2966
vn 1.0000 -0.0005 0.0009
vn 1.0000 -0.0003 0.0010
vn -1.0000 0.0009 -0.0005
vn -1.0000 0.0001 -0.0006
vn -1.0000 0.0003 -0.0005
vn 0.0000 -0.4954 0.8687
vn 0.0000 -0.2920 0.9564
vn 0.0000 -0.1715 0.9852
vn 1.0000 -0.0002 0.0010
vn -0.6633 -0.7484 0.0000
vn 0.0000 -0.7368 0.6761
vn 0.0000 -0.7054 -0.7088
vn 0.6633 -0.7484 0.0000
vn 0.0000 0.9378 0.3472
vn -0.0000 0.9378 -0.3472
vn 0.3104 0.9506 0.0000
vn -0.3104 0.9506 0.0000
vn -1.0000 0.0002 -0.0006
vn 0.0000 0.0015 -1.0000
vn 0.0229 0.0239 -0.9995
vn -0.0393 0.0451 -0.9982
vn -0.0007 -0.0141 0.9999
vn 0.0001 0.8897 0.4566
vn 0.0001 0.9104 0.4138
vn -0.0002 0.9005 0.4348
vn 1.0000 -0.0015 0.0009
vn 0.0003 0.0007 -1.0000
f 86/1/1 4/2/1 3/3/1
f 15/4/2 7/5/2 14/6/2
f 12/7/3 5/8/3 11/9/3
f 23/10/4 1/11/4 27/12/4
f 11/9/5 16/13/5 19/14/5
f 10/15/6 23/10/6 28/16/6
f 69/17/6 10/15/6 28/16/6
f 45/18/5 19/14/5 54/19/5
f 39/20/3 11/9/3 45/18/3
f 2/21/1 9/22/1 1/11/1
f 8/23/3 82/24/3 7/5/3
f 7/5/5 20/25/5 14/6/5
f 4/2/6 29/26/6 26/27/6
f 8/23/6 21/28/6 13/29/6
f 14/6/5 25/30/5 22/31/5
f 64/32/5 19/14/5 24/33/5
f 59/34/6 12/7/6 39/20/6
f 18/35/6 6/36/6 12/7/6
f 19/14/5 27/12/5 24/33/5
f 6/36/4 16/13/4 5/8/4
f 26/27/2 14/6/2 22/31/2
f 3/3/2 26/27/2 22/31/2
f 24/33/5 1/11/5 9/22/5
f 64/32/5 9/22/5 34/37/5
f 22/31/5 86/1/5 3/3/5
f 15/4/6 29/26/6 21/28/6
f 28/16/6 17/38/6 18/35/6
f 17/38/4 27/12/4 16/13/4
f 21/28/7 25/39/7 20/40/7
f 30/41/5 61/42/5 31/43/5
f 61/42/5 32/44/5 31/43/5
f 62/45/5 33/46/5 32/44/5
f 63/47/5 34/37/5 33/46/5
f 20/25/5 49/48/5 50/49/5
f 55/50/6 36/51/6 35/52/6
f 56/53/6 37/54/6 36/51/6
f 57/55/6 38/56/6 37/54/6
f 58/57/6 39/20/6 38/56/6
f 50/49/5 61/42/5 60/58/5
f 51/59/5 62/45/5 61/42/5
f 62/45/5 53/60/5 63/47/5
f 63/47/5 54/19/5 64/32/5
f 9/22/1 40/61/1 34/37/1
f 34/37/1 41/62/1 33/46/1
f 33/46/1 42/63/1 32/44/1
f 32/44/1 43/64/1 31/43/1
f 31/43/1 44/65/1 30/41/1
f 30/41/1 85/66/1 86/1/1
f 83/67/3 49/48/3 82/24/3
f 35/52/3 48/68/3 49/48/3
f 36/51/3 47/69/3 48/68/3
f 37/54/3 46/70/3 47/69/3
f 38/56/3 45/18/3 46/70/3
f 84/71/6 35/52/6 83/67/6
f 50/49/5 48/68/5 51/59/5
f 48/68/5 52/72/5 51/59/5
f 47/69/5 53/60/5 52/72/5
f 46/70/5 54/19/5 53/60/5
f 86/1/5 60/58/5 30/41/5
f 65/73/6 43/64/6 66/74/6
f 66/74/6 42/63/6 67/75/6
f 67/75/6 41/62/6 68/76/6
f 68/76/6 40/61/6 69/17/6
f 72/77/8 71/78/8 70/79/8
f 74/80/9 72/77/9 70/79/9
f 77/81/10 74/80/10 76/82/10
f 79/83/11 76/82/11 78/84/11
f 81/85/12 78/84/12 80/86/12
f 73/87/13 18/35/13 71/78/13
f 85/66/6 65/73/6 29/26/6
f 60/58/5 20/25/5 50/49/5
f 79/83/1 29/26/1 65/73/1
f 89/88/14 97/89/14 94/90/14
f 94/90/15 97/89/15 90/91/15
f 98/92/16 96/93/16 91/94/16
f 91/94/17 96/93/17 88/95/17
f 92/96/18 96/93/18 93/97/18
f 93/97/19 94/90/19 92/96/19
f 92/96/20 90/91/20 88/95/20
f 88/95/21 95/98/21 91/94/21
f 90/91/22 97/89/22 95/98/22
f 95/98/4 98/92/4 91/94/4
f 98/92/23 103/99/23 99/100/23
f 105/101/4 106/102/4 102/103/4
f 100/104/24 102/103/24 98/92/24
f 99/100/25 104/105/25 101/106/25
f 100/104/26 104/105/26 105/101/26
f 109/107/27 110/108/27 106/102/27
f 103/99/2 108/109/2 104/105/2
f 104/105/3 109/107/3 105/101/3
f 102/103/1 107/110/1 103/99/1
f 97/89/2 99/100/2 101/106/2
f 100/104/3 97/89/3 101/106/3
f 111/111/6 113/112/6 112/113/6
f 107/110/28 112/113/28 108/109/28
f 108/109/29 113/112/29 109/107/29
f 106/102/30 111/111/30 107/110/30
f 88/95/31 96/93/31 92/96/31
f 77/81/1 65/73/1 66/74/1
f 75/114/1 66/74/1 67/75/1
f 72/77/1 67/75/1 68/76/1
f 73/87/1 68/76/1 69/17/1
f 28/16/1 73/87/1 69/17/1
f 80/86/32 29/26/32 81/85/32
f 78/84/3 21/115/3 80/86/3
f 55/50/3 76/82/3 56/53/3
f 56/53/3 74/80/3 57/55/3
f 57/55/3 70/79/3 58/57/3
f 58/57/3 71/78/3 59/34/3
f 18/35/3 59/34/3 71/78/3
f 86/1/1 85/66/1 4/2/1
f 15/4/33 8/23/33 7/5/33
f 12/7/3 6/36/3 5/8/3
f 23/10/4 2/21/4 1/11/4
f 11/9/5 5/8/5 16/13/5
f 10/15/6 2/21/6 23/10/6
f 69/17/6 40/61/6 10/15/6
f 45/18/5 11/9/5 19/14/5
f 39/20/3 12/7/3 11/9/3
f 2/21/1 10/15/1 9/22/1
f 8/23/3 13/29/3 82/24/3
f 7/5/5 82/24/5 20/25/5
f 4/2/6 85/66/6 29/26/6
f 8/23/6 15/4/6 21/28/6
f 14/6/5 20/25/5 25/30/5
f 64/32/5 54/19/5 19/14/5
f 59/34/6 18/35/6 12/7/6
f 18/35/6 17/38/6 6/36/6
f 19/14/5 16/13/5 27/12/5
f 6/36/4 17/38/4 16/13/4
f 26/27/2 15/4/2 14/6/2
f 3/3/34 4/2/34 26/27/34
f 24/33/5 27/12/5 1/11/5
f 64/32/5 24/33/5 9/22/5
f 22/31/5 25/30/5 86/1/5
f 15/4/6 26/27/6 29/26/6
f 28/16/6 23/10/6 17/38/6
f 17/38/4 23/10/4 27/12/4
f 21/28/35 29/26/35 25/39/35
f 30/41/5 60/58/5 61/42/5
f 61/42/5 62/45/5 32/44/5
f 62/45/5 63/47/5 33/46/5
f 63/47/5 64/32/5 34/37/5
f 20/25/5 82/24/5 49/48/5
f 55/50/6 56/53/6 36/51/6
f 56/53/6 57/55/6 37/54/6
f 57/55/6 58/57/6 38/56/6
f 58/57/6 59/34/6 39/20/6
f 50/49/5 51/59/5 61/42/5
f 51/59/5 52/72/5 62/45/5
f 62/45/5 52/72/5 53/60/5
f 63/47/5 53/60/5 54/19/5
f 9/22/1 10/15/1 40/61/1
f 34/37/1 40/61/1 41/62/1
f 33/46/1 41/62/1 42/63/1
f 32/44/1 42/63/1 43/64/1
f 31/43/1 43/64/1 44/65/1
f 30/41/1 44/65/1 85/66/1
f 83/67/3 35/52/3 49/48/3
f 35/52/3 36/51/3 48/68/3
f 36/51/3 37/54/3 47/69/3
f 37/54/3 38/56/3 46/70/3
f 38/56/3 39/20/3 45/18/3
f 84/71/6 55/50/6 35/52/6
f 50/49/5 49/48/5 48/68/5
f 48/68/5 47/69/5 52/72/5
f 47/69/5 46/70/5 53/60/5
f 46/70/5 45/18/5 54/19/5
f 86/1/5 25/30/5 60/58/5
f 65/73/6 44/65/6 43/64/6
f 66/74/6 43/64/6 42/63/6
f 67/75/6 42/63/6 41/62/6
f 68/76/6 41/62/6 40/61/6
f 72/77/8 73/87/8 71/78/8
f 74/80/36 75/114/36 72/77/36
f 77/81/37 75/114/37 74/80/37
f 79/83/38 77/81/38 76/82/38
f 81/85/12 79/83/12 78/84/12
f 73/87/13 28/16/13 18/35/13
f 85/66/6 44/65/6 65/73/6
f 60/58/5 25/30/5 20/25/5
f 79/83/1 81/85/1 29/26/1
f 98/92/1 99/100/1 96/93/1
f 93/97/19 89/88/19 94/90/19
f 92/96/20 94/90/20 90/91/20
f 88/95/21 90/91/21 95/98/21
f 95/98/4 100/104/4 98/92/4
f 98/92/23 102/103/23 103/99/23
f 105/101/4 109/107/4 106/102/4
f 100/104/24 105/101/24 102/103/24
f 99/100/25 103/99/25 104/105/25
f 100/104/26 101/106/26 104/105/26
f 109/107/27 113/112/27 110/108/27
f 103/99/2 107/110/2 108/109/2
f 104/105/3 108/109/3 109/107/3
f 102/103/1 106/102/1 107/110/1
f 97/89/2 96/93/2 99/100/2
f 100/104/39 95/98/39 97/89/39
f 111/111/6 110/108/6 113/112/6
f 107/110/28 111/111/28 112/113/28
f 108/109/29 112/113/29 113/112/29
f 106/102/30 110/108/30 111/111/30
f 77/81/1 79/83/1 65/73/1
f 75/114/1 77/81/1 66/74/1
f 72/77/1 75/114/1 67/75/1
f 73/87/1 72/77/1 68/76/1
f 80/86/40 84/116/40 29/26/40
f 78/84/3 55/50/3 21/115/3
f 55/50/3 78/84/3 76/82/3
f 56/53/3 76/82/3 74/80/3
f 57/55/3 74/80/3 70/79/3
f 58/57/3 70/79/3 71/78/3
