# Blender v2.79 (sub 0) OBJ File: ''
# www.blender.org
mtllib vent.mtl
o Cube_Cube.001
v -0.534940 0.385376 -0.493972
v 0.311603 -0.111557 -0.493972
v -0.534940 -0.205762 -0.494482
v 0.647997 -0.515515 0.795377
v 0.650450 -0.615514 -0.785238
v 0.645846 -0.615515 0.795377
v -0.622522 -0.515514 -0.900000
v -0.781674 -0.615514 -0.900000
v -0.781674 -0.515514 -0.900000
v -0.781674 -0.615514 -0.785238
v -0.622522 -0.615514 -0.900000
v -0.622522 -0.615514 -0.785238
v -0.622522 -0.515515 0.795377
v -0.311157 -0.515515 0.900000
v -0.311157 -0.515515 0.795377
v -0.591300 0.494875 0.529766
v -0.591300 0.437094 -0.552323
v -0.591300 0.437093 0.529766
v -0.095698 -0.515514 -0.785238
v -0.311157 -0.515514 -0.900000
v -0.311157 -0.515514 -0.785238
v -0.085670 -0.615515 0.900000
v -0.305230 -0.615515 0.795377
v -0.085670 -0.615515 0.795377
v -0.310867 -0.615514 -0.900000
v -0.310867 -0.615514 -0.785238
v 0.645846 -0.615515 0.900000
v 0.554121 -0.615515 0.795377
v 0.550681 -0.515515 0.795377
v 0.335221 -0.515515 0.900000
v 0.554121 -0.515515 0.900000
v -0.311157 -0.418827 -0.785238
v -0.095698 -0.309648 0.795377
v -0.095698 -0.309647 -0.785238
v -0.095698 -0.515515 0.900000
v -0.311157 -0.615515 0.900000
v -0.622522 -0.615515 0.795377
v 0.556299 -0.615514 -0.785238
v -0.095698 -0.515515 0.795377
v -0.095206 -0.615514 -0.785238
v 0.120455 -0.615514 -0.900000
v 0.120455 -0.615514 -0.785238
v -0.781674 -0.615515 0.900000
v -0.622522 -0.615515 0.900000
v 0.363066 0.494876 -0.552323
v 0.363067 0.437093 0.529766
v 0.363066 0.437094 -0.552323
v -0.781674 -0.515515 0.900000
v -0.622522 -0.515515 0.900000
v 0.551777 -0.615514 -0.900000
v 0.644503 -0.515514 -0.900000
v 0.650481 -0.615514 -0.900000
v -0.591300 0.494876 -0.552323
v -0.265442 0.615515 -0.182854
v 0.037207 0.615515 0.160297
v 0.037207 0.615515 -0.182854
v 0.781674 -0.515515 0.795377
v 0.649040 -0.515514 -0.785238
v 0.119761 -0.199249 0.795377
v -0.781674 -0.515514 -0.785238
v -0.781674 -0.615515 0.795377
v -0.781674 -0.515515 0.795377
v 0.554121 -0.615515 0.900000
v 0.336115 -0.615514 -0.785238
v 0.336115 -0.615514 -0.900000
v 0.550681 -0.515514 -0.785238
v -0.622522 -0.515514 -0.785238
v 0.119761 -0.515515 0.795377
v 0.335221 -0.515515 0.795377
v 0.781674 -0.615515 0.900000
v 0.781674 -0.615515 0.795377
v 0.335221 -0.615515 0.795377
v -0.095206 -0.615514 -0.900000
v 0.335221 -0.101131 -0.785238
v 0.335221 -0.100779 0.795377
v 0.550681 0.002899 -0.785238
v 0.550681 0.002898 0.795377
v -0.095698 -0.515514 -0.900000
v 0.119762 -0.515514 -0.900000
v 0.781674 -0.615514 -0.785238
v 0.335221 -0.515514 -0.900000
v 0.550681 -0.515514 -0.900000
v 0.779279 -0.515515 0.900000
v 0.777156 -0.515514 -0.900000
v 0.781674 -0.515514 -0.785238
v 0.648208 0.040323 0.795377
v 0.648208 0.040324 -0.785238
v 0.781674 -0.615514 -0.900000
v 0.119761 -0.515515 0.900000
v 0.119761 -0.615515 0.900000
v 0.335221 -0.615515 0.900000
v 0.363067 0.494875 0.529766
v 0.648600 -0.515515 0.795377
v 0.645846 -0.515515 0.900000
v 0.645602 -0.515515 0.900000
v 0.119761 -0.515514 -0.785238
v -0.448644 -0.468891 0.470544
v -0.489045 -0.398049 -0.494482
v -0.448643 -0.468890 -0.494482
v 0.335221 -0.515514 -0.785238
v -0.534940 -0.205763 0.470544
v 0.311603 -0.109738 0.471415
v 0.311603 0.385376 -0.493972
v 0.311603 0.385375 0.471415
v -0.517959 -0.303330 0.470544
v -0.517959 -0.303329 -0.494482
v 0.119761 -0.615515 0.795377
v -0.489045 -0.398050 0.470544
v -0.534940 0.385375 0.471415
v -0.311157 -0.418828 0.795377
v 0.119761 -0.199056 -0.785238
v -0.265442 0.615515 0.160297
vt 0.169841 0.682339
vt 0.000289 0.582671
vt 0.169913 0.563899
vt 0.087449 0.431246
vt 0.113345 0.059272
vt 0.110998 0.431395
vt 0.390998 0.030232
vt 0.428583 0.006321
vt 0.428716 0.030020
vt 0.489840 0.360468
vt 0.464910 0.326001
vt 0.489790 0.325965
vt 0.393258 0.432024
vt 0.319606 0.457234
vt 0.319466 0.432439
vt 0.316969 0.728004
vt 0.060348 0.713903
vt 0.316990 0.714300
vt 0.266297 0.058132
vt 0.317207 0.030647
vt 0.317360 0.057845
vt 0.854967 0.209049
vt 0.832355 0.256681
vt 0.832286 0.209082
vt 0.464812 0.258436
vt 0.489692 0.258400
vt 0.854737 0.050462
vt 0.832084 0.070380
vt 0.832056 0.050495
vt 0.115217 0.433588
vt 0.166419 0.458096
vt 0.114542 0.458387
vt 0.448955 0.773709
vt 0.765729 0.821555
vt 0.449039 0.822104
vt 0.268543 0.457521
vt 0.319739 0.480933
vt 0.266300 0.481234
vt 0.855038 0.257933
vt 0.832455 0.325468
vt 0.489419 0.070405
vt 0.268404 0.432726
vt 0.489624 0.211647
vt 0.464676 0.164929
vt 0.489556 0.164893
vt 0.855186 0.359937
vt 0.855136 0.325435
vt 0.062578 0.956030
vt 0.319200 0.970132
vt 0.062557 0.969735
vt 0.431114 0.456607
vt 0.393530 0.480519
vt 0.393397 0.456819
vt 0.112565 0.008098
vt 0.090722 0.031921
vt 0.089173 0.008229
vt 0.060326 0.727607
vt 0.048748 0.956167
vt 0.046497 0.727743
vt 0.149772 0.806887
vt 0.229775 0.877147
vt 0.151026 0.876458
vt 0.056002 0.430853
vt 0.089800 0.059124
vt 0.765813 0.870061
vt 0.428869 0.057218
vt 0.454674 0.431679
vt 0.430975 0.431812
vt 0.114675 0.482087
vt 0.464541 0.071422
vt 0.489488 0.118140
vt 0.464608 0.118176
vt 0.113111 0.058993
vt 0.391151 0.057430
vt 0.217342 0.433014
vt 0.166279 0.433301
vt 0.032525 0.455551
vt 0.032475 0.430832
vt 0.854766 0.070347
vt 0.832153 0.117836
vt 0.832505 0.359970
vt 0.464744 0.211683
vt 0.449206 0.918046
vt 0.765896 0.917525
vt 0.449289 0.965984
vt 0.765979 0.965432
vt 0.317005 0.006948
vt 0.266145 0.030934
vt 0.265895 0.007236
vt 0.215082 0.031221
vt 0.214785 0.007523
vt 0.832013 0.021048
vt 0.489389 0.049994
vt 0.489348 0.021546
vt 0.164020 0.031508
vt 0.163675 0.007810
vt 0.112957 0.031796
vt 0.056162 0.455476
vt 0.087286 0.479485
vt 0.055270 0.479040
vt 0.059285 0.032097
vt 0.058481 0.059210
vt 0.034873 0.058826
vt 0.454814 0.456474
vt 0.766016 0.986362
vt 0.449326 0.986914
vt 0.058081 0.008404
vt 0.217481 0.457808
vt 0.217615 0.481508
vt 0.035469 0.031539
vt 0.854903 0.164513
vt 0.854835 0.117803
vt 0.319221 0.956427
vt 0.330799 0.727868
vt 0.333051 0.956291
vt 0.092011 0.433718
vt 0.092803 0.458509
vt 0.087671 0.455914
vt 0.215235 0.058419
vt 0.363347 0.508160
vt 0.169972 0.524215
vt 0.169996 0.507875
vt 0.164173 0.058706
vt 0.166552 0.481795
vt 0.875300 0.347022
vt 0.986668 0.030332
vt 0.986668 0.347022
vt 0.363265 0.564184
vt 0.532877 0.583424
vt 0.726301 0.682624
vt 0.532877 0.682624
vt 0.363294 0.544342
vt 0.169943 0.544057
vt 0.832221 0.164546
vt 0.464510 0.050024
vt 0.822386 0.415031
vt 0.669841 0.459158
vt 0.819224 0.383741
vt 0.380555 0.511464
vt 0.372460 0.525658
vt 0.366667 0.544636
vt 0.363265 0.682624
vt 0.166523 0.544349
vt 0.160741 0.525367
vt 0.152655 0.511169
vt 0.464468 0.021582
vt 0.390865 0.006533
vt 0.349594 0.741173
vt 0.854694 0.021015
vt 0.076369 0.987060
vt 0.305333 0.987415
vt 0.074215 0.695782
vt 0.303179 0.696136
vt 0.092937 0.482209
vt 0.452568 0.057085
vt 0.836737 0.420647
vt 0.988863 0.443147
vt 0.979457 0.470225
vt 0.448842 0.708385
vt 0.765645 0.773160
vt 0.770670 0.659065
vt 0.825871 0.703873
vt 0.799881 0.716981
vt 0.712247 0.543232
vt 0.826472 0.558270
vt 0.741458 0.601149
vt 0.027967 0.741417
vt 0.029964 0.944033
vt 0.826007 0.631154
vt 0.867258 0.793210
vt 0.870417 0.698244
vt 0.897035 0.707491
vt 0.851125 0.558594
vt 0.958851 0.529541
vt 0.938246 0.588858
vt 0.844771 0.489912
vt 0.683035 0.485316
vt 0.823729 0.487004
vt 0.860965 0.628486
vt 0.917641 0.648174
vt 0.842095 0.800677
vt 0.228521 0.807576
vt 0.363323 0.524499
vt 0.000228 0.682236
vt 0.464960 0.360504
vt 0.431248 0.480307
vt 0.449123 0.870627
vt 0.875300 0.030332
vt 0.726301 0.583059
vt 0.351591 0.943789
vt 0.452415 0.029887
vt 0.835761 0.390218
vt 0.765532 0.707837
vn 0.0001 0.0002 -1.0000
vn 0.0003 0.0003 -1.0000
vn 0.0005 0.0005 -1.0000
vn -0.9996 0.0279 -0.0061
vn -0.9993 0.0324 -0.0170
vn -0.9998 0.0215 -0.0029
vn 0.0000 0.0000 -1.0000
vn 0.0000 -1.0000 -0.0000
vn 0.0000 1.0000 0.0000
vn -1.0000 0.0000 0.0000
vn -0.4520 0.8920 0.0000
vn -0.4525 0.8918 -0.0012
vn -0.4569 0.8895 -0.0033
vn 0.0000 -0.0000 1.0000
vn 1.0000 0.0000 -0.0000
vn -0.0032 1.0000 0.0063
vn -0.4558 0.8901 -0.0004
vn -0.4152 0.9097 0.0001
vn -0.4141 0.9102 0.0002
vn -0.4157 0.9095 -0.0002
vn -0.4340 0.9009 -0.0001
vn -0.4343 0.9008 -0.0001
vn -0.4336 0.9011 0.0000
vn -0.3583 0.9336 0.0000
vn -0.8687 -0.4954 -0.0000
vn 1.0000 0.0014 0.0003
vn 1.0000 0.0010 0.0001
vn 1.0000 0.0007 0.0000
vn 1.0000 0.0004 -0.0005
vn -0.9852 -0.1715 -0.0000
vn -0.0009 -0.0005 1.0000
vn -0.0014 -0.0008 1.0000
vn -0.0010 -0.0003 1.0000
vn -0.0016 -0.0004 1.0000
vn -0.0010 -0.0002 1.0000
vn -0.0002 -0.0002 1.0000
vn 0.0006 0.0001 -1.0000
vn 0.0006 0.0002 -1.0000
vn 0.0005 0.0003 -1.0000
vn -0.0009 -0.0008 1.0000
vn 0.0000 -0.7484 0.6633
vn 0.7089 -0.7054 -0.0000
vn 0.7088 -0.7054 -0.0000
vn 0.0000 0.9506 -0.3104
vn -0.6761 -0.7368 -0.0000
vn -0.3472 0.9378 0.0000
vn -0.2966 0.9550 0.0000
vn 0.3472 0.9378 -0.0000
vn 0.0000 0.9506 0.3104
vn 0.0000 -0.7484 -0.6633
vn -0.0001 -0.0011 1.0000
vn -0.0003 -0.0002 1.0000
vn -0.0000 0.0024 -1.0000
vn -0.9564 -0.2920 -0.0000
vn -1.0000 -0.0070 -0.0010
vn -0.9999 -0.0141 -0.0007
vn -0.9997 -0.0191 -0.0177
vn -0.4566 0.8897 0.0001
vn 0.9995 0.0239 0.0229
vn -0.4138 0.9104 0.0001
vn -0.4348 0.9005 -0.0002
vn 0.9982 0.0451 -0.0393
vn 1.0000 0.0015 0.0003
usemtl Material.002
s 1
f 1/1/1 2/2/2 3/3/3
f 4/4/4 5/5/5 6/6/6
f 7/7/7 8/8/7 9/9/7
f 10/10/8 11/11/8 12/12/8
f 13/13/9 14/14/9 15/15/9
f 16/16/10 17/17/10 18/18/10
f 19/19/9 20/20/9 21/21/9
f 22/22/8 23/23/8 24/24/8
f 12/12/8 25/25/8 26/26/8
f 27/27/8 28/28/8 6/29/8
f 29/30/9 30/31/9 31/32/9
f 32/33/11 33/34/12 34/35/13
f 35/36/14 36/37/14 22/38/14
f 36/39/8 37/40/8 23/23/8
f 26/26/8 37/40/8 12/12/8
f 38/41/8 6/29/8 28/28/8
f 15/15/9 35/36/9 39/42/9
f 40/43/8 41/44/8 42/45/8
f 43/46/8 37/40/8 44/47/8
f 45/48/15 46/49/15 47/50/15
f 48/51/14 44/52/14 49/53/14
f 50/54/7 51/55/7 52/56/7
f 53/57/7 47/58/7 17/59/7
f 54/60/9 55/61/9 56/62/9
f 57/63/9 58/64/9 4/4/16
f 59/65/17 34/35/13 33/34/12
f 60/66/10 61/67/10 62/68/10
f 30/31/14 63/69/14 31/32/14
f 50/70/8 64/71/8 65/72/8
f 51/55/9 66/73/9 58/64/9
f 9/9/9 67/74/9 7/7/9
f 49/53/14 36/37/14 14/14/14
f 68/75/9 30/31/9 69/76/9
f 62/68/9 49/53/9 13/13/9
f 57/63/15 70/77/15 71/78/15
f 63/79/8 72/80/8 28/28/8
f 61/81/8 12/12/8 37/40/8
f 26/26/8 73/82/8 40/43/8
f 74/83/18 59/65/19 75/84/20
f 76/85/21 75/84/22 77/86/23
f 25/87/7 78/88/7 73/89/7
f 73/89/7 79/90/7 41/91/7
f 71/92/8 5/93/8 80/94/8
f 40/43/8 23/23/8 26/26/8
f 41/91/7 81/95/7 65/96/7
f 65/96/7 82/97/7 50/54/7
f 83/98/14 27/99/14 70/100/14
f 84/101/9 58/64/9 85/102/9
f 57/63/15 80/103/15 85/102/15
f 62/68/10 43/104/10 48/51/10
f 76/85/24 86/105/24 87/106/24
f 52/56/7 84/101/7 88/107/7
f 89/108/14 22/38/14 90/109/14
f 88/110/15 85/102/15 80/103/15
f 90/111/8 72/80/8 91/112/8
f 21/21/9 7/7/9 67/74/9
f 92/113/14 18/114/14 46/115/14
f 93/116/9 31/32/9 94/117/9
f 83/98/9 4/4/16 95/118/9
f 96/119/9 78/88/9 19/19/9
f 97/120/25 98/121/25 99/122/25
f 100/123/9 79/90/9 96/119/9
f 66/73/9 81/95/9 100/123/9
f 89/108/14 91/124/14 30/31/14
f 93/125/26 87/126/27 86/127/28
f 101/128/10 1/1/10 3/3/10
f 102/129/29 103/130/15 104/131/15
f 105/132/30 3/3/30 106/133/30
f 22/22/8 107/134/8 90/111/8
f 52/135/8 38/41/8 50/70/8
f 42/45/8 24/24/8 40/43/8
f 77/136/14 4/137/14 86/138/14
f 97/139/31 102/129/32 108/140/31
f 108/140/33 102/129/34 105/141/35
f 109/142/36 102/129/34 104/131/14
f 3/3/3 2/2/2 106/143/37
f 98/144/38 2/2/2 99/145/39
f 80/94/8 52/135/8 88/146/8
f 42/45/8 65/72/8 64/71/8
f 60/66/9 13/13/9 67/74/9
f 105/141/35 102/129/34 101/128/40
f 11/147/7 20/20/7 25/87/7
f 109/148/41 46/115/41 18/114/41
f 27/27/8 71/92/8 70/149/8
f 103/150/42 46/49/43 104/151/43
f 53/57/44 56/62/44 45/48/44
f 18/18/45 1/152/45 109/153/45
f 16/16/46 54/60/46 53/57/46
f 31/32/14 27/154/14 94/117/14
f 9/9/10 10/155/10 60/66/10
f 39/42/9 89/108/9 68/75/9
f 28/28/8 64/71/8 38/41/8
f 76/156/7 58/157/7 66/158/7
f 67/159/47 110/160/47 32/33/47
f 45/48/48 55/61/48 92/113/48
f 55/61/49 16/16/49 92/113/49
f 106/143/37 2/2/2 98/144/38
f 39/161/14 110/162/14 15/163/14
f 69/164/14 59/165/14 68/166/14
f 1/167/50 47/58/50 103/168/50
f 68/166/14 33/169/51 39/161/14
f 67/170/7 32/171/7 21/172/7
f 72/80/8 42/45/8 64/71/8
f 111/173/7 100/174/7 96/175/7
f 74/176/7 66/158/7 100/174/7
f 29/177/14 75/178/52 69/164/14
f 34/179/53 96/175/7 19/180/7
f 32/171/7 19/180/7 21/172/7
f 13/181/14 15/163/14 110/162/14
f 16/16/46 112/182/46 54/60/46
f 45/48/48 56/62/48 55/61/48
f 108/183/54 106/133/54 98/121/54
f 1/1/1 103/184/7 2/2/2
f 4/4/55 58/64/56 5/5/57
f 7/7/7 11/147/7 8/8/7
f 10/10/8 8/185/8 11/11/8
f 13/13/9 49/53/9 14/14/9
f 16/16/10 53/57/10 17/17/10
f 19/19/9 78/88/9 20/20/9
f 22/22/8 36/39/8 23/23/8
f 12/12/8 11/11/8 25/25/8
f 27/27/8 63/79/8 28/28/8
f 29/30/9 69/76/9 30/31/9
f 32/33/11 110/160/11 33/34/12
f 35/36/14 14/14/14 36/37/14
f 36/39/8 44/47/8 37/40/8
f 26/26/8 23/23/8 37/40/8
f 38/41/8 5/93/8 6/29/8
f 15/15/9 14/14/9 35/36/9
f 40/43/8 73/82/8 41/44/8
f 43/46/8 61/81/8 37/40/8
f 45/48/15 92/113/15 46/49/15
f 48/51/14 43/186/14 44/52/14
f 50/54/7 82/97/7 51/55/7
f 53/57/7 45/48/7 47/58/7
f 54/60/9 112/182/9 55/61/9
f 57/63/9 85/102/9 58/64/9
f 59/65/17 111/187/58 34/35/13
f 60/66/10 10/155/10 61/67/10
f 30/31/14 91/124/14 63/69/14
f 50/70/8 38/41/8 64/71/8
f 51/55/9 82/97/9 66/73/9
f 9/9/9 60/66/9 67/74/9
f 49/53/14 44/52/14 36/37/14
f 68/75/9 89/108/9 30/31/9
f 62/68/9 48/51/9 49/53/9
f 57/63/59 83/98/59 70/77/59
f 63/79/8 91/112/8 72/80/8
f 61/81/8 10/10/8 12/12/8
f 26/26/8 25/25/8 73/82/8
f 74/83/18 111/187/60 59/65/19
f 76/85/21 74/83/61 75/84/22
f 25/87/7 20/20/7 78/88/7
f 73/89/7 78/88/7 79/90/7
f 71/92/8 6/29/8 5/93/8
f 40/43/8 24/24/8 23/23/8
f 41/91/7 79/90/7 81/95/7
f 65/96/7 81/95/7 82/97/7
f 83/98/14 95/118/14 27/99/14
f 84/101/9 51/55/9 58/64/9
f 57/63/15 71/78/15 80/103/15
f 62/68/10 61/67/10 43/104/10
f 76/85/24 77/86/24 86/105/24
f 52/56/7 51/55/7 84/101/7
f 89/108/14 35/36/14 22/38/14
f 88/110/62 84/101/62 85/102/62
f 90/111/8 107/134/8 72/80/8
f 21/21/9 20/20/9 7/7/9
f 92/113/14 16/16/14 18/114/14
f 93/116/9 29/30/9 31/32/9
f 83/98/9 57/63/9 4/4/16
f 96/119/9 79/90/9 78/88/9
f 97/120/25 108/183/25 98/121/25
f 100/123/9 81/95/9 79/90/9
f 66/73/9 82/97/9 81/95/9
f 89/108/14 90/109/14 91/124/14
f 93/125/26 58/188/63 87/126/27
f 101/128/10 109/142/10 1/1/10
f 102/129/29 2/189/15 103/130/15
f 105/132/30 101/128/30 3/3/30
f 22/22/8 24/24/8 107/134/8
f 52/135/8 5/93/8 38/41/8
f 42/45/8 107/134/8 24/24/8
f 77/136/14 29/177/14 4/137/14
f 109/142/36 101/128/40 102/129/34
f 80/94/8 5/93/8 52/135/8
f 42/45/8 41/44/8 65/72/8
f 60/66/9 62/68/9 13/13/9
f 11/147/7 7/7/7 20/20/7
f 109/148/41 104/190/41 46/115/41
f 27/27/8 6/29/8 71/92/8
f 103/150/42 47/50/42 46/49/43
f 53/57/44 54/60/44 56/62/44
f 18/18/45 17/17/45 1/152/45
f 31/32/14 63/69/14 27/154/14
f 9/9/10 8/191/10 10/155/10
f 39/42/9 35/36/9 89/108/9
f 28/28/8 72/80/8 64/71/8
f 76/156/7 87/192/7 58/157/7
f 67/159/47 13/193/47 110/160/47
f 55/61/49 112/182/49 16/16/49
f 39/161/14 33/169/51 110/162/14
f 69/164/14 75/178/52 59/165/14
f 1/167/50 17/59/50 47/58/50
f 68/166/14 59/165/14 33/169/51
f 72/80/8 107/134/8 42/45/8
f 111/173/7 74/176/7 100/174/7
f 74/176/7 76/156/7 66/158/7
f 29/177/14 77/136/14 75/178/52
f 34/179/53 111/173/7 96/175/7
f 32/171/7 34/179/53 19/180/7
f 108/183/54 105/132/54 106/133/54
