# Blender v2.79 (sub 0) OBJ File: ''
# www.blender.org
v -0.534940 0.385376 -0.493972
v 0.311603 -0.111557 -0.493972
v -0.534940 -0.205762 -0.494482
v 0.647997 -0.515515 0.795377
v 0.650450 -0.615514 -0.785238
v 0.645846 -0.615515 0.795377
v -0.622522 -0.515514 -0.900000
v -0.781674 -0.615514 -0.900000
v -0.781674 -0.515514 -0.900000
v -0.781674 -0.615514 -0.785238
v -0.622522 -0.615514 -0.900000
v -0.622522 -0.615514 -0.785238
v -0.622522 -0.515515 0.795377
v -0.311157 -0.515515 0.900000
v -0.311157 -0.515515 0.795377
v -0.591300 0.494875 0.529766
v -0.591300 0.437094 -0.552323
v -0.591300 0.437093 0.529766
v -0.095698 -0.515514 -0.785238
v -0.311157 -0.515514 -0.900000
v -0.311157 -0.515514 -0.785238
v -0.085670 -0.615515 0.900000
v -0.305230 -0.615515 0.795377
v -0.085670 -0.615515 0.795377
v -0.310867 -0.615514 -0.900000
v -0.310867 -0.615514 -0.785238
v 0.645846 -0.615515 0.900000
v 0.554121 -0.615515 0.795377
v 0.550681 -0.515515 0.795377
v 0.335221 -0.515515 0.900000
v 0.554121 -0.515515 0.900000
v -0.311157 -0.418827 -0.785238
v -0.095698 -0.309648 0.795377
v -0.095698 -0.309647 -0.785238
v -0.095698 -0.515515 0.900000
v -0.311157 -0.615515 0.900000
v -0.622522 -0.615515 0.795377
v 0.556299 -0.615514 -0.785238
v -0.095698 -0.515515 0.795377
v -0.095206 -0.615514 -0.785238
v 0.120455 -0.615514 -0.900000
v 0.120455 -0.615514 -0.785238
v -0.781674 -0.615515 0.900000
v -0.622522 -0.615515 0.900000
v 0.363066 0.494876 -0.552323
v 0.363067 0.437093 0.529766
v 0.363066 0.437094 -0.552323
v -0.781674 -0.515515 0.900000
v -0.622522 -0.515515 0.900000
v 0.551777 -0.615514 -0.900000
v 0.644503 -0.515514 -0.900000
v 0.650481 -0.615514 -0.900000
v -0.591300 0.494876 -0.552323
v -0.265442 0.615515 -0.182854
v 0.037207 0.615515 0.160297
v 0.037207 0.615515 -0.182854
v 0.781674 -0.515515 0.795377
v 0.649040 -0.515514 -0.785238
v 0.119761 -0.199249 0.795377
v -0.781674 -0.515514 -0.785238
v -0.781674 -0.615515 0.795377
v -0.781674 -0.515515 0.795377
v 0.554121 -0.615515 0.900000
v 0.336115 -0.615514 -0.785238
v 0.336115 -0.615514 -0.900000
v 0.550681 -0.515514 -0.785238
v -0.622522 -0.515514 -0.785238
v 0.119761 -0.515515 0.795377
v 0.335221 -0.515515 0.795377
v 0.781674 -0.615515 0.900000
v 0.781674 -0.615515 0.795377
v 0.335221 -0.615515 0.795377
v -0.095206 -0.615514 -0.900000
v 0.335221 -0.101131 -0.785238
v 0.335221 -0.100779 0.795377
v 0.550681 0.002899 -0.785238
v 0.550681 0.002898 0.795377
v -0.095698 -0.515514 -0.900000
v 0.119762 -0.515514 -0.900000
v 0.781674 -0.615514 -0.785238
v 0.335221 -0.515514 -0.900000
v 0.550681 -0.515514 -0.900000
v 0.779279 -0.515515 0.900000
v 0.777156 -0.515514 -0.900000
v 0.781674 -0.515514 -0.785238
v 0.648208 0.040323 0.795377
v 0.648208 0.040324 -0.785238
v 0.781674 -0.615514 -0.900000
v 0.119761 -0.515515 0.900000
v 0.119761 -0.615515 0.900000
v 0.335221 -0.615515 0.900000
v 0.363067 0.494875 0.529766
v 0.648600 -0.515515 0.795377
v 0.645846 -0.515515 0.900000
v 0.645602 -0.515515 0.900000
v 0.119761 -0.515514 -0.785238
v -0.448644 -0.468891 0.470544
v -0.489045 -0.398049 -0.494482
v -0.448643 -0.468890 -0.494482
v 0.335221 -0.515514 -0.785238
v -0.534940 -0.205763 0.470544
v 0.311603 -0.109738 0.471415
v 0.311603 0.385376 -0.493972
v 0.311603 0.385375 0.471415
v -0.517959 -0.303330 0.470544
v -0.517959 -0.303329 -0.494482
v 0.119761 -0.615515 0.795377
v -0.489045 -0.398050 0.470544
v -0.534940 0.385375 0.471415
v -0.311157 -0.418828 0.795377
v 0.119761 -0.199056 -0.785238
v -0.265442 0.615515 0.160297
vt 0.363265 0.682624
vt 0.532877 0.583424
vt 0.532877 0.682624
vt 0.464541 0.071422
vt 0.489488 0.118140
vt 0.464608 0.118176
vt 0.166552 0.481795
vt 0.114542 0.458387
vt 0.166419 0.458096
vt 0.319606 0.457234
vt 0.268404 0.432726
vt 0.319466 0.432439
vt 0.217615 0.481508
vt 0.217481 0.457808
vt 0.319221 0.956427
vt 0.062557 0.969735
vt 0.062578 0.956030
vt 0.431248 0.480307
vt 0.393397 0.456819
vt 0.431114 0.456607
vt 0.092011 0.433718
vt 0.092803 0.458509
vt 0.317207 0.030647
vt 0.391151 0.057430
vt 0.317360 0.057845
vt 0.166279 0.433301
vt 0.217342 0.433014
vt 0.056002 0.430853
vt 0.032525 0.455551
vt 0.032475 0.430832
vt 0.452568 0.057085
vt 0.430975 0.431812
vt 0.428869 0.057218
vt 0.089173 0.008229
vt 0.059285 0.032097
vt 0.058081 0.008404
vt 0.854967 0.209049
vt 0.832355 0.256681
vt 0.832286 0.209082
vt 0.489419 0.070405
vt 0.832056 0.050495
vt 0.832084 0.070380
vt 0.489556 0.164893
vt 0.489624 0.211647
vt 0.489840 0.360468
vt 0.832455 0.325468
vt 0.832505 0.359970
vt 0.114675 0.482087
vt 0.390865 0.006533
vt 0.428716 0.030020
vt 0.390998 0.030232
vt 0.363294 0.544342
vt 0.169972 0.524215
vt 0.363323 0.524499
vt 0.393258 0.432024
vt 0.089800 0.059124
vt 0.058481 0.059210
vt 0.832221 0.164546
vt 0.854835 0.117803
vt 0.854903 0.164513
vt 0.464676 0.164929
vt 0.765813 0.870061
vt 0.449039 0.822104
vt 0.765729 0.821555
vt 0.875300 0.030332
vt 0.986668 0.347022
vt 0.875300 0.347022
vt 0.034873 0.058826
vt 0.854766 0.070347
vt 0.854737 0.050462
vt 0.090722 0.031921
vt 0.113111 0.058993
vt 0.464510 0.050024
vt 0.855136 0.325435
vt 0.855186 0.359937
vt 0.464744 0.211683
vt 0.046497 0.727743
vt 0.060326 0.727607
vt 0.087449 0.431246
vt 0.113345 0.059272
vt 0.110998 0.431395
vt 0.464910 0.326001
vt 0.489692 0.258400
vt 0.489790 0.325965
vt 0.112957 0.031796
vt 0.164173 0.058706
vt 0.454674 0.431679
vt 0.363265 0.564184
vt 0.169841 0.682339
vt 0.169913 0.563899
vt 0.726301 0.682624
vt 0.214785 0.007523
vt 0.164020 0.031508
vt 0.163675 0.007810
vt 0.265895 0.007236
vt 0.215082 0.031221
vt 0.112565 0.008098
vt 0.056162 0.455476
vt 0.087286 0.479485
vt 0.055270 0.479040
vt 0.115217 0.433588
vt 0.266300 0.481234
vt 0.316990 0.714300
vt 0.316969 0.728004
vt 0.765979 0.965432
vt 0.449326 0.986914
vt 0.449289 0.965984
vt 0.765532 0.707837
vt 0.448955 0.773709
vt 0.448842 0.708385
vt 0.000289 0.582671
vt 0.268543 0.457521
vt 0.319739 0.480933
vt 0.333051 0.956291
vt 0.854694 0.021015
vt 0.035469 0.031539
vt 0.855038 0.257933
vt 0.215235 0.058419
vt 0.489348 0.021546
vt 0.464468 0.021582
vt 0.169996 0.507875
vt 0.363347 0.508160
vt 0.228521 0.807576
vt 0.151026 0.876458
vt 0.149772 0.806887
vt 0.832153 0.117836
vt 0.317005 0.006948
vt 0.266145 0.030934
vt 0.266297 0.058132
vt 0.087671 0.455914
vt 0.851125 0.558594
vt 0.958851 0.529541
vt 0.938246 0.588858
vt 0.380555 0.511464
vt 0.372460 0.525658
vt 0.366667 0.544636
vt 0.836737 0.420647
vt 0.988863 0.443147
vt 0.979457 0.470225
vt 0.166523 0.544349
vt 0.160741 0.525367
vt 0.152655 0.511169
vt 0.452415 0.029887
vt 0.393530 0.480519
vt 0.832013 0.021048
vt 0.489389 0.049994
vt 0.074215 0.695782
vt 0.303179 0.696136
vt 0.464812 0.258436
vt 0.229775 0.877147
vt 0.076369 0.987060
vt 0.319200 0.970132
vt 0.305333 0.987415
vt 0.464960 0.360504
vt 0.449206 0.918046
vt 0.765896 0.917525
vt 0.822386 0.415031
vt 0.669841 0.459158
vt 0.819224 0.383741
vt 0.741458 0.601149
vt 0.826007 0.631154
vt 0.770670 0.659065
vt 0.683035 0.485316
vt 0.823729 0.487004
vt 0.712247 0.543232
vt 0.349594 0.741173
vt 0.330799 0.727868
vt 0.860965 0.628486
vt 0.917641 0.648174
vt 0.867258 0.793210
vt 0.870417 0.698244
vt 0.897035 0.707491
vt 0.826472 0.558270
vt 0.844771 0.489912
vt 0.027967 0.741417
vt 0.048748 0.956167
vt 0.029964 0.944033
vt 0.825871 0.703873
vt 0.799881 0.716981
vt 0.842095 0.800677
vt 0.169943 0.544057
vt 0.092937 0.482209
vt 0.428583 0.006321
vt 0.449123 0.870627
vt 0.986668 0.030332
vt 0.454814 0.456474
vt 0.726301 0.583059
vt 0.060348 0.713903
vt 0.766016 0.986362
vt 0.765645 0.773160
vt 0.000228 0.682236
vt 0.835761 0.390218
vt 0.351591 0.943789
vn -0.0002 -0.0003 1.0000
vn -0.0016 -0.0004 1.0000
vn 0.0000 -0.0000 1.0000
vn 0.0000 -1.0000 0.0000
vn 0.0000 1.0000 0.0000
vn 1.0000 0.0000 -0.0000
vn 1.0000 0.0058 0.0056
vn 0.9999 0.0123 0.0118
vn -1.0000 0.0000 0.0000
vn 0.0000 0.0000 -1.0000
vn -0.9564 -0.2920 -0.0000
vn -0.4558 0.8901 -0.0004
vn -0.4569 0.8895 -0.0033
vn -0.4525 0.8918 -0.0012
vn 1.0000 0.0013 0.0001
vn 1.0000 0.0009 0.0002
vn 1.0000 0.0011 0.0005
vn 0.9999 0.0103 -0.0090
vn -0.9996 0.0266 -0.0057
vn -0.9997 -0.0173 -0.0180
vn -0.9998 0.0215 -0.0029
vn 1.0000 0.0003 -0.0004
vn -0.3583 0.9336 0.0000
vn -0.2966 0.9550 0.0000
vn 0.0001 0.0002 -1.0000
vn 0.0003 0.0003 -1.0000
vn 0.0005 0.0005 -1.0000
vn 0.9995 0.0245 -0.0214
vn -0.8687 -0.4954 -0.0000
vn -0.0032 1.0000 0.0063
vn -0.0009 -0.0005 1.0000
vn -0.0014 -0.0008 1.0000
vn -0.0010 -0.0003 1.0000
vn -0.0010 -0.0002 1.0000
vn 0.0006 0.0001 -1.0000
vn 0.0006 0.0002 -1.0000
vn 0.0005 0.0003 -1.0000
vn -0.0009 -0.0008 1.0000
vn -0.6761 -0.7368 -0.0000
vn 0.0000 0.9506 -0.3104
vn 0.0000 0.9506 0.3104
vn 0.7089 -0.7054 -0.0000
vn 0.7088 -0.7054 -0.0000
vn -0.3472 0.9378 0.0000
vn -0.4152 0.9097 0.0001
vn -0.4141 0.9102 0.0002
vn -0.4157 0.9095 -0.0002
vn -0.4520 0.8920 0.0000
vn 0.3472 0.9378 0.0000
vn -0.0001 -0.0011 1.0000
vn 0.0000 -0.7484 0.6633
vn -0.0000 0.0024 -1.0000
vn -0.4342 0.9008 -0.0001
vn -0.4343 0.9008 -0.0001
vn -0.4336 0.9011 0.0000
vn 0.0000 -0.7484 -0.6633
vn -0.9852 -0.1715 -0.0000
vn 0.9995 0.0239 0.0229
vn -0.4566 0.8897 0.0001
vn 1.0000 0.0012 -0.0001
vn -0.9999 -0.0141 -0.0007
vn 0.9982 0.0451 -0.0393
vn -0.4138 0.9104 0.0001
vn -0.4348 0.9005 -0.0002
f 109/1/1 102/2/2 104/3/3
f 50/4/4 64/5/4 65/6/4
f 91/7/3 31/8/3 30/9/3
f 14/10/5 39/11/5 15/12/5
f 90/13/3 30/9/3 89/14/3
f 92/15/6 47/16/6 45/17/6
f 43/18/3 49/19/3 48/20/3
f 93/21/5 31/8/5 94/22/5
f 20/23/5 67/24/5 21/25/5
f 89/14/5 69/26/5 68/27/5
f 57/28/7 70/29/8 71/30/6
f 10/31/9 62/32/9 60/33/9
f 52/34/10 84/35/10 88/36/10
f 22/37/4 23/38/4 24/39/4
f 38/40/4 6/41/4 28/42/4
f 42/43/4 24/39/4 40/44/4
f 10/45/4 37/46/4 61/47/4
f 63/48/3 94/22/3 31/8/3
f 11/49/10 9/50/10 7/51/10
f 105/52/11 98/53/11 108/54/11
f 48/20/5 13/55/5 62/32/5
f 84/35/5 58/56/5 85/57/5
f 107/58/4 91/59/4 90/60/4
f 41/61/4 64/5/4 42/43/4
f 59/62/12 34/63/13 33/64/14
f 58/65/15 86/66/16 93/67/17
f 57/28/7 80/68/6 85/57/18
f 63/69/4 6/41/4 27/70/4
f 51/71/5 66/72/5 58/56/5
f 52/73/4 38/40/4 50/4/4
f 49/19/5 15/12/5 13/55/5
f 61/47/4 44/74/4 43/75/4
f 73/76/4 42/43/4 40/44/4
f 45/17/10 17/77/10 53/78/10
f 4/79/19 5/80/20 6/81/21
f 11/82/4 26/83/4 12/84/4
f 82/85/5 100/86/5 66/72/5
f 61/87/9 48/20/9 62/32/9
f 101/88/9 1/89/9 3/90/9
f 102/2/22 103/91/6 104/3/6
f 40/44/4 23/38/4 26/83/4
f 41/92/10 81/93/10 65/94/10
f 26/83/4 37/46/4 12/84/4
f 73/95/10 79/96/10 41/92/10
f 65/94/10 82/85/10 50/97/10
f 83/98/3 27/99/3 70/100/3
f 29/101/5 30/9/5 31/8/5
f 89/14/3 22/102/3 90/13/3
f 53/78/9 18/103/9 16/104/9
f 77/105/23 87/106/23 76/107/23
f 13/108/24 32/109/24 67/110/24
f 1/89/25 2/111/26 3/90/27
f 35/112/3 36/113/3 22/102/3
f 50/97/10 51/71/10 52/34/10
f 16/104/3 46/114/3 92/15/3
f 62/32/5 67/24/5 60/33/5
f 6/41/4 70/115/4 27/70/4
f 88/116/28 85/57/18 80/68/6
f 36/117/4 37/46/4 23/38/4
f 100/86/5 79/96/5 96/118/5
f 80/119/4 52/73/4 88/120/4
f 108/54/29 99/121/29 97/122/29
f 112/123/5 56/124/5 54/125/5
f 91/59/4 28/42/4 63/69/4
f 72/126/4 42/43/4 64/5/4
f 11/49/10 20/23/10 25/127/10
f 28/42/4 64/5/4 38/40/4
f 96/118/5 78/128/5 19/129/5
f 35/112/5 68/27/5 39/11/5
f 83/98/5 4/79/30 95/130/5
f 25/127/10 78/128/10 73/95/10
f 111/131/10 100/132/10 96/133/10
f 97/134/31 102/2/32 108/135/31
f 108/135/33 102/2/2 105/136/34
f 76/137/10 58/138/10 66/139/10
f 3/90/27 2/111/26 106/140/35
f 98/141/36 2/111/26 99/142/37
f 57/28/5 58/56/5 4/79/30
f 8/143/9 60/33/9 9/50/9
f 44/144/3 14/10/3 49/19/3
f 105/136/34 102/2/2 101/88/38
f 71/145/4 5/146/4 80/119/4
f 18/103/39 1/147/39 109/148/39
f 25/149/4 40/44/4 26/83/4
f 53/78/40 56/124/40 45/17/40
f 55/150/41 16/104/41 92/15/41
f 103/151/42 46/152/43 104/153/43
f 16/104/44 54/125/44 53/78/44
f 78/128/5 21/25/5 19/129/5
f 60/33/5 7/51/5 9/50/5
f 8/154/4 12/84/4 10/45/4
f 74/155/45 59/62/46 75/156/47
f 77/157/3 4/158/3 86/159/3
f 32/109/48 33/64/14 34/63/13
f 45/17/49 55/150/49 92/15/49
f 106/140/35 2/111/26 98/141/36
f 68/160/3 33/161/50 39/162/3
f 29/163/3 75/164/3 69/165/3
f 109/166/51 46/114/51 18/167/51
f 34/168/52 96/133/10 19/169/10
f 67/170/10 32/171/10 21/172/10
f 76/107/53 75/156/54 77/105/55
f 69/165/3 59/173/3 68/160/3
f 32/171/10 19/169/10 21/172/10
f 74/174/10 66/139/10 100/132/10
f 1/175/56 47/176/56 103/177/56
f 39/162/3 110/178/3 15/179/3
f 13/180/3 15/179/3 110/178/3
f 16/104/44 112/123/44 54/125/44
f 45/17/49 56/124/49 55/150/49
f 101/88/57 106/181/57 105/52/57
f 24/39/4 90/60/4 22/37/4
f 109/1/1 101/88/38 102/2/2
f 50/4/4 38/40/4 64/5/4
f 91/7/3 63/48/3 31/8/3
f 14/10/5 35/112/5 39/11/5
f 90/13/3 91/7/3 30/9/3
f 92/15/6 46/152/6 47/16/6
f 43/18/3 44/144/3 49/19/3
f 93/21/5 29/101/5 31/8/5
f 20/23/5 7/51/5 67/24/5
f 89/14/5 30/9/5 69/26/5
f 57/28/7 83/98/58 70/29/8
f 10/31/9 61/87/9 62/32/9
f 52/34/10 51/71/10 84/35/10
f 22/37/4 36/117/4 23/38/4
f 38/40/4 5/146/4 6/41/4
f 42/43/4 107/58/4 24/39/4
f 10/45/4 12/84/4 37/46/4
f 63/48/3 27/182/3 94/22/3
f 11/49/10 8/183/10 9/50/10
f 105/52/11 106/181/11 98/53/11
f 48/20/5 49/19/5 13/55/5
f 84/35/5 51/71/5 58/56/5
f 107/58/4 72/126/4 91/59/4
f 41/61/4 65/6/4 64/5/4
f 59/62/12 111/184/59 34/63/13
f 58/65/15 87/185/60 86/66/16
f 57/28/7 71/30/6 80/68/6
f 63/69/4 28/42/4 6/41/4
f 51/71/5 82/85/5 66/72/5
f 52/73/4 5/146/4 38/40/4
f 49/19/5 14/10/5 15/12/5
f 61/47/4 37/46/4 44/74/4
f 73/76/4 41/61/4 42/43/4
f 45/17/10 47/176/10 17/77/10
f 4/79/19 58/56/61 5/80/20
f 11/82/4 25/149/4 26/83/4
f 82/85/5 81/93/5 100/86/5
f 61/87/9 43/186/9 48/20/9
f 101/88/9 109/1/9 1/89/9
f 102/2/22 2/187/6 103/91/6
f 40/44/4 24/39/4 23/38/4
f 41/92/10 79/96/10 81/93/10
f 26/83/4 23/38/4 37/46/4
f 73/95/10 78/128/10 79/96/10
f 65/94/10 81/93/10 82/85/10
f 83/98/3 95/130/3 27/99/3
f 29/101/5 69/26/5 30/9/5
f 89/14/3 35/112/3 22/102/3
f 53/78/9 17/188/9 18/103/9
f 77/105/23 86/189/23 87/106/23
f 13/108/24 110/190/24 32/109/24
f 1/89/25 103/191/10 2/111/26
f 35/112/3 14/10/3 36/113/3
f 50/97/10 82/85/10 51/71/10
f 16/104/3 18/167/3 46/114/3
f 62/32/5 13/55/5 67/24/5
f 6/41/4 71/145/4 70/115/4
f 88/116/28 84/35/62 85/57/18
f 36/117/4 44/74/4 37/46/4
f 100/86/5 81/93/5 79/96/5
f 80/119/4 5/146/4 52/73/4
f 108/54/29 98/53/29 99/121/29
f 112/123/5 55/150/5 56/124/5
f 91/59/4 72/126/4 28/42/4
f 72/126/4 107/58/4 42/43/4
f 11/49/10 7/51/10 20/23/10
f 28/42/4 72/126/4 64/5/4
f 96/118/5 79/96/5 78/128/5
f 35/112/5 89/14/5 68/27/5
f 83/98/5 57/28/5 4/79/30
f 25/127/10 20/23/10 78/128/10
f 111/131/10 74/174/10 100/132/10
f 76/137/10 87/192/10 58/138/10
f 57/28/5 85/57/5 58/56/5
f 8/143/9 10/31/9 60/33/9
f 44/144/3 36/113/3 14/10/3
f 71/145/4 6/41/4 5/146/4
f 18/103/39 17/188/39 1/147/39
f 25/149/4 73/76/4 40/44/4
f 53/78/40 54/125/40 56/124/40
f 55/150/41 112/123/41 16/104/41
f 103/151/42 47/16/42 46/152/43
f 78/128/5 20/23/5 21/25/5
f 60/33/5 67/24/5 7/51/5
f 8/154/4 11/82/4 12/84/4
f 74/155/45 111/184/63 59/62/46
f 77/157/3 29/163/3 4/158/3
f 32/109/48 110/190/48 33/64/14
f 68/160/3 59/173/3 33/161/50
f 29/163/3 77/157/3 75/164/3
f 109/166/51 104/193/51 46/114/51
f 34/168/52 111/131/10 96/133/10
f 76/107/53 74/155/64 75/156/54
f 69/165/3 75/164/3 59/173/3
f 32/171/10 34/168/52 19/169/10
f 74/174/10 76/137/10 66/139/10
f 1/175/56 17/77/56 47/176/56
f 39/162/3 33/161/50 110/178/3
f 101/88/57 3/90/57 106/181/57
f 24/39/4 107/58/4 90/60/4
